<?xml version="1.0" encoding="utf-8"?>
<!-- Generator: Adobe Illustrator 15.1.0, SVG Export Plug-In . SVG Version: 6.00 Build 0)  -->
<!DOCTYPE svg PUBLIC "-//W3C//DTD SVG 1.1//EN" "http://www.w3.org/Graphics/SVG/1.1/DTD/svg11.dtd">
<svg version="1.1" id="Layer_1" xmlns="http://www.w3.org/2000/svg" xmlns:xlink="http://www.w3.org/1999/xlink" x="0px" y="0px"
	 width="50px" height="50px" viewBox="0 0 50 50" enable-background="new 0 0 50 50" xml:space="preserve">
<g>
	<path fill="#ffffff" d="M25.999,9.268l-0.006-2.93c-0.002-0.565-0.46-1.021-1.022-1.021c-0.565,0-1.021,0.459-1.021,1.024
		l0.004,2.959C24.638,9.243,25.322,9.235,25.999,9.268z"/>
	<path fill="#ffffff" d="M13.237,14.816c0.439-0.519,0.909-1.012,1.418-1.473l-2.073-2.066c-0.401-0.399-1.047-0.397-1.448,0.001
		c-0.399,0.4-0.396,1.048,0.003,1.447L13.237,14.816z"/>
	<path fill="#ffffff" d="M43.909,25.742c0.135,0,0.264-0.029,0.383-0.075c0.374-0.151,0.638-0.521,0.638-0.949
		c-0.003-0.565-0.459-1.021-1.025-1.021l-2.956,0.005c0.056,0.685,0.064,1.368,0.032,2.044L43.909,25.742z"/>
	<path fill="#ffffff" d="M36.904,14.402l2.066-2.071c0.4-0.401,0.396-1.047-0.004-1.446c-0.398-0.399-1.048-0.398-1.445,0.001
		l-2.087,2.098C35.951,13.424,36.441,13.895,36.904,14.402z"/>
	<path fill="#ffffff" d="M6.591,24.253c-0.566,0-1.022,0.459-1.021,1.023c0,0.563,0.459,1.021,1.024,1.021l2.958-0.007
		c-0.056-0.682-0.065-1.364-0.031-2.041L6.591,24.253z"/>
	<path fill="#ffffff" d="M37.264,35.181c-0.438,0.517-0.911,1.011-1.419,1.474l2.072,2.066c0.3,0.296,0.737,0.372,1.107,0.224
		c0.123-0.051,0.239-0.124,0.34-0.226c0.398-0.402,0.398-1.049-0.003-1.448L37.264,35.181z"/>
	<path fill="#ffffff" d="M24.502,40.73l0.003,2.927c0.002,0.564,0.459,1.024,1.023,1.021c0.138,0,0.266-0.027,0.383-0.075
		c0.375-0.153,0.638-0.52,0.638-0.948l-0.006-2.958C25.86,40.754,25.177,40.76,24.502,40.73z"/>
	<path fill="#ffffff" d="M13.594,35.595l-2.064,2.071c-0.4,0.399-0.4,1.046,0,1.446c0.298,0.298,0.738,0.373,1.106,0.225
		c0.124-0.052,0.242-0.127,0.338-0.229l2.093-2.098C14.552,36.572,14.057,36.1,13.594,35.595z"/>
</g>
<g>
	<path fill="#ffffff" d="M35.259,4.478c0.326-0.772-0.033-1.662-0.807-1.991c-0.771-0.326-1.661,0.034-1.985,0.806l-2.781,6.56
		c-0.004,0.012-0.009,0.024-0.011,0.035c0.973,0.288,1.913,0.663,2.814,1.129L35.259,4.478z"/>
	<path fill="#ffffff" d="M17.679,11.15c0.004,0.011,0.012,0.021,0.018,0.031c0.529-0.287,1.072-0.55,1.641-0.781
		c0.384-0.153,0.764-0.286,1.148-0.409l-2.668-6.583c-0.313-0.777-1.2-1.151-1.976-0.835c-0.774,0.314-1.151,1.198-0.834,1.975
		L17.679,11.15z"/>
	<path fill="#ffffff" d="M3.547,17.782l6.557,2.776c0.011,0.004,0.025,0.007,0.037,0.012c0.286-0.973,0.663-1.915,1.128-2.813
		l-6.541-2.771c-0.771-0.326-1.663,0.034-1.989,0.806C2.415,16.564,2.773,17.455,3.547,17.782z"/>
	<path fill="#ffffff" d="M39.065,17.444c0.287,0.527,0.548,1.072,0.781,1.643c0.152,0.379,0.284,0.763,0.408,1.146l6.584-2.667
		c0.776-0.316,1.15-1.2,0.837-1.977c-0.314-0.776-1.2-1.15-1.977-0.836l-6.603,2.674C39.088,17.431,39.077,17.439,39.065,17.444z"/>
	<path fill="#ffffff" d="M15.241,45.519c-0.328,0.77,0.033,1.661,0.804,1.987c0.386,0.163,0.803,0.157,1.163,0.01
		c0.357-0.146,0.664-0.427,0.827-0.813l2.777-6.558c0.005-0.013,0.009-0.025,0.012-0.037c-0.974-0.283-1.915-0.661-2.815-1.126
		L15.241,45.519z"/>
	<path fill="#ffffff" d="M32.819,38.847c-0.005-0.012-0.012-0.023-0.017-0.032c-0.529,0.287-1.072,0.546-1.643,0.779
		c-0.381,0.154-0.763,0.287-1.146,0.408l2.667,6.586c0.314,0.776,1.198,1.147,1.976,0.834c0.777-0.314,1.151-1.196,0.834-1.973
		L32.819,38.847z"/>
	<path fill="#ffffff" d="M11.435,32.551c-0.288-0.525-0.549-1.072-0.78-1.643c-0.155-0.381-0.288-0.763-0.41-1.146L3.662,32.43
		c-0.776,0.312-1.151,1.198-0.835,1.974c0.314,0.777,1.198,1.151,1.975,0.838l6.602-2.675
		C11.414,32.563,11.423,32.557,11.435,32.551z"/>
	<path fill="#ffffff" d="M46.954,32.214l-6.56-2.779c-0.013-0.004-0.023-0.007-0.035-0.01c-0.285,0.97-0.662,1.913-1.128,2.812
		l6.541,2.771c0.387,0.163,0.802,0.154,1.163,0.01c0.355-0.147,0.663-0.429,0.824-0.816C48.086,33.431,47.725,32.542,46.954,32.214z
		"/>
</g>
<g>
	<path fill="#ffffff" d="M36.728,20.349c-2.565-6.34-9.786-9.397-16.128-6.829c-6.339,2.565-9.396,9.787-6.83,16.127
		c2.569,6.339,9.789,9.396,16.13,6.828C36.239,33.907,39.298,26.688,36.728,20.349z M27.88,16.084
		c-0.146,0.633-0.775,1.028-1.406,0.885c-1.544-0.351-3.14-0.223-4.611,0.375c-1.916,0.776-3.415,2.25-4.223,4.153
		c-0.805,1.902-0.822,4.006-0.045,5.925c0.242,0.598-0.046,1.284-0.649,1.525c-0.145,0.06-0.292,0.087-0.438,0.087
		c-0.465,0-0.903-0.278-1.089-0.734c-1.012-2.497-0.992-5.238,0.059-7.718c1.053-2.481,3.003-4.406,5.502-5.416
		c1.923-0.778,4.004-0.949,6.021-0.487C27.628,14.823,28.023,15.452,27.88,16.084z"/>
</g>
<g display="none">
	<path display="inline" fill="#070707" d="M26.8,33.663c-1.904-3.504-5.629-5.741-9.639-5.741c-5.57,0-10.087,3.896-10.821,9.186
		c-2.802,0.632-4.901,3.138-4.901,6.127c0,3.463,2.817,6.281,6.28,6.281c1.458,0,2.813-0.474,3.902-1.349
		c1.757,1.125,3.578,1.676,5.54,1.676c1.855,0,3.116-0.295,4.565-1.098c1.234,0.719,2.628,1.098,4.074,1.098
		c4.478,0,8.121-3.644,8.121-8.12C33.921,37.582,30.809,34.157,26.8,33.663z"/>
</g>
</svg>
