<?xml version="1.0" encoding="utf-8"?>
<!-- Generator: Adobe Illustrator 15.1.0, SVG Export Plug-In . SVG Version: 6.00 Build 0)  -->
<!DOCTYPE svg PUBLIC "-//W3C//DTD SVG 1.1//EN" "http://www.w3.org/Graphics/SVG/1.1/DTD/svg11.dtd">
<svg version="1.1" id="Layer_1" xmlns="http://www.w3.org/2000/svg" xmlns:xlink="http://www.w3.org/1999/xlink" x="0px" y="0px"
	 width="108.322px" height="73.69px" viewBox="71.839 28.237 108.322 73.69" enable-background="new 71.839 28.237 108.322 73.69"
	 xml:space="preserve">
<g>
	<path fill="none" stroke="#43647E" stroke-width="1.8035" stroke-miterlimit="10" d="M155.906,47.968
		c-6.243-11.491-18.458-18.829-31.609-18.829c-18.268,0-33.078,12.776-35.484,30.125C79.625,61.33,72.74,69.549,72.74,79.353
		c0,11.354,9.238,20.598,20.594,20.598c4.779,0,9.225-1.553,12.797-4.421c5.764,3.691,11.732,5.495,18.165,5.495
		c6.085,0,10.22-0.968,14.972-3.6c4.047,2.355,8.619,3.6,13.36,3.6c14.685,0,26.632-11.947,26.632-26.632
		C179.259,60.817,169.05,49.589,155.906,47.968z"/>
</g>
</svg>
