<?xml version="1.0" encoding="utf-8"?>
<!-- Generator: Adobe Illustrator 15.1.0, SVG Export Plug-In . SVG Version: 6.00 Build 0)  -->
<!DOCTYPE svg PUBLIC "-//W3C//DTD SVG 1.1//EN" "http://www.w3.org/Graphics/SVG/1.1/DTD/svg11.dtd">
<svg version="1.1" xmlns="http://www.w3.org/2000/svg" xmlns:xlink="http://www.w3.org/1999/xlink" x="0px" y="0px" width="50px"
	 height="50px" viewBox="0 0 50 50" enable-background="new 0 0 50 50" xml:space="preserve">
<g id="Layer_2" display="none">
	<path fill="none" stroke="#A5CBF9" stroke-miterlimit="10" d="M6.188-47.789v-5.766c0.311-0.424,0.5-0.942,0.5-1.508
		c0-1.415-1.147-2.562-2.562-2.562s-2.562,1.147-2.562,2.562c0,0.565,0.189,1.084,0.5,1.508v5.766
		C1.12-47.135,0.5-46.047,0.5-44.812c0,2.002,1.623,3.625,3.625,3.625s3.625-1.623,3.625-3.625
		C7.75-46.047,7.13-47.135,6.188-47.789z"/>
	<g id="temperature" display="inline">
	</g>
	<circle display="inline" fill="#104FFF" cx="4.125" cy="-40.897" r="4.077"/>
	<rect x="3.25" y="-56.001" display="inline" fill="#104FFF" width="1.749" height="11.742"/>
	<circle display="inline" fill="#104FFF" cx="4.125" cy="-56.002" r="0.879"/>
	
		<ellipse display="inline" fill="none" stroke="#104FFF" stroke-width="0.7695" stroke-miterlimit="10" cx="9.442" cy="-56.001" rx="1.53" ry="1.632"/>
</g>
<g id="COLD" display="none">
	<path fill="none" stroke="#A5CBF9" stroke-width="2.0384" stroke-miterlimit="10" d="M30.292,23.138V11.386
		c0.633-0.864,1.019-1.922,1.019-3.074c0-2.885-2.339-5.224-5.223-5.224s-5.224,2.339-5.224,5.224c0,1.152,0.386,2.21,1.02,3.074
		v11.752c-1.922,1.334-3.185,3.552-3.185,6.068c0,4.08,3.309,7.389,7.389,7.389s7.389-3.309,7.389-7.389
		C33.477,26.689,32.214,24.472,30.292,23.138z"/>
	<path display="inline" fill="none" stroke="#244096" stroke-width="2.0384" stroke-miterlimit="10" d="M30.522,27.353V6.319
		c0,0,0.28-4.38-4.434-4.38c-4.554,0-4.434,4.38-4.434,4.38v21.033c-3.769,1.695-6.405,5.468-6.405,9.869
		c0,5.986,4.853,10.839,10.839,10.839s10.839-4.853,10.839-10.839C36.927,32.82,34.292,29.048,30.522,27.353z"/>
	<path display="inline" fill="#4C7FF2" d="M27.871,29.076v-3.565h-3.565v3.565c-3.731,0.818-6.528,4.132-6.528,8.109
		c0,4.591,3.721,8.309,8.311,8.309s8.311-3.718,8.311-8.309C34.399,33.208,31.602,29.895,27.871,29.076z"/>
	
		<ellipse display="inline" fill="none" stroke="#244096" stroke-width="2.0384" stroke-miterlimit="10" cx="36.927" cy="6.398" rx="3.118" ry="3.327"/>
</g>
<g id="COOL" display="none">
	<path display="inline" fill="none" stroke="#00A1D3" stroke-width="2.0384" stroke-miterlimit="10" d="M30.522,27.353V6.319
		c0,0,0.28-4.38-4.434-4.38c-4.554,0-4.434,4.38-4.434,4.38v21.033c-3.769,1.695-6.405,5.468-6.405,9.869
		c0,5.986,4.853,10.839,10.839,10.839s10.839-4.853,10.839-10.839C36.927,32.82,34.292,29.048,30.522,27.353z"/>
	<path display="inline" fill="#05DBD5" d="M27.871,29.076V16.976h-3.565v12.101c-3.731,0.818-6.528,4.132-6.528,8.109
		c0,4.591,3.721,8.309,8.311,8.309s8.311-3.718,8.311-8.309C34.399,33.208,31.602,29.895,27.871,29.076z"/>
	
		<ellipse display="inline" fill="none" stroke="#00A1D3" stroke-width="2.0384" stroke-miterlimit="10" cx="36.927" cy="6.398" rx="3.118" ry="3.327"/>
	<path display="inline" fill="none" stroke="#00A1D3" stroke-width="2.0384" stroke-miterlimit="10" d="M30.522,27.353V6.319
		c0,0,0.28-4.38-4.434-4.38c-4.554,0-4.434,4.38-4.434,4.38v21.033c-3.769,1.695-6.405,5.468-6.405,9.869
		c0,5.986,4.853,10.839,10.839,10.839s10.839-4.853,10.839-10.839C36.927,32.82,34.292,29.048,30.522,27.353z"/>
</g>
<g id="WARM" display="none">
	<path display="inline" fill="#FFC612" d="M27.871,29.076V8.885h-3.565v20.191c-3.731,0.818-6.528,4.132-6.528,8.109
		c0,4.591,3.721,8.309,8.311,8.309s8.311-3.718,8.311-8.309C34.399,33.208,31.602,29.895,27.871,29.076z"/>
	
		<ellipse display="inline" fill="none" stroke="#FF8A15" stroke-width="2.0384" stroke-miterlimit="10" cx="36.927" cy="6.398" rx="3.118" ry="3.327"/>
	<path display="inline" fill="none" stroke="#FF8A15" stroke-width="2.0384" stroke-miterlimit="10" d="M30.522,27.353V6.319
		c0,0,0.28-4.38-4.434-4.38c-4.554,0-4.434,4.38-4.434,4.38v21.033c-3.769,1.695-6.405,5.468-6.405,9.869
		c0,5.986,4.853,10.839,10.839,10.839s10.839-4.853,10.839-10.839C36.927,32.82,34.292,29.048,30.522,27.353z"/>
</g>
<g id="HOT">
	<path fill="none" stroke="#D82400" stroke-width="2.0384" stroke-miterlimit="10" d="M30.522,27.353V6.319
		c0,0,0.28-4.38-4.434-4.38c-4.554,0-4.434,4.38-4.434,4.38v21.033c-3.769,1.695-6.405,5.468-6.405,9.869
		c0,5.986,4.853,10.839,10.839,10.839s10.839-4.853,10.839-10.839C36.927,32.82,34.292,29.048,30.522,27.353z"/>
	<path fill="#FF6950" d="M27.871,29.076V6.446c0.001-0.018,0.01-0.031,0.01-0.05c0-0.987-0.802-1.791-1.792-1.791
		s-1.792,0.804-1.792,1.791c0,0.019,0.009,0.032,0.01,0.05v22.63c-3.731,0.818-6.528,4.132-6.528,8.109
		c0,4.591,3.721,8.309,8.311,8.309s8.311-3.718,8.311-8.309C34.399,33.208,31.602,29.895,27.871,29.076z"/>
	
		<ellipse fill="none" stroke="#D82400" stroke-width="2.0384" stroke-miterlimit="10" cx="36.927" cy="6.398" rx="3.118" ry="3.327"/>
</g>
<g id="rain" display="none">
	<path display="inline" fill="none" stroke="#4C7FF2" stroke-width="1.5226" stroke-miterlimit="10" d="M1.519,28.902
		C0.663,18.638,12.042,10.251,25.022,10.251c12.982,0,23.505,8.352,23.505,18.651c0,1.074-0.482,2.297-0.482,2.297
		c-2.675-3.903-3.911-4.791-7.501-4.791c-3.703,0-7.69,1.423-8.252,4.744c0,0-2.05-5.479-7.97-4.952
		c-3.967,0.354-6.731,2.312-7.784,5.216c0,0-3.552-5.024-7.126-5.024c-3.791,0-6.578,1.387-7.367,4.808
		C2.043,31.199,1.565,29.461,1.519,28.902z"/>
	<path display="inline" fill="#4C7FF2" d="M18.737,46.898c1.38-0.102,2.524-0.472,3.231-1.28c0.809-0.907,1.145-2.187,1.145-6.093
		V25.827h2.962v14.844c0,3.163-0.505,5.219-1.953,6.699c-1.313,1.312-3.467,1.85-5.048,1.85L18.737,46.898z"/>
	<path display="inline" fill="#4C7FF2" d="M22.239,10c0-1.381,1.103-2.5,2.464-2.5c1.36,0,2.463,1.119,2.463,2.5"/>
</g>
<g id="snow" display="none">
	<g display="inline">
		<path fill-rule="evenodd" clip-rule="evenodd" fill="#09A4CE" d="M27.125,7.322c1.773-0.602,2.602-3.907,4.89-4.041
			c1.561-0.092,2.749,1.418,2.233,2.975c-0.359,1.087-2.602,2.815-3.509,3.723c-1.264,1.268-2.623,2.468-3.614,3.614
			c0,1.242,0,2.48,0,3.723c0.945,0.753,2.108,1.292,3.191,1.911c1.184-0.581,2.28-1.259,3.401-1.911
			c0.401-1.619,0.903-3.196,1.38-4.999c0.393-1.473,0.594-3.969,1.489-4.886c1.15-1.188,3.404-0.614,3.718,0.954
			c0.435,2.134-1.284,4.045-1.275,5.738c1.665-0.104,3.367-2.689,5.53-2.655c1.447,0.024,2.405,1.246,2.02,2.873
			c-0.431,1.82-4.162,2.477-5.421,3.614c1.932,1.204,6.329,0.494,6.378,3.4c0.059,3.442-4.204,1.766-6.805,1.062
			c-1.15-0.31-3.551-1.367-4.781-1.275c-1.376,0.104-2.434,1.664-3.509,1.916c0,1.166,0,2.334,0,3.505
			c0.975,0.31,2.167,1.861,3.4,2.021c1.104,0.143,3.142-0.829,4.786-1.28c2.497-0.682,6.851-2.396,6.91,0.962
			c0.05,3.137-4.057,2.192-6.274,3.4c0.996,1.334,4.86,1.812,5.316,3.724c0.376,1.589-0.582,2.827-2.02,2.869
			c-2.159,0.055-3.735-2.427-5.53-2.77c0.452,2.075,2.877,7.589-0.954,7.442c-2.171-0.08-2.435-3.33-2.978-5.418
			c-0.485-1.877-0.945-3.45-1.38-5.106c-1.033-0.736-2.292-1.247-3.296-2.017c-1.15,0.548-2.104,1.301-3.296,1.808
			c0.243,1.012-0.318,2.66,0,3.823c0.234,0.861,2.393,2.609,3.51,3.722c1.38,1.377,3.739,2.753,3.718,4.572
			c-0.012,1.33-1.334,2.439-2.765,2.017c-1.891-0.553-2.648-2.916-4.463-4.032c-0.339,2.179,0.456,3.56,0,5.63
			c-0.464,2.116-3.756,2.075-4.254,0.104c-0.452-1.794,0.343-3.631,0-5.631c-1.74,0.591-2.597,3.837-4.781,4.037
			c-1.736,0.159-2.823-1.464-2.234-2.974c0.531-1.359,2.255-2.468,3.51-3.724c1.33-1.33,2.551-2.622,3.505-3.613
			c0-1.275,0-2.552,0-3.828c-1.003-0.685-2.171-1.229-3.187-1.911c-1.138,0.632-2.188,1.359-3.401,1.911
			c-0.364,1.682-0.899,3.28-1.385,5.104c-0.531,2.007-0.682,5.361-2.869,5.525c-3.807,0.293-1.686-5.175-1.062-7.333
			c-1.64,0.083-3.351,2.644-5.421,2.66C4.04,38.267,3.027,37.037,3.42,35.39c0.427-1.799,4.095-2.423,5.312-3.618
			c-1.945-1.264-6.219-0.494-6.27-3.4c-0.059-3.599,4.563-1.599,6.911-0.959c1.782,0.489,3.458,0.766,4.676,1.276
			c1.138-0.703,2.321-1.364,3.509-2.021c0-1.167,0-2.334,0-3.505c-0.929-0.368-2.138-1.888-3.405-2.021
			c-1.263-0.134-3.225,0.849-4.781,1.275c-2.501,0.682-6.852,2.394-6.911-0.957c-0.05-3.045,4.33-2.347,6.379-3.401
			c-1.029-1.28-4.961-1.786-5.421-3.719c-0.376-1.572,0.54-2.794,1.912-2.873c2.247-0.13,3.819,2.417,5.635,2.765
			c0.017-1.958-1.72-3.651-1.276-5.848c0.306-1.51,2.564-2.15,3.723-0.954c0.865,0.892,1.024,3.146,1.484,4.886
			c0.197,0.736,0.515,1.602,0.749,2.446c0.238,0.88,0.268,1.899,0.636,2.443c0.669,0.995,2.564,1.247,3.296,2.021
			c1.196-0.502,2.179-1.222,3.292-1.803c-0.23-0.983,0.314-2.593,0-3.723c-0.276-1.012-2.535-2.639-3.609-3.723
			c-0.791-0.791-3.15-2.628-3.51-3.723c-0.51-1.535,0.816-3.409,2.656-2.865c1.891,0.552,2.652,2.915,4.463,4.04
			c0.197-2.84-0.815-6.855,1.703-7.232C27.895-0.291,27.062,4.109,27.125,7.322z M24.892,21.246
			c-1.008,0.051-1.924,1.545-3.083,1.703c0,1.238,0,2.48,0,3.719c1.021,0.611,2.112,1.15,3.083,1.807
			c1.196-0.501,2.183-1.221,3.295-1.807c0-1.238,0-2.48,0-3.719C26.849,22.715,26.096,21.188,24.892,21.246z"/>
	</g>
</g>
<g id="Clear" display="none">
	<path display="inline" fill="none" stroke="#F7B614" stroke-width="1.1377" stroke-miterlimit="10" d="M37.086,40.977
		c-0.083,0-0.166,0.009-0.248,0.013c-0.055-0.31,0.453-9.684-6.684-9.493c-0.697,0.019-1.368,0.137-1.998,0.385
		c-0.08-0.059-0.179-0.105-0.221-0.196c-2.654-5.807-7.71-5.807-9.043-5.807c-4.471,0-8.095,3.168-8.095,7.075
		c0,0.235,0.015,0.466,0.04,0.693c-0.268-0.032-0.54-0.054-0.816-0.054c-3.926,0-7.107,3.478-7.107,7.769
		c0,2.138,0.791,4.075,2.07,5.48c0.263,0.714,0.579,1.475,0.958,2.288H36.66c0,0,0.006-0.008,0.016-0.023
		c0.136,0.015,0.272,0.023,0.411,0.023c2.121,0,3.839-1.825,3.839-4.077C40.926,42.802,39.207,40.977,37.086,40.977z"/>
	<path display="inline" fill="#FCDA12" d="M28.884,29.981c0.041,0.09,0.14,0.137,0.22,0.194c0.63-0.248,1.301-0.366,1.998-0.385
		c5.911-0.157,7.165,6.242,7.25,8.623c2.218-1.964,3.016-4.749,3.016-7.84c0-5.943-5.115-10.761-11.424-10.761
		c-3.774,0-7.121,1.726-9.201,4.384C22.732,24.322,26.655,25.103,28.884,29.981z"/>
	
		<path display="inline" fill="none" stroke="#FCDA12" stroke-width="1.1377" stroke-linecap="round" stroke-linejoin="round" stroke-miterlimit="10" d="
		M28.236,12.628l0.967,5.343L28.236,12.628z"/>
	
		<path display="inline" fill="none" stroke="#FCDA12" stroke-width="1.1377" stroke-linecap="round" stroke-linejoin="round" stroke-miterlimit="10" d="
		M16.647,18.64l4.894,2.347L16.647,18.64z"/>
	
		<line display="inline" fill="none" stroke="#FCDA12" stroke-width="1.1377" stroke-linecap="round" stroke-miterlimit="10" x1="41.057" y1="16.399" x2="37.995" y2="20.881"/>
	
		<line display="inline" fill="none" stroke="#FCDA12" stroke-width="1.1377" stroke-linecap="round" stroke-miterlimit="10" x1="48.265" y1="27.186" x2="42.933" y2="28.199"/>
	
		<line display="inline" fill="none" stroke="#FCDA12" stroke-width="1.1377" stroke-linecap="round" stroke-miterlimit="10" x1="46.262" y1="38.298" x2="41.368" y2="35.952"/>
</g>
</svg>
