<?xml version="1.0" encoding="utf-8"?>
<!-- Generator: Adobe Illustrator 15.1.0, SVG Export Plug-In . SVG Version: 6.00 Build 0)  -->
<!DOCTYPE svg PUBLIC "-//W3C//DTD SVG 1.1//EN" "http://www.w3.org/Graphics/SVG/1.1/DTD/svg11.dtd">
<svg version="1.1" id="Layer_1" xmlns="http://www.w3.org/2000/svg" xmlns:xlink="http://www.w3.org/1999/xlink" x="0px" y="0px"
	 width="67.272px" height="101.444px" viewBox="0 0 67.272 101.444" enable-background="new 0 0 67.272 101.444"
	 xml:space="preserve">
<g>
	<g>
		<path fill="#43647E" d="M32.563,0.002L32.834,0h0.082l0.002,0.083c0.128,5.383,0.98,10.771,2.833,15.824
			c1.832,5.063,4.677,9.704,8.054,13.881c1.682,2.102,3.496,4.083,5.335,6.063c1.826,1.99,3.621,4.014,5.344,6.101
			c3.438,4.172,6.623,8.612,9.009,13.514c2.382,4.88,3.891,10.3,3.772,15.804c-0.093,5.472-1.717,10.982-4.913,15.488
			c-3.161,4.532-7.682,7.974-12.617,10.318c-4.954,2.353-10.342,3.701-15.787,4.178c-5.429,0.48-11.067,0.121-16.253-1.944
			c-5.188-2.009-9.636-5.851-12.513-10.599C2.286,83.954,0.787,78.502,0.24,73.05c-0.539-5.469-0.152-10.997,0.997-16.352
			c0.598-2.674,1.391-5.304,2.395-7.854c1.017-2.558,2.216-4.974,3.423-7.408c2.444-4.84,5.115-9.557,7.971-14.148
			c2.843-4.6,5.808-9.114,8.763-13.629c2.979-4.5,5.94-9.008,8.749-13.615L32.563,0.002z M32.657,0.168
			c-2.634,4.695-5.423,9.304-8.229,13.896c-2.836,4.593-5.692,9.169-8.409,13.82c-2.709,4.654-5.337,9.351-7.679,14.187
			c-1.157,2.414-2.323,4.857-3.264,7.329c-0.938,2.485-1.671,5.048-2.215,7.648C1.745,62.242,1.368,67.61,1.886,72.886
			c0.524,5.261,1.97,10.479,4.701,14.968c2.679,4.505,6.784,8.125,11.664,10.075c4.867,1.999,10.3,2.417,15.587,1.998
			c5.302-0.422,10.561-1.697,15.381-3.941c4.805-2.237,9.183-5.526,12.249-9.852c3.099-4.298,4.707-9.582,4.84-14.886
			c0.155-5.322-1.263-10.608-3.565-15.422c-2.295-4.839-5.4-9.271-8.775-13.453c-1.691-2.092-3.458-4.126-5.26-6.13
			c-1.812-1.992-3.625-4.013-5.294-6.144c-3.358-4.241-6.185-8.958-7.977-14.08c-1.815-5.112-2.614-10.536-2.687-15.934l0.084,0.083
			L32.657,0.168z"/>
	</g>
	<g>
		<path fill="#43647E" d="M12.006,82.962c1.291,2.041,3.039,3.792,5.071,5.033c2.021,1.267,4.297,1.983,6.585,2.3
			c0.587,0.083,1.136,0.139,1.674,0.11c0.539-0.01,1.071-0.092,1.51-0.271c0.439-0.186,0.765-0.435,0.916-0.79
			c0.081-0.179,0.117-0.381,0.124-0.622c0.007-0.169-0.033-0.4-0.121-0.603c-0.372-0.866-1.381-1.598-2.366-2.212
			c-1.025-0.632-2.058-1.208-3.165-1.71c-2.209-0.968-4.443-2.158-6.209-3.889c-1.814-1.68-3.246-3.751-4.375-5.951
			c-2.217-4.455-3.192-9.348-3.959-14.148l1.754-0.014c-0.229,1.925-0.396,3.855-0.473,5.789c-0.058,1.934-0.065,3.867,0.045,5.802
			c0.088,1.936,0.32,3.874,0.778,5.771C10.225,79.461,10.98,81.294,12.006,82.962z M11.866,83.052
			c-1.079-1.66-1.889-3.476-2.605-5.333c-0.685-1.87-1.187-3.814-1.539-5.787c-0.328-1.977-0.48-3.983-0.451-5.983
			c0.008-2.001,0.152-3.998,0.417-5.977l0.876-6.555l0.878,6.54c0.64,4.762,1.474,9.511,3.253,13.921
			c0.892,2.192,2.085,4.294,3.743,6.011c0.822,0.863,1.763,1.604,2.78,2.228c1.016,0.619,2.133,1.066,3.262,1.512
			c1.123,0.445,2.282,0.908,3.373,1.461c1.085,0.571,2.281,1.155,3.055,2.472c0.18,0.34,0.304,0.706,0.333,1.143
			c0.024,0.363-0.026,0.773-0.17,1.158c-0.287,0.792-0.979,1.371-1.654,1.636c-1.356,0.558-2.766,0.443-3.983,0.215
			c-2.498-0.447-4.823-1.613-6.753-3.155C14.75,86.998,13.175,85.096,11.866,83.052z"/>
	</g>
	<g display="none">
		<g display="inline">
			<polygon fill="#43647E" points="8.647,60.071 8.923,61.712 8.705,61.746 8.483,60.096 			"/>
			<polygon fill="#43647E" points="9.224,63.345 9.559,64.975 9.236,65.037 8.955,63.396 			"/>
			<path fill="#43647E" d="M9.931,66.59c0.133,0.539,0.273,1.075,0.418,1.605l-0.422,0.11c-0.131-0.544-0.253-1.087-0.369-1.629
				L9.931,66.59z"/>
			<path fill="#43647E" d="M10.821,69.781c0.17,0.53,0.349,1.053,0.536,1.566l-0.515,0.18c-0.174-0.535-0.337-1.068-0.489-1.6
				L10.821,69.781z"/>
			<path fill="#43647E" d="M11.962,72.877c0.221,0.512,0.451,1.012,0.69,1.498l-0.59,0.282c-0.234-0.518-0.451-1.033-0.653-1.547
				L11.962,72.877z"/>
			<path fill="#43647E" d="M13.43,75.812c0.287,0.48,0.583,0.941,0.886,1.381l-0.631,0.427c-0.312-0.484-0.598-0.966-0.864-1.447
				L13.43,75.812z"/>
			<path fill="#43647E" d="M15.302,78.477c0.366,0.426,0.734,0.827,1.107,1.198l-0.61,0.606c-0.402-0.423-0.775-0.846-1.117-1.274
				L15.302,78.477z"/>
			<path fill="#43647E" d="M17.61,80.739c0.443,0.347,0.886,0.66,1.324,0.943l-0.514,0.788c-0.486-0.331-0.939-0.671-1.361-1.019
				L17.61,80.739z"/>
			<path fill="#43647E" d="M20.333,82.462c0.503,0.243,0.983,0.448,1.498,0.666l-0.409,0.938c-0.5-0.225-1.032-0.47-1.52-0.721
				L20.333,82.462z"/>
			<path fill="#43647E" d="M23.374,83.779c0.503,0.218,1.014,0.453,1.533,0.709l-0.509,0.979c-0.47-0.246-0.96-0.488-1.468-0.723
				L23.374,83.779z"/>
			<path fill="#43647E" d="M26.413,85.292c0.465,0.27,1,0.617,1.447,1.012l-0.792,0.883c-0.381-0.347-0.772-0.622-1.259-0.923
				L26.413,85.292z"/>
			<path fill="#43647E" d="M29.023,87.895l0.065,0.204c0.022,0.095,0.049,0.196,0.063,0.287c0.027,0.186,0.04,0.345,0.031,0.556
				l-0.015,0.216l-0.047,0.289c-0.04,0.176-0.096,0.349-0.169,0.519L27.8,89.436c0.039-0.085,0.07-0.174,0.096-0.269l0.025-0.12
				l0.019-0.199c0.004-0.066,0.002-0.185-0.01-0.273l-0.02-0.12l-0.057-0.194L29.023,87.895z"/>
			<path fill="#43647E" d="M27.407,91.409l-0.394,0.149c-0.163,0.046-0.333,0.097-0.492,0.132c-0.307,0.064-0.612,0.105-0.917,0.131
				l-0.077-1.35c0.247-0.015,0.49-0.038,0.726-0.081l0.312-0.071l0.385-0.134L27.407,91.409z"/>
			<path fill="#43647E" d="M23.8,91.752c-0.538-0.065-1.153-0.173-1.705-0.301l0.347-1.413c0.529,0.138,1.006,0.239,1.569,0.327
				L23.8,91.752z"/>
			<polygon fill="#43647E" points="20.4,90.965 19.621,90.674 18.801,90.318 19.482,88.917 20.179,89.248 20.95,89.563 			"/>
			<polygon fill="#43647E" points="17.243,89.485 16.542,89.039 15.814,88.52 16.824,87.208 17.439,87.672 18.127,88.14 			"/>
			<polygon fill="#43647E" points="14.463,87.389 13.863,86.813 13.25,86.168 14.53,85.026 15.053,85.597 15.642,86.185 			"/>
			<path fill="#43647E" d="M12.138,84.814c-0.318-0.437-0.646-0.916-0.962-1.417l1.438-0.91c0.281,0.433,0.582,0.865,0.922,1.32
				L12.138,84.814z"/>
			<path fill="#43647E" d="M10.319,81.871c-0.24-0.486-0.483-1.002-0.707-1.555l1.524-0.639c0.21,0.466,0.434,0.953,0.693,1.454
				L10.319,81.871z"/>
			<path fill="#43647E" d="M9.035,78.686c-0.161-0.521-0.315-1.067-0.459-1.634l1.451-0.395c0.152,0.501,0.321,1.015,0.511,1.544
				L9.035,78.686z"/>
			<path fill="#43647E" d="M8.209,75.379c-0.1-0.539-0.191-1.095-0.273-1.666l1.338-0.215c0.099,0.522,0.21,1.056,0.337,1.602
				L8.209,75.379z"/>
			<path fill="#43647E" d="M7.742,72.025c-0.048-0.546-0.073-1.106-0.096-1.676l1.157-0.084l0.213,1.628L7.742,72.025z"/>
			<path fill="#43647E" d="M7.621,68.663c0.004-0.551,0.016-1.11,0.037-1.675l0.902,0.001c0.022,0.543,0.053,1.092,0.092,1.647
				L7.621,68.663z"/>
			<polygon fill="#43647E" points="7.751,65.31 7.924,63.647 8.515,63.685 8.523,65.342 			"/>
			<path fill="#43647E" d="M8.147,61.988c0.08-0.548,0.181-1.096,0.284-1.644l0.199,0.024L8.556,62.03L8.147,61.988z"/>
		</g>
	</g>
	<g display="none">
		<path display="inline" fill="#43647E" d="M67.074,71.219c-0.512,3.863-1.462,7.701-3.07,11.286c-1.6,3.582-3.881,6.891-6.771,9.59
			c-2.885,2.707-6.33,4.782-9.981,6.273c-3.657,1.5-7.517,2.438-11.406,3.021l-0.036,0.006h-0.052l-5.845,0.068h-0.044l-0.059-0.008
			c-3.845-0.529-7.681-1.409-11.312-2.915c-3.633-1.479-7.031-3.645-9.839-6.422c-2.788-2.792-5.02-6.127-6.484-9.746
			c-1.496-3.608-2.335-7.434-2.679-11.267l0.164-0.023c0.776,3.755,1.873,7.436,3.525,10.837c1.667,3.385,3.827,6.518,6.585,9.045
			c2.727,2.554,5.943,4.533,9.382,6.025c3.449,1.48,7.123,2.466,10.865,3.067l-0.104-0.008l5.845,0.068l-0.088,0.006
			c3.821-0.495,7.608-1.336,11.196-2.724c3.587-1.377,6.961-3.332,9.83-5.894c2.879-2.549,5.199-5.718,6.87-9.205
			c1.681-3.489,2.729-7.27,3.344-11.108L67.074,71.219z"/>
	</g>
</g>
<circle display="none" fill-rule="evenodd" clip-rule="evenodd" fill="none" stroke="#020202" stroke-miterlimit="10" cx="29.866" cy="50.421" r="70"/>
</svg>
