<?xml version="1.0" encoding="utf-8"?>
<!-- Generator: Adobe Illustrator 15.1.0, SVG Export Plug-In . SVG Version: 6.00 Build 0)  -->
<!DOCTYPE svg PUBLIC "-//W3C//DTD SVG 1.1//EN" "http://www.w3.org/Graphics/SVG/1.1/DTD/svg11.dtd">
<svg version="1.1" id="Layer_1" xmlns="http://www.w3.org/2000/svg" xmlns:xlink="http://www.w3.org/1999/xlink" x="0px" y="0px"
	 width="50px" height="50px" viewBox="0 0 50 50" enable-background="new 0 0 50 50" xml:space="preserve">
<g id="rain">
	<path fill="#727272" d="M1.519,28.902C0.663,18.638,12.042,10.251,25.022,10.251c12.982,0,23.505,8.352,23.505,18.651
		c0,1.074-0.482,2.297-0.482,2.297c-2.675-3.903-3.911-4.791-7.501-4.791c-3.703,0-7.69,1.423-8.252,4.744
		c0,0-2.05-5.479-7.97-4.952c-3.967,0.354-6.731,2.312-7.784,5.216c0,0-3.552-5.023-7.126-5.023c-3.791,0-6.578,1.387-7.367,4.809
		C2.043,31.199,1.565,29.461,1.519,28.902z"/>
	<path fill="#727272" d="M18.737,46.898c1.38-0.104,2.524-0.474,3.231-1.28c0.809-0.907,1.145-2.187,1.145-6.093V25.827h2.962
		v14.844c0,3.163-0.505,5.22-1.953,6.699c-1.313,1.312-3.467,1.851-5.048,1.851L18.737,46.898z"/>
	<path fill="#727272" d="M22.239,10c0-1.381,1.103-2.5,2.464-2.5c1.359,0,2.463,1.119,2.463,2.5"/>
</g>
</svg>
