<?xml version="1.0" encoding="utf-8"?>
<!-- Generator: Adobe Illustrator 15.1.0, SVG Export Plug-In . SVG Version: 6.00 Build 0)  -->
<!DOCTYPE svg PUBLIC "-//W3C//DTD SVG 1.1//EN" "http://www.w3.org/Graphics/SVG/1.1/DTD/svg11.dtd">
<svg version="1.1" id="Layer_1" xmlns="http://www.w3.org/2000/svg" xmlns:xlink="http://www.w3.org/1999/xlink" x="0px" y="0px"
	 width="145.91px" height="159.452px" viewBox="8.676 0.06 145.91 159.452" enable-background="new 8.676 0.06 145.91 159.452"
	 xml:space="preserve">
<g id="snow">
	<g>
		<path fill="none" stroke="#43647E" stroke-width="3.1665" stroke-miterlimit="10" d="M88.369,24.328
			c5.615-1.906,8.237-12.373,15.486-12.796c4.947-0.291,8.702,4.49,7.068,9.419c-1.138,3.442-8.237,8.912-11.113,11.788
			c-4.002,4.017-8.303,7.817-11.441,11.444c0,3.933,0,7.854,0,11.791c2.993,2.381,6.673,4.088,10.105,6.048
			c3.748-1.836,7.218-3.985,10.762-6.048c1.271-5.127,2.86-10.121,4.378-15.832c1.243-4.664,1.881-12.567,4.706-15.469
			c3.637-3.763,10.774-1.948,11.782,3.019c1.373,6.76-4.069,12.808-4.039,18.17c5.27-0.327,10.663-8.517,17.51-8.407
			c4.575,0.077,7.609,3.945,6.396,9.098c-1.363,5.763-13.179,7.845-17.164,11.443c6.116,3.813,20.038,1.565,20.195,10.768
			c0.188,10.897-13.312,5.592-21.551,3.362c-3.64-0.981-11.243-4.33-15.137-4.036c-4.356,0.328-7.708,5.269-11.109,6.066
			c0,3.693,0,7.392,0,11.097c3.086,0.982,6.857,5.887,10.758,6.396c3.497,0.455,9.953-2.625,15.154-4.048
			c7.907-2.164,21.702-7.585,21.882,3.044c0.158,9.932-12.852,6.938-19.858,10.764c3.144,4.225,15.381,5.736,16.824,11.798
			c1.19,5.027-1.843,8.945-6.397,9.079c-6.834,0.179-11.822-7.685-17.509-8.771c1.429,6.568,9.109,24.03-3.018,23.563
			c-6.878-0.254-7.712-10.545-9.432-17.159c-1.541-5.946-2.993-10.925-4.375-16.164c-3.27-2.331-7.258-3.948-10.438-6.388
			c-3.636,1.731-6.66,4.119-10.437,5.727c0.771,3.204-1.005,8.417,0,12.104c0.739,2.721,7.58,8.256,11.113,11.787
			c4.377,4.36,11.841,8.718,11.779,14.473c-0.043,4.211-4.224,7.721-8.761,6.392c-5.989-1.754-8.383-9.233-14.132-12.769
			c-1.073,6.902,1.444,11.275,0,17.831c-1.469,6.697-11.893,6.568-13.47,0.33c-1.432-5.681,1.085-11.507,0-17.84
			c-5.511,1.881-8.226,12.159-15.141,12.784c-5.497,0.507-8.937-4.633-7.074-9.416c1.682-4.301,7.143-7.814,11.113-11.791
			c4.212-4.211,8.081-8.303,11.102-11.441c0-4.039,0-8.08,0-12.122c-3.176-2.167-6.877-3.89-10.094-6.048
			c-3.602,1.997-6.926,4.301-10.767,6.048c-1.154,5.325-2.849,10.387-4.385,16.16c-1.683,6.364-2.162,16.978-9.085,17.496
			c-12.057,0.928-5.342-16.386-3.365-23.217c-5.191,0.26-10.612,8.378-17.166,8.42c-4.768,0.035-7.975-3.861-6.731-9.075
			c1.352-5.699,12.969-7.675,16.822-11.46c-6.159-4.002-19.694-1.564-19.855-10.758c-0.189-11.396,14.451-5.068,21.885-3.036
			c5.64,1.542,10.949,2.433,14.806,4.035c3.605-2.227,7.351-4.314,11.113-6.398c0-3.695,0-7.391,0-11.098
			c-2.943-1.166-6.771-5.981-10.785-6.401c-3.996-0.424-10.211,2.69-15.137,4.039c-7.92,2.157-21.699,7.582-21.885-3.031
			c-0.158-9.642,13.711-7.434,20.198-10.768c-3.259-4.057-15.708-5.658-17.165-11.777c-1.19-4.977,1.709-8.848,6.054-9.098
			c7.116-0.412,12.095,7.652,17.843,8.753c0.053-6.196-5.445-11.559-4.042-18.517c0.972-4.78,8.121-6.809,11.791-3.018
			c2.737,2.82,3.244,9.96,4.698,15.468c0.623,2.331,1.632,5.074,2.375,7.749c0.751,2.783,0.846,6.011,2.009,7.733
			c2.122,3.151,8.121,3.949,10.44,6.398c3.785-1.589,6.898-3.868,10.424-5.708c-0.728-3.11,0.992-8.211,0-11.788
			c-0.875-3.204-8.028-8.355-11.43-11.788c-2.504-2.505-9.973-8.324-11.113-11.791c-1.617-4.861,2.582-10.794,8.408-9.069
			c5.99,1.743,8.398,9.227,14.135,12.79c0.621-8.993-2.582-21.705,5.39-22.902C90.806,0.22,88.172,14.154,88.369,24.328z
			 M81.297,68.418c-3.191,0.16-6.092,4.892-9.76,5.393c0,3.922,0,7.854,0,11.775c3.231,1.936,6.687,3.643,9.76,5.721
			c3.789-1.583,6.914-3.865,10.437-5.721c0-3.921,0-7.854,0-11.775C87.497,73.069,85.109,68.232,81.297,68.418z"/>
	</g>
</g>
</svg>
