<?xml version="1.0" encoding="utf-8"?>
<!-- Generator: Adobe Illustrator 15.1.0, SVG Export Plug-In . SVG Version: 6.00 Build 0)  -->
<!DOCTYPE svg PUBLIC "-//W3C//DTD SVG 1.1//EN" "http://www.w3.org/Graphics/SVG/1.1/DTD/svg11.dtd">
<svg version="1.1" id="Layer_1" xmlns="http://www.w3.org/2000/svg" xmlns:xlink="http://www.w3.org/1999/xlink" x="0px" y="0px"
	 width="50px" height="50px" viewBox="0 0 50 50" enable-background="new 0 0 50 50" xml:space="preserve">
<g id="snow">
	<g>
		<path fill="#727272" d="M27.125,7.322c1.773-0.602,2.602-3.907,4.891-4.041c1.562-0.092,2.748,1.418,2.232,2.975
			c-0.359,1.087-2.602,2.815-3.51,3.723c-1.264,1.268-2.622,2.468-3.613,3.614c0,1.242,0,2.48,0,3.723
			c0.945,0.753,2.107,1.292,3.191,1.911c1.184-0.581,2.279-1.259,3.398-1.911c0.401-1.619,0.903-3.196,1.383-4.999
			c0.393-1.473,0.594-3.969,1.486-4.886c1.148-1.188,3.402-0.614,3.721,0.954c0.434,2.134-1.285,4.045-1.275,5.738
			c1.664-0.104,3.367-2.689,5.529-2.655c1.445,0.024,2.403,1.246,2.021,2.873c-0.431,1.82-4.162,2.477-5.421,3.614
			c1.932,1.204,6.328,0.494,6.378,3.4c0.06,3.442-4.204,1.766-6.806,1.062c-1.149-0.31-3.551-1.367-4.78-1.275
			c-1.376,0.104-2.435,1.664-3.509,1.916c0,1.166,0,2.334,0,3.504c0.975,0.311,2.166,1.859,3.397,2.021
			c1.104,0.144,3.144-0.829,4.786-1.278c2.497-0.684,6.854-2.396,6.91,0.961c0.05,3.137-4.059,2.191-6.271,3.399
			c0.993,1.334,4.857,1.812,5.313,3.726c0.376,1.588-0.582,2.825-2.021,2.867c-2.158,0.057-3.733-2.427-5.529-2.77
			c0.451,2.074,2.877,7.589-0.953,7.441c-2.172-0.08-2.436-3.33-2.979-5.419c-0.486-1.878-0.945-3.45-1.382-5.104
			c-1.032-0.736-2.292-1.247-3.296-2.018c-1.148,0.547-2.104,1.301-3.296,1.809c0.243,1.012-0.317,2.658,0,3.822
			c0.233,0.859,2.394,2.607,3.51,3.723c1.382,1.377,3.739,2.753,3.72,4.57c-0.014,1.33-1.334,2.438-2.767,2.019
			c-1.892-0.554-2.647-2.916-4.463-4.032c-0.339,2.18,0.456,3.561,0,5.631c-0.464,2.115-3.756,2.074-4.254,0.104
			c-0.452-1.794,0.343-3.634,0-5.634c-1.74,0.594-2.597,3.84-4.781,4.037c-1.736,0.16-2.823-1.463-2.234-2.974
			c0.531-1.358,2.255-2.468,3.51-3.724c1.33-1.33,2.551-2.622,3.505-3.613c0-1.275,0-2.552,0-3.828
			c-1.003-0.685-2.171-1.229-3.187-1.91c-1.138,0.631-2.188,1.358-3.401,1.91c-0.364,1.682-0.899,3.28-1.385,5.104
			c-0.531,2.01-0.682,5.361-2.869,5.525c-3.807,0.293-1.686-5.175-1.062-7.332c-1.64,0.082-3.351,2.646-5.421,2.659
			c-1.506,0.011-2.519-1.22-2.126-2.866c0.427-1.8,4.095-2.424,5.312-3.619c-1.945-1.264-6.219-0.494-6.27-3.397
			C2.4,24.773,7.022,26.771,9.37,27.413c1.782,0.487,3.458,0.769,4.676,1.274c1.138-0.703,2.321-1.362,3.509-2.021
			c0-1.167,0-2.334,0-3.505c-0.929-0.368-2.138-1.888-3.405-2.021c-1.263-0.134-3.225,0.849-4.781,1.275
			c-2.501,0.682-6.852,2.394-6.911-0.957c-0.05-3.045,4.33-2.347,6.379-3.401c-1.029-1.28-4.961-1.786-5.421-3.719
			c-0.376-1.572,0.54-2.794,1.912-2.873c2.247-0.13,3.819,2.417,5.635,2.765c0.017-1.958-1.72-3.651-1.276-5.848
			c0.306-1.51,2.564-2.15,3.723-0.954c0.865,0.892,1.024,3.146,1.484,4.886c0.197,0.736,0.515,1.602,0.749,2.446
			c0.238,0.88,0.268,1.899,0.636,2.443c0.669,0.995,2.564,1.247,3.296,2.021c1.196-0.502,2.179-1.222,3.292-1.803
			c-0.23-0.983,0.314-2.593,0-3.723c-0.276-1.012-2.535-2.639-3.609-3.723c-0.791-0.791-3.15-2.628-3.51-3.723
			c-0.51-1.535,0.816-3.409,2.656-2.865c1.891,0.552,2.652,2.915,4.463,4.04c0.197-2.84-0.815-6.855,1.703-7.232
			C27.895-0.291,27.062,4.109,27.125,7.322z M24.892,21.246c-1.008,0.051-1.924,1.545-3.083,1.703c0,1.238,0,2.48,0,3.719
			c1.021,0.611,2.112,1.15,3.083,1.807c1.196-0.5,2.183-1.221,3.295-1.807c0-1.238,0-2.48,0-3.719
			C26.85,22.715,26.096,21.188,24.892,21.246z"/>
	</g>
</g>
</svg>
