<svg xmlns="http://www.w3.org/2000/svg" version="1.1" id="Layer_1" x="0px" y="0px" width="104.595px" height="70.588px" viewBox="7.2 62.465 104.595 70.588" enable-background="new 7.2 62.465 104.595 70.588" xml:space="preserve">
  <g>
    <path fill="#43647E" d="M88.865 80.955c-6.131-11.286-18.126-18.49-31.039-18.49 -17.937 0-32.479 12.547-34.843 29.581C13.961 94.075 7.2 102.145 7.2 111.771c0 11.152 9.073 20.225 20.224 20.225 4.693 0 9.056-1.523 12.566-4.34 5.658 3.626 11.52 5.396 17.836 5.396 5.974 0 10.033-0.951 14.7-3.533 3.974 2.312 8.463 3.533 13.118 3.533 14.419 0 26.15-11.731 26.15-26.15C111.794 93.571 101.769 82.547 88.865 80.955z"/>
  </g>
</svg>
