<?xml version="1.0" encoding="utf-8"?>
<!-- Generator: Adobe Illustrator 15.1.0, SVG Export Plug-In . SVG Version: 6.00 Build 0)  -->
<!DOCTYPE svg PUBLIC "-//W3C//DTD SVG 1.1//EN" "http://www.w3.org/Graphics/SVG/1.1/DTD/svg11.dtd">
<svg version="1.1" id="Layer_2" xmlns="http://www.w3.org/2000/svg" xmlns:xlink="http://www.w3.org/1999/xlink" x="0px" y="0px"
	 width="142.525px" height="23.422px" viewBox="0 0 142.525 23.422" enable-background="new 0 0 142.525 23.422"
	 xml:space="preserve">
<path id="S_1_" fill="#EDEDED" d="M10.576,6.661c-0.358-1.074-0.79-1.853-1.294-2.336C8.778,3.842,8.145,3.599,7.387,3.599
	c-0.778,0-1.373,0.221-1.784,0.663c-0.41,0.441-0.615,1.053-0.615,1.831c0,0.568,0.242,1.068,0.727,1.499
	c0.484,0.431,1.084,0.848,1.8,1.248c0.715,0.399,1.494,0.826,2.336,1.278c0.842,0.453,1.621,0.984,2.335,1.595
	c0.716,0.61,1.315,1.336,1.8,2.178s0.727,1.852,0.727,3.031c0,0.988-0.164,1.883-0.49,2.682c-0.326,0.801-0.8,1.484-1.42,2.053
	c-0.621,0.567-1.384,1.006-2.289,1.311c-0.905,0.304-1.926,0.457-3.062,0.457c-1.79,0-3.331-0.504-4.625-1.514
	C1.531,20.897,0.589,19.267,0,17.015L4.293,16.1c0.126,0.693,0.311,1.277,0.552,1.752c0.242,0.475,0.521,0.857,0.836,1.152
	c0.316,0.295,0.647,0.504,0.995,0.631c0.348,0.125,0.679,0.189,0.995,0.189c0.757,0,1.394-0.236,1.91-0.709
	c0.516-0.475,0.772-1.142,0.772-2.005c0-0.715-0.243-1.331-0.727-1.847c-0.484-0.516-1.084-0.995-1.799-1.436
	c-0.717-0.443-1.495-0.879-2.336-1.312c-0.843-0.431-1.621-0.926-2.336-1.483c-0.716-0.558-1.315-1.205-1.8-1.941
	C0.873,8.355,0.631,7.45,0.631,6.376c0-1.978,0.574-3.535,1.721-4.672C3.499,0.568,5.208,0,7.481,0c0.969,0,1.841,0.137,2.62,0.411
	c0.778,0.273,1.463,0.657,2.052,1.152c0.59,0.494,1.078,1.079,1.468,1.752c0.39,0.674,0.679,1.41,0.868,2.209L10.576,6.661z"/>
<path id="O" fill="#EDEDED" d="M19.667,7.639c0-1.409,0.179-2.599,0.537-3.567c0.356-0.968,0.853-1.752,1.482-2.353
	c0.631-0.599,1.39-1.036,2.273-1.309S25.812,0,26.864,0c1.053,0,2.021,0.137,2.904,0.411c0.884,0.273,1.643,0.71,2.273,1.309
	c0.631,0.601,1.125,1.385,1.482,2.353c0.357,0.968,0.536,2.158,0.536,3.567v8.146c0,1.41-0.179,2.598-0.536,3.566
	s-0.852,1.752-1.482,2.352c-0.631,0.601-1.39,1.037-2.273,1.311c-0.883,0.273-1.852,0.41-2.904,0.41c-1.052,0-2.02-0.137-2.902-0.41
	c-0.885-0.273-1.643-0.71-2.273-1.311c-0.631-0.6-1.126-1.383-1.482-2.352c-0.358-0.969-0.537-2.156-0.537-3.566L19.667,7.639
	L19.667,7.639z M24.023,16.353c0,1.263,0.252,2.114,0.759,2.556c0.504,0.442,1.199,0.664,2.082,0.664
	c0.885,0,1.579-0.222,2.083-0.664c0.507-0.441,0.76-1.293,0.76-2.556V7.071c0-1.263-0.253-2.115-0.76-2.557
	c-0.505-0.442-1.198-0.663-2.083-0.663c-0.883,0-1.578,0.221-2.082,0.663c-0.506,0.442-0.759,1.294-0.759,2.557V16.353z"/>
<path id="L" fill="#EDEDED" d="M39.144,23.107V0.315H43.5v18.941h7.009v3.851H39.144z"/>
<path id="E" fill="#EDEDED" d="M54.705,23.107V0.315h11.932v3.851h-7.575v5.24h5.776v3.852h-5.776v5.998h7.893v3.851H54.705z"/>
<path id="C" fill="#EDEDED" d="M76.015,16.353c0,1.263,0.252,2.114,0.757,2.556c0.505,0.442,1.2,0.664,2.084,0.664
	c0.886,0,1.578-0.222,2.083-0.664c0.505-0.441,0.758-1.293,0.758-2.556v-1.517h4.355v0.947c0,1.411-0.179,2.6-0.536,3.567
	c-0.357,0.969-0.853,1.752-1.483,2.353c-0.631,0.6-1.39,1.037-2.272,1.31c-0.885,0.272-1.853,0.411-2.905,0.411
	c-1.052,0-2.021-0.137-2.903-0.411c-0.886-0.272-1.643-0.71-2.273-1.31c-0.632-0.601-1.125-1.384-1.484-2.353
	c-0.357-0.968-0.535-2.156-0.535-3.567V7.639c0-1.409,0.178-2.599,0.535-3.567c0.358-0.968,0.853-1.752,1.484-2.353
	c0.632-0.599,1.388-1.036,2.273-1.309C76.835,0.137,77.804,0,78.856,0c1.053,0,2.021,0.137,2.905,0.411
	c0.883,0.273,1.642,0.71,2.272,1.309c0.631,0.601,1.125,1.385,1.483,2.353c0.357,0.968,0.536,2.158,0.536,3.567v0.063h-4.354V7.071
	c0-1.263-0.254-2.115-0.759-2.557c-0.505-0.442-1.197-0.663-2.083-0.663c-0.884,0-1.579,0.221-2.084,0.663
	c-0.505,0.442-0.757,1.294-0.757,2.557L76.015,16.353L76.015,16.353z"/>
<path id="A" fill="#EDEDED" d="M89.589,23.107l5.649-22.792h5.588l5.493,22.792h-4.167l-1.105-4.798h-6.029l-1.229,4.798H89.589z
	 M95.807,14.458h4.326L98.018,5.24h-0.062L95.807,14.458z"/>
<path id="S" fill="#EDEDED" d="M119.861,6.661c-0.355-1.074-0.787-1.853-1.294-2.336c-0.505-0.484-1.137-0.726-1.894-0.726
	c-0.779,0-1.373,0.221-1.783,0.663c-0.41,0.441-0.614,1.053-0.614,1.831c0,0.568,0.239,1.068,0.726,1.499
	c0.483,0.431,1.083,0.848,1.8,1.248c0.715,0.399,1.494,0.826,2.335,1.278c0.842,0.453,1.621,0.984,2.337,1.595
	c0.715,0.61,1.315,1.336,1.8,2.178c0.483,0.842,0.727,1.852,0.727,3.031c0,0.988-0.164,1.883-0.489,2.682
	c-0.326,0.801-0.801,1.484-1.42,2.053c-0.623,0.567-1.384,1.006-2.291,1.311c-0.904,0.304-1.923,0.457-3.062,0.457
	c-1.788,0-3.329-0.504-4.623-1.514c-1.295-1.012-2.236-2.642-2.826-4.895l4.294-0.915c0.126,0.694,0.311,1.278,0.552,1.752
	c0.242,0.474,0.521,0.856,0.837,1.151c0.316,0.295,0.647,0.506,0.995,0.631c0.345,0.127,0.677,0.191,0.994,0.191
	c0.757,0,1.393-0.238,1.909-0.711c0.516-0.474,0.771-1.141,0.771-2.004c0-0.715-0.241-1.33-0.726-1.847
	c-0.483-0.517-1.083-0.995-1.8-1.437c-0.717-0.443-1.493-0.879-2.335-1.311c-0.844-0.431-1.622-0.926-2.337-1.483
	c-0.717-0.558-1.315-1.205-1.8-1.941c-0.483-0.736-0.726-1.642-0.726-2.715c0-1.978,0.573-3.535,1.72-4.672
	C112.786,0.568,114.497,0,116.769,0c0.968,0,1.841,0.137,2.621,0.411c0.777,0.273,1.461,0.657,2.051,1.152
	c0.591,0.494,1.078,1.079,1.469,1.752c0.39,0.674,0.68,1.41,0.868,2.209L119.861,6.661z"/>
<path id="T" fill="#EDEDED" d="M142.526,0.315v3.851h-5.082v18.941h-4.354V4.167h-5.083V0.315H142.526z"/>
</svg>
