<?xml version="1.0" encoding="utf-8"?>
<!-- Generator: Adobe Illustrator 15.1.0, SVG Export Plug-In . SVG Version: 6.00 Build 0)  -->
<!DOCTYPE svg PUBLIC "-//W3C//DTD SVG 1.1//EN" "http://www.w3.org/Graphics/SVG/1.1/DTD/svg11.dtd">
<svg version="1.1" id="Layer_1" xmlns="http://www.w3.org/2000/svg" xmlns:xlink="http://www.w3.org/1999/xlink" x="0px" y="0px"
	 width="151px" height="151px" viewBox="-0.341 -0.307 151 151" enable-background="new -0.341 -0.307 151 151"
	 xml:space="preserve">
<g id="frame">
	<circle fill="none" stroke="#000000" stroke-width="2" stroke-miterlimit="10" cx="75.159" cy="75.193" r="74.5"/>
</g>
<g id="boot">
	<g>
		<path fill="none" stroke="#141414" stroke-width="0.7333" stroke-miterlimit="10" d="M80.182,73.941
			c-0.459,0,14.023,24.198,28.047,28.415c0,0,10.541,3.396,9.076,13.291l1.648,0.275c0,0,0.557,3.1-0.735,4.311
			c-4.854,4.553-14.808,5.729-24.793,4.947c-24.67-1.926-31.913-4.045-40.467-20.807C43.884,86.59,37.926,87.416,37.65,87.416
			s-1.283-0.459-1.283-0.459l-6.324-5.684c0,0-0.184-0.457-0.917-2.479c-0.733-2.018-2.383-6.416,1.375-18.148
			c0,0,3.392-9.075,5.408-17.141l-1.101-1.191c0,0-0.916-0.917-0.642-2.292c0.275-1.375,0.092-0.642,0.092-0.642"/>
		<path fill="none" stroke="#141414" stroke-width="0.7333" stroke-miterlimit="10" d="M65.79,23.619c0,0,0.092-4.033,4.675-3.3
			s4.125,2.2,4.216,2.475c0.092,0.275,0,27.223,0,27.223h0.733c0,0-0.183,14.987,1.834,14.987"/>
		<path fill="none" stroke="#141414" stroke-width="0.7333" stroke-miterlimit="10" d="M65.79,23.619l-4.857-0.091
			c0,0-2.018-4.125-7.242-4.308c-5.225-0.184-11.267-0.55-13.741,0.275c-2.475,0.825-7.432,0.367-7.981,2.383
			c-0.549,2.016,1.008,6.324,1.008,6.324s-0.454,1.088,4.043,2.704"/>
		
			<path fill="none" stroke="#141414" stroke-width="0.7333" stroke-linecap="round" stroke-linejoin="round" stroke-miterlimit="10" d="
			M68.678,20.778c0,0,4.72,0.642,4.537,1.742c-0.184,1.1-11.824,2.933-18.424,1.741c0,0-1.864-0.876-3.697,0.682h-1.833
			c0,0,1.314,2.618-6.02,1.335c0,0-4.216,0-7.058-3.391c-0.843-1.006-3.108-1.488-4.216-1.008"/>
		<path fill="none" stroke="#141414" stroke-width="0.7333" stroke-linejoin="round" stroke-miterlimit="10" d="M44.342,31.594
			c8.661,0.43,8.511,0.237,9.991,0c0,0,0.426,8.524,0.496,9.136c0,0-8.013,1.589-10.487-0.061"/>
		<path fill="none" stroke="#141414" stroke-width="0.7333" stroke-miterlimit="10" d="M37.284,31.136c0,0-6.783-1.375-8.25-1.192
			c0,0-2.466,1.404-2.75,3.208c-0.1,0.632,4.125,4.858,4.125,4.858l7.315,1.833"/>
		<path fill="none" stroke="#141414" stroke-width="1.4666" stroke-miterlimit="10" d="M44.342,41.401c0,0-2.476-8.066,0.274-10.999
			"/>
		<path fill="none" stroke="#141414" stroke-width="0.7333" stroke-miterlimit="10" d="M44.342,30.402c0,0-0.122-0.082-0.334-0.184
			c-0.475-0.229-1.401-0.557-2.416-0.292c0,0-2.566,4.325,0.55,11.474h2.2"/>
		<path fill="none" stroke="#141414" stroke-width="0.7333" stroke-linejoin="round" stroke-miterlimit="10" d="M39.949,30.402
			l-2.225-0.475c0,0-1.726,2.88,0.109,10.375c0.27,1.1,2.115,0.428,2.115,0.428"/>
		<path fill="none" stroke="#141414" stroke-width="1.4666" stroke-miterlimit="10" d="M40.217,40.892
			c-2.842-8.799-0.55-10.489-0.55-10.489"/>
		<path fill="none" stroke="#141414" stroke-width="0.7333" stroke-miterlimit="10" d="M36.184,22.886c0,0,2.991,3.827,4.415,8.135"
			/>
		<polyline fill="none" stroke="#141414" stroke-width="0.7333" stroke-miterlimit="10" points="53.179,24.033 51.876,25.85 
			50.575,31.84 		"/>
		<polyline fill="none" stroke="#141414" stroke-width="0.7333" stroke-miterlimit="10" points="47.228,41.386 45.212,45.435 
			43.731,41.401 		"/>
		
			<line fill="none" stroke="#141414" stroke-width="0.7333" stroke-miterlimit="10" x1="32.976" y1="30.349" x2="32.838" y2="27.8"/>
		<path fill="none" stroke="#141414" stroke-width="0.7333" stroke-miterlimit="10" d="M75.412,50.431c0,0-7.788,0.87-8.979,3.528
			c-1.192,2.658-2.37,8.835-0.995,14.335"/>
		
			<path fill="none" stroke="#141414" stroke-width="0.7333" stroke-linecap="round" stroke-linejoin="round" stroke-miterlimit="10" d="
			M80.271,64.317c0,0,1.199,0.625,3.146,6.712c0.14,0.436,0.294,1.434,0.044,1.509c-2.914,0.885-21.406,6.496-23.263,7.087"/>
		<path fill="none" stroke="#141414" stroke-width="0.3666" stroke-miterlimit="10" d="M56.906,70.4c0,0,17.592-4.25,23.365-6.083"
			/>
		<path fill="none" stroke="#141414" stroke-width="0.7333" stroke-linecap="round" stroke-miterlimit="10" d="M37.559,80.998
			c0,0,2.567,3.941,8.892,1.926l6.783-1.834"/>
		<path fill="none" stroke="#141414" stroke-width="0.3666" stroke-miterlimit="10" d="M50.3,71.97c0,0-8.342,2.062-9.441,3.53
			c0,0-3.208,1.648-3.3,5.498"/>
		<path fill="#141414" d="M60.279,80.221c-0.666-1.812-1.499-3.604-2.071-5.432c-0.286-0.913-0.498-1.76-0.808-2.638
			c-0.151-0.44-0.294-0.882-0.416-1.318c-0.2-0.772-0.011-0.951,0.19-0.925l-0.047-0.186c-0.301,0.055-0.677-0.017-0.775,0.231
			c-0.088,0.265,2.326,9.311,3.389,10.404C60.13,80.758,60.279,80.221,60.279,80.221z"/>
		<path fill="#141414" d="M53.921,82.477c0.004,0,2.108-0.062,2.723-0.764c0.854-0.094,2.929-0.395,3.408-1.162l-0.622-0.389
			c-0.217,0.348-1.738,0.715-3.024,0.838c-0.125,0.012-0.236,0.088-0.293,0.201c-0.145,0.289-1.237,0.533-2.238,0.604l-2.746-9.874
			c0.027-0.359,0.146-0.609,0.365-0.763c0.476-0.335,1.34-0.176,1.631-0.085c0.16,0.047,0.329-0.015,0.418-0.153
			c0.396-0.621,2.004-0.957,2.925-1.023l0.117-0.126c-0.263,0.02-2.475-0.144-3.351,0.8c-0.44-0.093-1.471-0.139-2.123,0.319
			c-0.373,0.262-0.741,0.636-0.593,1.15l2.968,10.278C53.529,82.486,53.757,82.477,53.921,82.477z"/>
		<path fill="none" stroke="#141414" stroke-width="0.3666" stroke-miterlimit="10" d="M53.233,70.733c0,0,2.749,7.607,3.207,10.632
			"/>
		<path fill="none" stroke="#141414" stroke-width="0.3666" stroke-miterlimit="10" d="M40.858,75.5c0,0-9.44,3.299-10.815,5.773"/>
		<path fill="none" stroke="#141414" stroke-width="0.8306" stroke-miterlimit="10" d="M44.967,83.305c0,0-6.833,1.438-8.05,3.562"
			/>
		<path fill="none" stroke="#141414" stroke-width="0.7333" stroke-miterlimit="10" d="M29.427,79.625
			c0,0,2.907,18.148,4.466,23.281l9.716,4.674c0,0,6.967-3.023,9.625-2.291"/>
		<path fill="none" stroke="#141414" stroke-width="0.7333" stroke-miterlimit="10" d="M43.837,90.83c0,0-0.045,13.635-0.229,16.75"
			/>
		<path fill="none" stroke="#141414" stroke-width="0.7333" stroke-miterlimit="10" d="M44.696,91.719
			c10.141,9.445,10.586,15.404,15.475,21.025c3.949,4.541,10.062,6.926,15.646,7.912c7.682,1.355,38.718,6.475,42.892-4.957"/>
		<path fill="none" stroke="#141414" stroke-width="0.3666" stroke-miterlimit="10" stroke-dasharray="1.4666,1.4666" d="
			M74.773,58.175c0,0-7.835-0.729-6.759,9.443"/>
		<path fill="none" stroke="#141414" stroke-width="0.3666" stroke-miterlimit="10" stroke-dasharray="1.4666,1.4666" d="
			M75.583,57.298c0,0-9.793-1.323-8.83,10.32"/>
		<path fill="none" stroke="#141414" stroke-width="0.3666" stroke-miterlimit="10" stroke-dasharray="1.4666,1.4666" d="
			M65.79,78.295c0,0-15.857,10.404-21.266,11.961"/>
		<path fill="none" stroke="#141414" stroke-width="0.3666" stroke-miterlimit="10" stroke-dasharray="1.4666,1.4666" d="
			M42.601,88.881c0,0,8.778-6.654,10.174-6.695"/>
		
			<ellipse fill="none" stroke="#141414" stroke-width="0.7333" stroke-miterlimit="10" cx="45.19" cy="78.295" rx="1.123" ry="1.33"/>
		<path fill="none" stroke="#141414" stroke-width="0.7333" stroke-miterlimit="10" d="M33.435,33.977
			c-0.607,0-1.101,0.564-1.101,1.26c0,0.696,0.493,1.26,1.101,1.26"/>
		<path fill="none" stroke="#141414" stroke-width="1.0999" stroke-miterlimit="10" d="M33.435,36.498
			c0.607,0,1.101-0.564,1.101-1.26c0-0.696-0.493-1.26-1.101-1.26"/>
		<path fill="none" stroke="#141414" stroke-width="0.3666" stroke-miterlimit="10" stroke-dasharray="1.4666,1.4666" d="
			M74.315,23.705c0,0-9.497,3.856-22.32,1.762"/>
		<g>
			<g>
				<path fill="none" stroke="#141414" stroke-width="0.3666" stroke-miterlimit="10" d="M54.759,32.205
					c0,0,0.265-0.091,0.716-0.144"/>
				<path fill="none" stroke="#141414" stroke-width="0.3666" stroke-miterlimit="10" stroke-dasharray="1.4299,1.4299" d="
					M56.899,32.076c1.448,0.193,3.419,0.995,5.225,3.539c0,0,0.312,3.212-4.608,4.752"/>
				<path fill="none" stroke="#141414" stroke-width="0.3666" stroke-miterlimit="10" d="M56.82,40.565
					c-0.229,0.058-0.467,0.113-0.716,0.165"/>
			</g>
		</g>
		<path fill="none" stroke="#141414" stroke-width="0.7333" stroke-miterlimit="10" d="M36.688,39.836c0,0-2.153-0.268-1.656,2.723"
			/>
		
			<line fill="none" stroke="#141414" stroke-width="0.7333" stroke-miterlimit="10" x1="40.964" y1="31.136" x2="39.505" y2="30.906"/>
		
			<line fill="none" stroke="#141414" stroke-width="0.7333" stroke-miterlimit="10" x1="41.733" y1="40.393" x2="40.234" y2="40.118"/>
		<path fill="none" stroke="#141414" stroke-width="0.3666" stroke-miterlimit="10" stroke-dasharray="1.4666,1.4666" d="
			M117.305,115.646c0,0-9.441,9.535-42.257,3.574c-5.496-0.998-6.536-1.5-14.877-7.891"/>
		<path fill="none" stroke="#141414" stroke-width="0.3666" stroke-miterlimit="10" d="M50.896,76.461c0,0-1.421-0.434-1.008,1.273"
			/>
		<path fill="none" stroke="#141414" stroke-width="0.3666" stroke-miterlimit="10" d="M49.322,31.594c0,0-1.894-1.161-4.216-0.458"
			/>
		
			<line fill="none" stroke="#141414" stroke-width="0.3666" stroke-miterlimit="10" x1="37.537" y1="30.349" x2="35.606" y2="30.349"/>
		<g>
			<path fill="#141414" d="M30.577,84.811c0.54,0.494,1.174,0.948,1.818,1.354c0.649,0.4,1.333,0.756,2.04,1.057
				c1.415,0.602,2.942,0.959,4.499,1.023c-1.556,0.058-3.132-0.186-4.627-0.684c-0.748-0.25-1.479-0.557-2.182-0.922
				c-0.706-0.367-1.379-0.77-2.031-1.277L30.577,84.811z"/>
		</g>
		<g>
			<path fill="#141414" d="M30.908,86.943c0.811,0.543,1.721,1.013,2.636,1.429c0.921,0.415,1.871,0.771,2.84,1.067
				c1.939,0.598,3.964,0.939,6.01,1.02c-2.045,0.066-4.109-0.139-6.121-0.604c-1.005-0.235-1.999-0.529-2.972-0.893
				c-0.975-0.361-1.922-0.771-2.853-1.3L30.908,86.943z"/>
		</g>
		<g>
			<path fill="#141414" d="M31.417,89.324c0.224,0.316,0.734,0.675,1.176,0.951c0.464,0.287,0.955,0.543,1.456,0.783
				c1.002,0.479,2.044,0.891,3.099,1.267c2.113,0.748,4.28,1.356,6.461,1.903c-2.208-0.432-4.407-0.918-6.574-1.559
				c-1.083-0.316-2.157-0.678-3.21-1.107c-0.526-0.223-1.046-0.457-1.554-0.733c-0.511-0.304-0.997-0.534-1.47-1.106L31.417,89.324z
				"/>
		</g>
		<g>
			<path fill="#141414" d="M31.732,91.432c0.798,0.615,1.77,1.144,2.722,1.611c0.963,0.473,1.957,0.891,2.964,1.275
				c2.018,0.764,4.092,1.392,6.191,1.926c-2.126-0.415-4.237-0.926-6.312-1.58c-1.036-0.33-2.063-0.695-3.071-1.121
				c-1.01-0.436-1.99-0.881-2.948-1.536L31.732,91.432z"/>
		</g>
		<g>
			<path fill="#141414" d="M32.148,93.383c0.599,0.727,1.534,1.365,2.43,1.9c0.917,0.54,1.887,1.005,2.878,1.419
				c1.985,0.827,4.057,1.46,6.152,1.987c-2.123-0.408-4.231-0.924-6.284-1.646c-1.025-0.361-2.036-0.777-3.012-1.279
				c-0.975-0.522-1.916-1.043-2.751-1.943L32.148,93.383z"/>
		</g>
		<g>
			<path fill="#141414" d="M32.608,95.607c-0.017-0.072,0.032,0.094,0.086,0.156c0.056,0.086,0.127,0.176,0.207,0.26
				c0.158,0.174,0.343,0.336,0.538,0.49c0.392,0.31,0.822,0.584,1.264,0.842c0.888,0.515,1.826,0.959,2.777,1.371
				c1.906,0.818,3.873,1.518,5.854,2.162c-2.016-0.527-4.021-1.106-5.989-1.82c-0.983-0.36-1.957-0.754-2.903-1.229
				c-0.472-0.239-0.938-0.499-1.384-0.81c-0.223-0.157-0.441-0.326-0.648-0.525c-0.103-0.1-0.203-0.208-0.297-0.335
				c-0.091-0.151-0.186-0.215-0.237-0.547L32.608,95.607z"/>
		</g>
		<g>
			<path fill="#141414" d="M33,97.754c0.592,0.664,1.452,1.249,2.284,1.752c0.85,0.508,1.742,0.951,2.656,1.352
				c1.828,0.806,3.736,1.438,5.669,1.977c-1.962-0.419-3.91-0.938-5.806-1.632c-0.947-0.353-1.881-0.745-2.786-1.216
				c-0.905-0.482-1.777-0.971-2.577-1.76L33,97.754z"/>
		</g>
		<g>
			<path fill="#141414" d="M33.493,100.305c1.545,1.021,3.186,1.938,4.867,2.752c1.686,0.812,3.43,1.512,5.249,1.988
				c-1.846-0.357-3.646-0.949-5.396-1.652c-1.751-0.711-3.453-1.521-5.111-2.467L33.493,100.305z"/>
		</g>
		
			<path fill="none" stroke="#141414" stroke-width="0.3666" stroke-linecap="round" stroke-linejoin="round" stroke-miterlimit="10" d="
			M44.524,94.229c0,0,0.756-0.428,2.257,0"/>
		
			<path fill="none" stroke="#141414" stroke-width="0.3666" stroke-linecap="round" stroke-linejoin="round" stroke-miterlimit="10" d="
			M44.312,96.244c0,0,2.781-0.279,3.376-0.098"/>
		
			<path fill="none" stroke="#141414" stroke-width="0.3666" stroke-linecap="round" stroke-linejoin="round" stroke-miterlimit="10" d="
			M44.312,98.689c0,0,3.956-0.857,5.239-0.402"/>
		
			<path fill="none" stroke="#141414" stroke-width="0.3666" stroke-linecap="round" stroke-linejoin="round" stroke-miterlimit="10" d="
			M44.067,100.889c0,0,5.494-1.508,6.75-0.479"/>
		
			<path fill="none" stroke="#141414" stroke-width="0.3666" stroke-linecap="round" stroke-linejoin="round" stroke-miterlimit="10" d="
			M44.067,102.83c0,0,6.281-1.885,7.631-0.844"/>
		
			<path fill="none" stroke="#141414" stroke-width="0.3666" stroke-linecap="round" stroke-linejoin="round" stroke-miterlimit="10" d="
			M44.067,105.045c0,0,4.82-1.895,7.883-1.59"/>
	</g>
</g>
</svg>
