<?xml version="1.0" encoding="utf-8"?>
<!-- Generator: Adobe Illustrator 15.1.0, SVG Export Plug-In . SVG Version: 6.00 Build 0)  -->
<!DOCTYPE svg PUBLIC "-//W3C//DTD SVG 1.1//EN" "http://www.w3.org/Graphics/SVG/1.1/DTD/svg11.dtd">
<svg version="1.1" id="Layer_1" xmlns="http://www.w3.org/2000/svg" xmlns:xlink="http://www.w3.org/1999/xlink" x="0px" y="0px"
	 width="151px" height="151px" viewBox="-0.341 -0.307 151 151" enable-background="new -0.341 -0.307 151 151"
	 xml:space="preserve">
<g id="crocs">
	<g>
		<path fill="none" stroke="#333333" stroke-width="0.8012" stroke-miterlimit="10" d="M35.238,69.653c0,0-0.534-0.668-0.535-0.668
			c-11.35-8.413-13.47-22.996-1.202-29.111c9.949-4.959,24.126,6.923,30.312,13.487"/>
		<path fill="none" stroke="#333333" stroke-width="0.4006" stroke-miterlimit="10" d="M60.208,55.498
			c-1.468-2.404-11.617-14.155-28.576-11.083c-2.37,0.429-4.018,1.219-5.099,2.259"/>
		<path fill="none" stroke="#333333" stroke-width="0.8012" stroke-miterlimit="10" d="M30.146,76.785
			c0,0-18.544-19.418-4.523-34.241c0,0,9.881-11.483,28.176,0c0,0,10.519,7.039,11.187,9.977"/>
		<path fill="none" stroke="#333333" stroke-width="0.8012" stroke-miterlimit="10" d="M34.753,69.653
			c2.803,0,5.292,3.401,5.292,6.609c0,3.207-1.523,5.738-4.326,5.738c-2.802,0-5.823-2.531-5.823-5.738"/>
		
			<ellipse fill="none" stroke="#333333" stroke-width="0.8012" stroke-miterlimit="10" cx="34.531" cy="76.463" rx="3.005" ry="3.604"/>
		<path fill="none" stroke="#333333" stroke-width="0.8012" stroke-miterlimit="10" d="M53.476,58.994c0,0-10.529-2.538-19.24-5.366
			c-5.141-1.669-7.183-0.912-9.033-1.057"/>
		<path fill="none" stroke="#333333" stroke-width="0.8012" stroke-miterlimit="10" d="M20.425,54c0,0-4.611,1.498-6.028,5.237
			c-1.253,3.306-6.543,17.025,16.158,20.031"/>
		<path fill="none" stroke="#333333" stroke-width="1.2018" stroke-linecap="round" stroke-miterlimit="10" d="M136.457,93.287
			c-5.743,7.211-31.381,13.146-31.381,13.146c-7.078,1.198-31.386,0.688-42.598-9.677c-11.217-10.362-24.635-15.13-24.635-15.13"/>
		<path fill="none" stroke="#333333" stroke-width="0.8012" stroke-miterlimit="10" d="M136.457,92.33c0,0,4.406,6.166,0.936,10.705
			c0,0-9.216,15.225-35.787,14.689l-3.465-3.58l-0.775,0.104c0,0,0.232,2.563-2.838,3.483c-3.068,0.922-15.09,2.789-17.894-4.953
			c0,0,0.134-2.271-3.339,0.937c0,0-7.879,0.668-12.152-6.01c0,0-0.534-2.707-3.605-1.892c0,0-8.546-1.85-10.549-5.59
			c0,0-2.004,0.533-8.547-1.201c-6.543-1.731-6.142-2.271-6.676-5.207c0,0-3.605,2.925-7.611,0.729c0,0-8.546-2.86-7.344-8.205
			c0-1.065-1.597,3.205-4.938-1.604c0,0-3.882-8.944,2.524-25.503"/>
		<g>
			<path fill="#333333" d="M13.453,79.801c0.88,0.086,1.535,0.43,2.113,0.924c0.562,0.496,0.927,1.144,1.14,1.783
				c0.409,1.307,0.31,2.605,0.105,3.836c-0.053-1.244-0.259-2.512-0.838-3.514c-0.292-0.492-0.675-0.895-1.121-1.139
				c-0.421-0.244-0.994-0.353-1.361-0.289L13.453,79.801z"/>
		</g>
		<path fill="#333333" d="M26.603,87.578c0.539-0.65,1.042-0.814,1.539-0.758c0.48,0.062,0.957,0.229,1.354,0.504
			c0.811,0.545,2.555,3.76,2.529,5.963c-0.006,0.549-0.744,0.363-0.793,0.9c-0.118-1.533-0.344-3.105-0.998-4.41
			c-0.325-0.644-0.789-1.187-1.335-1.41c-0.27-0.119-0.557-0.164-0.845-0.148c-0.272,0.01-0.616,0.104-0.795,0.203L26.603,87.578z"
			/>
		<path fill="#333333" d="M41.138,90.783c0.326-0.451,0.551-1.178,2.059-0.443c0.577,0.205,1.092,0.555,1.493,0.977
			c0.809,0.857,1.183,1.914,1.399,2.933c0.404,2.051,0.241,4.082-0.027,6.062c0.007-1.992-0.12-4.024-0.745-5.852
			c-0.315-0.896-0.786-1.74-1.447-2.26c-0.327-0.264-0.693-0.438-1.075-0.518c-0.361-0.082-0.826-0.062-1.088,0.028L41.138,90.783z"
			/>
		<path fill="#333333" d="M56.412,100.102c0.756,0.176,1.246,0.521,1.707,0.957c0.44,0.438,0.755,0.957,0.955,1.492
			c0.398,1.076,0.406,2.172,0.288,3.211c-0.143-1.033-0.443-2.059-1-2.842c-0.274-0.391-0.616-0.707-0.99-0.922
			c-0.352-0.209-0.835-0.332-1.11-0.301L56.412,100.102z"/>
		<path fill="#333333" d="M71.961,109c0.021-0.021,0.037-0.035,0.055-0.043c0.709-0.342,3.71,2.127,4.14,2.73
			c0.121,0.172-0.528,0.17-0.438,0.358c-0.579-0.601-1.328-0.928-2.075-1.188c-0.379-0.129-0.764-0.229-1.15-0.316
			c-0.384-0.084-0.89-0.168-1.253-0.205C71.136,110.328,71.724,109.246,71.961,109z"/>
		<path fill="none" stroke="#333333" stroke-width="1.2018" stroke-miterlimit="10" d="M107.775,105.762
			c0.639-3.199,0.736-3.859,3.631-4.613c0.449-0.114,3.912-1.268,6.673-1.352c2.146-0.064,3.782,0.764,3.782,1.631"/>
		<path fill="none" stroke="#333333" stroke-width="1.2018" stroke-miterlimit="10" d="M83.577,105.762c0,0-0.793-1.123,1.335-1.861
			c2.96-1.026,9.581,0.181,11.885,1.39c0.87,0.457,0.689,0.914,0.48,1.25"/>
		<path fill="none" stroke="#333333" stroke-width="1.2018" stroke-miterlimit="10" d="M63.649,97.77c0,0-0.236-2.346,2.301-1.543
			c2.538,0.801,8.013,4.672,8.013,4.672s0.236,0.478-0.431,2.156"/>
		<path fill="none" stroke="#333333" stroke-width="0.8012" stroke-miterlimit="10" d="M38.433,54.928c0,0-9.523-1.411-13.128-0.754
			"/>
		<g>
			<path fill="#333333" d="M20.335,55.498c-1.624,1.151-3.122,2.551-3.766,4.209c-0.652,1.654-0.072,3.402,1.055,4.857
				c1.098,1.486,2.593,2.751,4.118,3.966c1.544,1.207,3.174,2.339,4.792,3.548c-1.924-0.617-3.764-1.464-5.503-2.52
				c-1.735-1.057-3.387-2.333-4.693-4.041c-0.622-0.868-1.169-1.857-1.388-2.988c-0.213-1.122-0.057-2.354,0.485-3.337
				c0.515-1,1.301-1.767,2.142-2.373C18.433,56.229,19.355,55.763,20.335,55.498z"/>
		</g>
		<path fill="none" stroke="#333333" stroke-width="0.8012" stroke-miterlimit="10" d="M35.238,69.653
			c0,0,39.926-23.903,43.933-23.369c4.005,0.534,2.806-0.789,6.677,6.082c0,0,12.021,21.292,40.729,28.235
			c0,0,10.682,3.07,9.882,12.687"/>
		
			<ellipse fill="none" stroke="#333333" stroke-width="0.8012" stroke-miterlimit="10" cx="83.109" cy="67.95" rx="1.937" ry="1.831"/>
		
			<ellipse fill="none" stroke="#333333" stroke-width="0.8012" stroke-miterlimit="10" cx="69.156" cy="79.801" rx="1.736" ry="1.604"/>
		
			<ellipse fill="none" stroke="#333333" stroke-width="0.8012" stroke-miterlimit="10" cx="85.708" cy="78.398" rx="2.276" ry="1.402"/>
		
			<ellipse fill="none" stroke="#333333" stroke-width="0.8012" stroke-miterlimit="10" cx="81.072" cy="86.344" rx="2.035" ry="1.604"/>
		
			<ellipse fill="none" stroke="#333333" stroke-width="0.8012" stroke-miterlimit="10" cx="94.459" cy="88.465" rx="2.07" ry="1.352"/>
		<path fill="none" stroke="#333333" stroke-width="0.8012" stroke-miterlimit="10" d="M99.468,79.801
			c0,0.885-0.927,1.135-2.069,1.135c-1.144,0-2.067-0.25-2.067-1.135s0.927-1.602,2.067-1.602
			C98.541,78.199,99.468,78.916,99.468,79.801z"/>
		
			<ellipse fill="none" stroke="#333333" stroke-width="0.6324" stroke-miterlimit="10" cx="95.501" cy="70.58" rx="1.774" ry="0.953"/>
		
			<ellipse fill="none" stroke="#333333" stroke-width="0.8012" stroke-miterlimit="10" cx="108.014" cy="79.5" rx="2.271" ry="1.102"/>
		
			<ellipse fill="none" stroke="#333333" stroke-width="0.8012" stroke-miterlimit="10" cx="119.898" cy="82.736" rx="1.469" ry="0.736"/>
		
			<ellipse fill="none" stroke="#333333" stroke-width="0.8012" stroke-miterlimit="10" cx="108.415" cy="86.395" rx="1.87" ry="0.719"/>
		<path fill="none" stroke="#333333" stroke-width="0.6324" stroke-miterlimit="10" d="M87.207,54.464
			c-7.129,0.989-35.603,12.828-37.948,18.927c-1.336,3.472,23.769,30.845,54.082,25.505c0,0,24.437-4.205,31.382-11.383"/>
		<path fill="none" stroke="#333333" stroke-width="0.8012" stroke-miterlimit="10" d="M13.722,80.217c0,0-0.915,4.625-0.247,6.127"
			/>
		<path fill="none" stroke="#333333" stroke-width="0.8012" stroke-miterlimit="10" d="M26.958,87.68c0,0-0.801,5.066,0,7.678"/>
		<path fill="none" stroke="#333333" stroke-width="0.8012" stroke-miterlimit="10" d="M41.514,90.934c0,0-2.604,5.104,2.995,9.373"
			/>
		<path fill="none" stroke="#333333" stroke-width="0.8012" stroke-miterlimit="10" d="M56.7,100.182c0,0-1.611,3.379-0.409,5.326"
			/>
		<path fill="none" stroke="#333333" stroke-width="0.8012" stroke-miterlimit="10" d="M71.825,109.979
			c-0.457,0.201-1.156,3.74,0.167,3.74"/>
		<path fill="none" stroke="#333333" stroke-width="1.2018" stroke-miterlimit="10" d="M48.274,86.344c0,0,0.184-2.404,1.919-1.604
			c1.736,0.803,6.143,4.865,6.143,4.865s1.637,1.098,0.819,2.725"/>
		<path fill="#333333" d="M93.786,113.09c0.004,0,4.514,0.629,4.514,0.629s-0.155,0.428-0.161,0.426
			c-3.412-0.473-4.07-0.022-4.408-0.092C93.256,113.959,93.422,113.078,93.786,113.09z"/>
		<g>
			<path fill="#333333" d="M23.747,45.497c-0.767,0.798-1.264,2.002-1.487,3.177c-0.231,1.197-0.214,2.446-0.041,3.672
				c0.356,2.462,1.305,4.827,2.467,7.052c2.365,4.456,5.591,8.418,9.016,12.135c-3.521-3.626-6.857-7.502-9.368-11.943
				c-1.234-2.221-2.269-4.599-2.708-7.151c-0.214-1.272-0.27-2.589-0.056-3.888c0.23-1.297,0.661-2.569,1.627-3.636L23.747,45.497z"
				/>
		</g>
	</g>
</g>
<g id="frame">
	<circle fill="none" stroke="#000000" stroke-width="2" stroke-miterlimit="10" cx="75.159" cy="75.193" r="74.5"/>
</g>
</svg>
