<?xml version="1.0" encoding="utf-8"?>
<!-- Generator: Adobe Illustrator 15.1.0, SVG Export Plug-In . SVG Version: 6.00 Build 0)  -->
<!DOCTYPE svg PUBLIC "-//W3C//DTD SVG 1.1//EN" "http://www.w3.org/Graphics/SVG/1.1/DTD/svg11.dtd">
<svg version="1.1" id="Layer_1" xmlns="http://www.w3.org/2000/svg" xmlns:xlink="http://www.w3.org/1999/xlink" x="0px" y="0px"
	 width="151px" height="151px" viewBox="-0.341 -0.307 151 151" enable-background="new -0.341 -0.307 151 151"
	 xml:space="preserve">
<g id="dressShoe">
	<g>
		<path fill="none" stroke="#0B0C0C" stroke-width="0.5738" stroke-miterlimit="10" d="M51.094,58.352c0,0-1.079,3.733-19.92-0.857
			c0,0-5.986-1.544-11.438-0.493"/>
		
			<path fill="none" stroke="#0B0C0C" stroke-width="0.8607" stroke-linecap="round" stroke-linejoin="round" stroke-miterlimit="10" d="
			M19.889,57.303c-1.406,6.329,7.233,10.325,11.946,10.953c6.732,0.896,13.585-3.106,18.275-7.797"/>
		<path fill="none" stroke="#0B0C0C" stroke-width="0.5738" stroke-miterlimit="10" d="M50.11,60.458c0,0,7.779-7.85,10.84-6.033"/>
		<path fill="#0B0C0C" d="M59.197,53.799c-0.653-1.53-2.172-2.849-2.172-2.849c-0.831,0.758-1.632,1.566-2.371,2.416
			c-0.737,0.85-1.428,1.743-1.966,2.706c-0.276,0.468-0.492,0.979-0.781,1.491c-0.278,0.504-0.585,0.993-0.904,1.474
			c-0.659,0.941-1.35,1.907-2.351,2.56c-0.02,0.013-0.046,0.007-0.059-0.012c-0.011-0.016-0.009-0.037,0.011-0.059
			c0.363-0.42,0.642-0.923,0.925-1.405c0.281-0.487,0.548-0.983,0.81-1.482l0.782-1.499c0.258-0.487,0.527-1.011,0.861-1.506
			c0.665-0.974,1.426-1.851,2.231-2.676c0.811-0.821,1.655-1.597,2.565-2.309c0,0,0.1-0.043,0.104-0.043
			c1.097-0.021,2.522,2.543,2.889,3.35c0.01,0.021-0.361,0.102-0.383,0.112C59.367,54.077,59.206,53.82,59.197,53.799z"/>
		<path fill="none" stroke="#0B0C0C" stroke-width="0.2869" stroke-miterlimit="10" d="M59.387,53.429c0,0,0.191-2.008,3.156,0.623
			l1.004,0.812"/>
		
			<line fill="none" stroke="#0B0C0C" stroke-width="0.2869" stroke-miterlimit="10" x1="64.408" y1="55.725" x2="67.412" y2="58.352"/>
		
			<line fill="none" stroke="#0B0C0C" stroke-width="0.2869" stroke-miterlimit="10" x1="68.377" y1="59.072" x2="71.52" y2="61.405"/>
		
			<line fill="none" stroke="#0B0C0C" stroke-width="0.2869" stroke-miterlimit="10" x1="72.434" y1="62.117" x2="75.777" y2="64.509"/>
		<path fill="none" stroke="#0B0C0C" stroke-width="0.2869" stroke-miterlimit="10" d="M76.436,65.406c0,0,2.938,1.953,3.082,2.431"
			/>
		<path fill="none" stroke="#0B0C0C" stroke-width="0.2869" stroke-miterlimit="10" d="M80.332,68.827c0,0,3.658,3.07,3.85,3.549"/>
		<path fill="none" stroke="#0B0C0C" stroke-width="0.5738" stroke-miterlimit="10" d="M83.877,72.241c0,0,3.197,4.596,10.729,5.6
			c0,0,5.666,1.507,6.389,2.009c0.716,0.502,1.793,0.357,1.793,0.358c8.104,3.371,25.248,1.183,30.915,10.544"/>
		<path fill="none" stroke="#0B0C0C" stroke-width="0.5738" stroke-miterlimit="10" d="M136.661,93.441c0,0,0.776,3.502,0.409,4.843
			c-0.248,0.901-1.745,4.37-18.578,8.177c0,0-19.178,4.163-28.404,4.473c-14.824,0.498-17.502,1.267-29.696-3.468
			c0,0-18.435-9.11-20.658-8.68c0,0,0,5.379,0,5.38c-0.006,0.288-12.929-2.003-13.875-2.234c-4.66-1.142-12.899-1.046-14.027-7.377
			V83.507c0,0,0.789-1.112,2.439-1.721c0,0,0.042-14.827,1.722-18.363l0.932,0.179c0,0,1.315-5.942,2.965-6.683"/>
		
			<line fill="none" stroke="#0B0C0C" stroke-width="0.5738" stroke-miterlimit="10" x1="41.813" y1="99.432" x2="39.733" y2="104.166"/>
		<path fill="none" stroke="#0B0C0C" stroke-width="0.5738" stroke-miterlimit="10" d="M14.27,81.786
			c-2.083,5.511,16.599,9.233,19.064,9.688c9.716,1.791,18.222,5.146,26.781,10.008c9.637,5.472,21.904,4.615,32.574,3.726
			c10.879-0.908,25.842-2.325,38.906-9.125c2.143-1.115,3.25-3.396,1.937-5.601"/>
		<path fill="none" stroke="#0B0C0C" stroke-width="0.8607" stroke-miterlimit="10" d="M12.119,83.174
			c-2.082,5.512,19.431,9.756,21.896,10.21c9.716,1.792,18.222,5.148,26.781,10.009c9.637,5.474,21.904,4.615,32.574,3.728
			c8.042-0.675,16.057-1.558,23.872-3.624c3.961-1.053,8.027-2.104,11.795-3.742c2.654-1.15,12.352-6.605,4.816-8.591"/>
		<path fill="none" stroke="#0B0C0C" stroke-width="0.5738" stroke-miterlimit="10" d="M101.611,80.256
			c0,0-6.146,4.901-7.148,17.526c0,0-0.438,5.514-0.365,7.307"/>
		<path fill="none" stroke="#0B0C0C" stroke-width="0.2869" stroke-miterlimit="10" stroke-dasharray="1.1477,1.1477" d="
			M102.689,80.256c0,0-6.146,4.901-7.147,17.526c0,0-0.431,4.948-0.358,6.741"/>
		<path fill="none" stroke="#0B0C0C" stroke-width="0.2869" stroke-miterlimit="10" stroke-dasharray="1.1477,1.1477" d="
			M84.448,72.69c-6.265,4.687-9.028,13.052-17.389,10.96c-15.02-4.116-29.65-5.435-41.158,6.438"/>
		<path fill="none" stroke="#0B0C0C" stroke-width="0.5738" stroke-miterlimit="10" d="M83.877,72.241
			c-5.229,3.95-8.481,11.873-15.5,10.118c-15.02-4.118-31.667-5.961-42.827,6.854"/>
		<path fill="none" stroke="#0B0C0C" stroke-width="0.2869" stroke-miterlimit="10" stroke-dasharray="1.1477,1.1477" d="
			M84.988,73.4c-6.266,4.686-9.029,13.052-17.389,10.961c-15.02-4.118-29.164-6.062-40.671,5.811"/>
		
			<line fill="none" stroke="#0B0C0C" stroke-width="0.5738" stroke-miterlimit="10" x1="60.822" y1="54.338" x2="62.83" y2="55.725"/>
		
			<line fill="none" stroke="#0B0C0C" stroke-width="0.5738" stroke-miterlimit="10" x1="63.907" y1="56.25" x2="67.018" y2="58.814"/>
		
			<line fill="none" stroke="#0B0C0C" stroke-width="0.5738" stroke-miterlimit="10" x1="67.933" y1="59.839" x2="70.703" y2="62.323"/>
		
			<line fill="none" stroke="#0B0C0C" stroke-width="0.5738" stroke-miterlimit="10" x1="71.629" y1="63.328" x2="74.661" y2="65.512"/>
		
			<line fill="none" stroke="#0B0C0C" stroke-width="0.5738" stroke-miterlimit="10" x1="75.498" y1="66.566" x2="78.648" y2="69.107"/>
		
			<line fill="none" stroke="#0B0C0C" stroke-width="0.5738" stroke-miterlimit="10" x1="79.208" y1="70.142" x2="81.13" y2="72.032"/>
		
			<line fill="none" stroke="#0B0C0C" stroke-width="0.2869" stroke-miterlimit="10" x1="63.548" y1="57.001" x2="66.327" y2="59.703"/>
		
			<line fill="none" stroke="#0B0C0C" stroke-width="0.2869" stroke-miterlimit="10" x1="67.493" y1="60.292" x2="70.227" y2="62.831"/>
		
			<line fill="none" stroke="#0B0C0C" stroke-width="0.2869" stroke-miterlimit="10" x1="71.223" y1="63.926" x2="74.172" y2="66.358"/>
		
			<line fill="none" stroke="#0B0C0C" stroke-width="0.2869" stroke-miterlimit="10" x1="74.661" y1="67.307" x2="77.781" y2="69.926"/>
		<path fill="none" stroke="#0B0C0C" stroke-width="0.5738" stroke-miterlimit="10" d="M83.057,71.206c0,0-2.146,0.538-2.795,2.355
			c0,0-0.306,0.999,0.338,1.79"/>
		<path fill="#0B0C0C" d="M60.077,58.665l-0.16-0.238c1.821-1.225,3.673-3.916,3.691-3.943c0,0,0.659-0.354,1.008-0.102
			c0.221,0.161,0.533,0.541,0.067,0.936l-0.275-0.21c0.195-0.351,0.163-0.403,0.039-0.493c-0.162-0.116-0.522-0.08-0.66-0.014
			C63.564,54.921,61.741,57.221,60.077,58.665z"/>
		<path fill="#0B0C0C" d="M60.702,59.837l-0.464-0.469c0.681,0.26,1.758-0.984,2.332-1.718c0.483-0.619,1.554-1.911,2.113-3.048
			l0.219,0.454c-0.733,1.518-1.625,2.243-2.072,2.881C62.723,58.089,61.001,59.95,60.702,59.837z"/>
		<path fill="#0B0C0C" d="M61.488,59.039c-0.083,0.116-0.148,0.228-0.211,0.351c-0.067,0.123-0.103,0.242-0.263,0.37
			c-0.271,0.225-0.676,0.251-1,0.085c-0.331-0.17-0.568-0.485-0.542-0.898c0.02-0.13,0.058-0.173,0.084-0.217
			c0.03-0.045,0.064-0.075,0.095-0.105c0.062-0.059,0.131-0.094,0.193-0.14c0.155-0.114,0.27-0.125,0.417-0.162
			c0.017-0.005,0.035,0.004,0.04,0.021c0.002,0.006,0.001,0.015-0.001,0.021c-0.152,0.398-0.556,0.563-0.131,0.95
			c0.139,0.126,0.473,0.269,0.653,0.174c0.071-0.026,0.179-0.149,0.288-0.234c0.105-0.092,0.224-0.184,0.337-0.257
			c0.014-0.009,0.032-0.006,0.041,0.007C61.495,59.015,61.494,59.029,61.488,59.039z"/>
		<path fill="#0B0C0C" d="M64.154,62.042l-0.16-0.238c1.82-1.225,3.775-4.056,3.794-4.083c0,0,0.555-0.214,0.904,0.038
			c0.222,0.161,0.534,0.542,0.068,0.936l-0.383,0.107c0.195-0.35,0.27-0.72,0.146-0.81c-0.269-0.193-0.58-0.114-0.773,0.139
			C67.278,58.749,65.652,60.742,64.154,62.042z"/>
		<path fill="#0B0C0C" d="M64.741,62.938c-0.166,0.013-0.302-0.113-0.399-0.254c0.341,0.255,4.674-4.175,4.419-4.706
			c0.001,0,0.218,0.454,0.218,0.455C68.659,59.095,65.944,62.841,64.741,62.938z"/>
		<path fill="#0B0C0C" d="M65.35,62.331c-0.074,0.103,0.297-0.011,0.242,0.097c-0.216,0.421-1.163,0.814-1.558,0.614
			c-0.295-0.15-0.508-0.429-0.484-0.793c0.044-0.294,0.997-0.917,1.291-1.112c0.013-0.009-0.006,0.155-0.001,0.171
			c-0.103,0.362-1.084,0.863-0.667,1.267c0.12,0.116,0.423,0.237,0.583,0.154c0.064-0.022,0.161-0.131,0.257-0.207
			c0.094-0.081,0.2-0.162,0.302-0.227c0.011-0.008,0.027-0.005,0.036,0.006C65.356,62.311,65.356,62.323,65.35,62.331z"/>
		<path fill="#0B0C0C" d="M67.883,65.469l-0.16-0.238c1.82-1.225,3.673-3.916,3.691-3.943c0,0,0.658-0.354,1.007-0.102
			c0.222,0.161,0.535,0.542,0.068,0.936l-0.274-0.21c0.194-0.35,0.161-0.403,0.037-0.493c-0.162-0.117-0.522-0.08-0.658-0.014
			C71.371,61.725,69.547,64.025,67.883,65.469z"/>
		<path fill="#0B0C0C" d="M68.508,66.641l-0.464-0.47c0.682,0.26,1.759-0.984,2.332-1.718c0.483-0.618,1.555-1.91,2.113-3.048
			l0.218,0.454c-0.731,1.519-1.624,2.243-2.07,2.881C70.529,64.894,68.808,66.754,68.508,66.641z"/>
		<path fill="#0B0C0C" d="M69.293,65.843c-0.082,0.116-0.147,0.228-0.211,0.351c-0.066,0.123-0.103,0.241-0.263,0.369
			c-0.271,0.225-0.676,0.251-1,0.085c-0.331-0.17-0.569-0.485-0.542-0.898c0.02-0.131,0.057-0.174,0.084-0.217
			c0.03-0.045,0.063-0.075,0.094-0.105c0.063-0.06,0.132-0.095,0.194-0.14c0.155-0.114,0.271-0.125,0.417-0.162
			c0.016-0.005,0.035,0.004,0.04,0.021c0.002,0.006,0.001,0.015-0.001,0.021c-0.151,0.398-0.556,0.564-0.131,0.95
			c0.139,0.126,0.473,0.269,0.652,0.174c0.071-0.025,0.179-0.149,0.289-0.233c0.105-0.092,0.223-0.184,0.338-0.257
			c0.012-0.009,0.031-0.006,0.039,0.007C69.301,65.819,69.3,65.833,69.293,65.843z"/>
		<path fill="#0B0C0C" d="M71.828,68.753l-0.16-0.238c1.819-1.225,3.673-3.916,3.691-3.943c0,0,0.657-0.354,1.006-0.101
			c0.223,0.161,0.535,0.541,0.068,0.936l-0.274-0.21c0.194-0.35,0.161-0.403,0.038-0.493c-0.162-0.116-0.522-0.079-0.66-0.014
			C75.314,65.009,73.491,67.31,71.828,68.753z"/>
		<path fill="#0B0C0C" d="M72.453,69.925l-0.465-0.469c0.682,0.26,1.61-1.042,2.184-1.776c0.482-0.619,1.703-1.852,2.264-2.991
			c0,0,0.217,0.454,0.217,0.455C76.348,65.773,73.949,68.827,72.453,69.925z"/>
		<path fill="#0B0C0C" d="M73.286,69.211c-0.066,0.123-0.416,0.425-0.574,0.552c-0.272,0.225-0.624,0.336-0.946,0.17
			c-0.332-0.17-0.569-0.485-0.542-0.897c0.019-0.131,0.056-0.174,0.083-0.218c0.031-0.044,0.064-0.075,0.096-0.104
			c0.062-0.06,0.131-0.095,0.192-0.14c0.155-0.114,0.271-0.125,0.418-0.162c0.016-0.006,0.034,0.003,0.04,0.021
			c0.002,0.006,0,0.015-0.002,0.022c-0.152,0.398-0.556,0.563-0.131,0.949c0.139,0.126,0.486,0.167,0.666,0.073
			c0.071-0.025,0.166-0.047,0.274-0.132c0.105-0.092,0.305-0.314,0.418-0.388C73.292,68.946,73.491,68.811,73.286,69.211z"/>
		<path fill="#0B0C0C" d="M75.658,72.376l-0.16-0.238c1.818-1.225,3.906-4.367,3.926-4.394c0,0,0.658-0.354,1.008-0.102
			c0.221,0.161,0.533,0.541,0.067,0.936l-0.274-0.21c0.194-0.35,0.162-0.403,0.037-0.493c-0.16-0.116-0.521-0.08-0.658-0.014
			C79.38,68.181,77.322,70.933,75.658,72.376z"/>
		<path fill="#0B0C0C" d="M76.283,73.548l-0.465-0.469c0.683,0.26,1.993-1.436,2.564-2.17c0.482-0.618,1.558-1.91,2.113-3.048
			l0.218,0.454c-0.768,1.015-1.624,2.243-2.068,2.881C78.538,71.349,76.674,73.849,76.283,73.548z"/>
		<path fill="#0B0C0C" d="M77.305,72.299c-0.084,0.116-0.385,0.679-0.447,0.802c-0.063,0.123-0.103,0.242-0.264,0.369
			c-0.271,0.226-0.676,0.252-0.998,0.086c-0.332-0.171-0.569-0.486-0.542-0.898c0.02-0.131,0.058-0.174,0.084-0.217
			c0.03-0.045,0.063-0.075,0.096-0.105c0.062-0.06,0.131-0.094,0.193-0.141c0.154-0.113,0.271-0.123,0.416-0.162
			c0.019-0.004,0.035,0.004,0.04,0.021c0.002,0.006,0.002,0.016-0.001,0.022c-0.149,0.397-0.556,0.563-0.131,0.948
			c0.14,0.127,0.474,0.27,0.651,0.175c0.07-0.025,0.181-0.148,0.287-0.233c0.104-0.092,0.459-0.635,0.572-0.708
			c0.014-0.01,0.03-0.007,0.039,0.007C77.311,72.274,77.309,72.289,77.305,72.299z"/>
		<path fill="none" stroke="#0B0C0C" stroke-width="0.8607" stroke-linecap="round" stroke-miterlimit="10" d="M59.247,52.967
			c0,0,1.659,0.204,1.235,0.952"/>
	</g>
</g>
<g id="frame">
	<circle fill="none" stroke="#000000" stroke-width="2" stroke-miterlimit="10" cx="75.159" cy="75.193" r="74.5"/>
</g>
</svg>
