<?xml version="1.0" encoding="utf-8"?>
<!-- Generator: Adobe Illustrator 15.1.0, SVG Export Plug-In . SVG Version: 6.00 Build 0)  -->
<!DOCTYPE svg PUBLIC "-//W3C//DTD SVG 1.1//EN" "http://www.w3.org/Graphics/SVG/1.1/DTD/svg11.dtd">
<svg version="1.1" id="Layer_1" xmlns="http://www.w3.org/2000/svg" xmlns:xlink="http://www.w3.org/1999/xlink" x="0px" y="0px"
	 width="151px" height="151px" viewBox="-0.341 -0.307 151 151" enable-background="new -0.341 -0.307 151 151"
	 xml:space="preserve">
<g id="flats">
	<g>
		<path fill="#363838" d="M69.58,97.132c-7.436,0-16.846-3.243-28.068-13.43c-3.997-3.318-8.252-7.431-12.624-12.2
			c-4.05-4.42-6.835-8.351-8.764-12.37l-0.169-0.353c-2.002-4.164-4.723-10.328-3.124-15.285c0.134-0.418,1.522-2.335,1.941-2.198
			c0.419,0.135-0.596,2.14-0.731,2.558c-1.403,4.352,1.457,10.299,3.349,14.234l0.17,0.354c1.859,3.874,4.562,7.681,8.503,11.982
			c4.322,4.716,8.526,8.779,12.494,12.075c17.286,15.69,29.926,14.38,37.488,10.522c6.288-3.209,18.875-12.234,20.133-14.699
			c-0.393-0.069-0.681-0.424-0.656-0.83c0.023-0.439,0.396-0.778,0.842-0.75c1.148,0.064,1.416,0.753,1.479,1.046
			c0.675,3.202-16.776,14.461-21.069,16.651C77.771,95.971,74.027,97.132,69.58,97.132z"/>
		<path fill="none" stroke="#363838" stroke-width="0.7964" stroke-miterlimit="10" d="M17.283,43.611
			c0.153-0.477,0.354-0.938,0.607-1.378c0,0,5.044-8.76,28.271,5.973c0,0,25.617,17.52,29.201,19.644
			c3.583,2.124,20.308,9.423,24.953,9.689"/>
		<path fill="#363838" d="M70.162,94.125c-6.369,0-17.371-2.445-30.406-15.628c-0.686-0.692-1.372-1.382-2.056-2.067
			c-6.061-6.082-11.786-11.826-15.819-19.492c-0.241-0.457-2.627-5.17-2.733-6.012c-0.431-3.446-0.148-4.181,0.185-4.859h0.416
			c0.026,0.668,0.55,3.832,0.797,4.5c0.239,0.646,2.431,5.033,2.745,5.629c3.922,7.454,9.564,13.115,15.538,19.108
			c0.686,0.688,1.374,1.377,2.061,2.073c19.497,19.719,34.443,14.471,34.593,14.414l0.108-0.032
			c4.437-0.979,19.255-12.434,19.402-12.549l0.976,1.261c-0.617,0.479-15.144,11.703-19.98,12.831
			C75.575,93.45,73.507,94.124,70.162,94.125z"/>
		
			<path fill="none" stroke="#363838" stroke-width="0.7964" stroke-linecap="round" stroke-linejoin="round" stroke-miterlimit="10" d="
			M19.749,49.665c-1.195-6.054,1.988-7.493,6.371-7.5c4.454-0.007,11.597,4.18,15.815,6.718c5.47,3.29,10.461,6.937,15.775,10.471
			c0,0,30.104,21.169,37.771,20.486"/>
		<path fill="#363838" d="M96.417,117.869c-21.042,0.001-34.775-8.381-35.546-8.862c-1.068-0.668-22.755-17.809-25.224-19.761
			c-8.504-6.143-14.062-10.102-20.529-13.665c-6.874-3.787,0.29-27.633,1.129-30.339c0.13-0.42,0.576-0.656,0.997-0.525
			c0.42,0.13,0.17,0.479,0.04,0.899c-2.173,7.01-6.264,25.888-1.397,28.57c6.549,3.608,12.141,7.591,20.721,13.789
			c9.679,7.651,24.322,19.188,25.108,19.685c1.021,0.64,25.412,15.517,59.464,4.69c0.032-0.01,0.065-0.019,0.1-0.021
			c2.326-0.418,8.512-2.241,9.186-5.61c0.737-3.688-9.898-16.989-29.498-27.681c-0.387-0.211-0.525-0.694-0.314-1.081
			c0.211-0.388,0.69-0.526,1.08-0.315c18.67,10.184,31.394,23.914,30.297,29.393c-0.994,4.976-9.571,6.699-10.408,6.854
			C112.451,116.79,103.961,117.869,96.417,117.869z"/>
		<path fill="#2B2C2D" d="M100.332,82.484c0,0-5.795,2.024-7.448,4.119c-2.644,3.34-6.854,9.877-4.247,11.438
			c1.325,0.797,10.271-11.913,12.438-13.9l-0.49-0.513c0,0-5.242,2.271-8.494,8.573s2.394-5.53,2.394-5.53l0.994-0.376l5.106-2.667"
			/>
		<path fill="none" stroke="#363838" stroke-width="0.7964" stroke-miterlimit="10" d="M25.592,61.935c0,0,8.359-3.111,15.792,2.596
			c7.433,5.708,39.22,25.66,45.054,22.511"/>
		<path fill="#2B2C2D" d="M101.07,84.973c-5.799,8.32-0.754,18.187-0.754,18.187s1.097,0.659,1.842-0.996c0,0-4.778-7.177,0-15.999"
			/>
		<path fill="#2B2C2D" d="M104.469,84.538c2.391-0.306,7.12,1.112,15.758,5.745l1.062-0.998c0,0-11.53-7.227-17.371-6.164"/>
		<path fill="#363838" d="M103.716,82.484c1.726-1.078,7.552-2.094,7.417-3.42c-0.133-1.328-7.433-5.363-9.82-4.833
			c-2.389,0.531-0.237,7.155-0.237,7.155l1.087-0.282c0,0-1.053-3.944,0.348-5.227c1.396-1.279,5.977,1.991,6.176,2.456
			c0.195,0.464-5.476,3.517-5.476,3.517L103.716,82.484"/>
		<path fill="none" stroke="#363838" stroke-width="1.1946" stroke-miterlimit="10" d="M32.292,86.299c0,0-2.058,0.924-4.181,0.305
			c-1.809-0.523-13.349-9.062-13.349-9.062s-0.141-2.903,0.706-2.307"/>
		<path fill="#363838" d="M99.834,82.034c0,0,1.805-2.095,3.534,0c1.731,2.095,0.93,2.938,0.93,2.938l-2.14,1.188
			C102.158,86.16,100.546,85.203,99.834,82.034z"/>
	</g>
</g>
<g id="frame">
	<circle fill="none" stroke="#000000" stroke-width="2" stroke-miterlimit="10" cx="75.159" cy="75.193" r="74.5"/>
</g>
</svg>
