<?xml version="1.0" encoding="utf-8"?>
<!-- Generator: Adobe Illustrator 15.1.0, SVG Export Plug-In . SVG Version: 6.00 Build 0)  -->
<!DOCTYPE svg PUBLIC "-//W3C//DTD SVG 1.1//EN" "http://www.w3.org/Graphics/SVG/1.1/DTD/svg11.dtd">
<svg version="1.1" id="Layer_1" xmlns="http://www.w3.org/2000/svg" xmlns:xlink="http://www.w3.org/1999/xlink" x="0px" y="0px"
	 width="151px" height="151px" viewBox="-0.341 -0.307 151 151" enable-background="new -0.341 -0.307 151 151"
	 xml:space="preserve">
<g id="heel">
	<g>
		<path fill="none" stroke="#303030" stroke-width="0.706" stroke-miterlimit="10" d="M98.95,93.132
			c-10.022-2.429-15.746-12.96-20.397-21.038c-3.56-6.183-7.748-11.991-12.199-17.56c-3.06-4.236-18.475-20.24-18.475-20.24
			c-4.942-6.237-8.355-6.472-8.355-6.472"/>
		
			<path fill="none" stroke="#303030" stroke-width="0.706" stroke-linecap="round" stroke-linejoin="round" stroke-miterlimit="10" d="
			M39.524,27.822c0,0-15.415,19.298-11.062,28.83c0,0,1.53,5.06,14.003,16.004c0,0,9.414,10.119,11.768,26.24"/>
		<path fill="none" stroke="#303030" stroke-width="0.706" stroke-miterlimit="10" d="M54.172,98.5c0,0,1.944,8.986,6.651,13.459
			c0,0,6.119,4.708,27.653,5.18c0,0,30.24,2,32.008,1.176c0,0,4.824-2.002,0-6.119c-4.825-4.116-20.113-17.737-20.113-17.737"/>
		<path fill="#303030" d="M78.823,102.975c-2.443,0-4.991-0.328-7.482-1.183c-5.268-1.806-9.325-5.674-12.057-11.495
			c-1.811-5.654-3.696-11.475-5.627-17.362c-0.648-1.975-1.292-3.952-1.937-5.929c-2.569-7.881-5.227-16.031-8.069-23.959
			c-0.407-1.137-1.025-2.425-1.679-3.788c-1.749-3.647-3.732-7.782-2.844-11.33c0.071-0.284,0.359-0.456,0.643-0.385
			c0.284,0.071,0.456,0.359,0.385,0.643c-0.794,3.177,1.1,7.128,2.772,10.615c0.666,1.389,1.295,2.7,1.721,3.889
			c2.847,7.942,5.507,16.099,8.079,23.988c0.644,1.976,1.289,3.952,1.936,5.926c1.932,5.891,3.818,11.713,5.604,17.306
			c2.58,5.485,6.427,9.168,11.411,10.879c10.09,3.462,21.619-2.306,21.734-2.363c6.194-2.437,6.442-3.757,6.43-3.997
			c-0.021-0.38-0.642-0.851-0.956-0.937c-0.281-0.078-0.971-0.479-0.895-0.763c0.076-0.28,0.869,0.066,1.236,0.101
			c0.184,0.017,1.604,0.297,1.672,1.538c0.053,0.945-0.623,2.494-7.053,5.021C93.514,99.562,86.706,102.975,78.823,102.975z"/>
		<path fill="#303030" d="M48.271,54.944c0,0,7.758,5.209,13.141,18.065c2.348,5.608,6.969,17.974,11.606,22.843
			c3.657,3.84,4.757,3.896,5.823,4.153c0.394,0.097,10.996,2.343,5.806,1.386c-0.41-0.076-5.244-1.013-5.826-1.125
			c-2.35-0.453-10.029-3.625-16.464-20.433c0,0-9.134-22.76-13.723-23.819"/>
		<path fill="none" stroke="#303030" stroke-width="0.706" stroke-miterlimit="10" d="M88.021,100.971"/>
		<path fill="none" stroke="#303030" stroke-width="0.706" stroke-miterlimit="10" d="M77.896,99.562"/>
		<path fill="none" stroke="#303030" stroke-width="0.706" stroke-miterlimit="10" d="M54.234,40.976c0,0-0.412,5.674,1.706,10.087
			s-0.628,8.866-1.706,10.649"/>
		<path fill="none" stroke="#303030" stroke-width="0.706" stroke-miterlimit="10" d="M36.612,96.426c0,0-0.618-23.52-0.794-24.402
			c-0.176-0.882-0.369-5.317-1.561-7.303"/>
		<path fill="none" stroke="#303030" stroke-width="0.706" stroke-miterlimit="10" d="M34.276,96.176c0,0,1.233,0.34,2.336,0.25"/>
		<path fill="none" stroke="#303030" stroke-width="0.353" stroke-miterlimit="10" d="M32.861,63.144c0,0,1.814,10.282,1.43,32.665
			c-0.001,0.062-0.014,0.311-0.015,0.367"/>
		<path fill="none" stroke="#303030" stroke-width="0.353" stroke-miterlimit="10" d="M37.729,96.075c0,0-0.632-25.375,0.427-26.876
			"/>
		
			<line fill="none" stroke="#303030" stroke-width="0.706" stroke-miterlimit="10" x1="36.612" y1="96.426" x2="37.729" y2="96.075"/>
		
			<path fill="none" stroke="#303030" stroke-width="0.353" stroke-linecap="round" stroke-linejoin="round" stroke-miterlimit="10" d="
			M34.233,98.117C34.146,98.053,34.187,98,34.187,98l0.104-2.191"/>
		
			<path fill="none" stroke="#303030" stroke-width="0.353" stroke-linecap="round" stroke-linejoin="round" stroke-miterlimit="10" d="
			M36.539,98.573c-1.654,0-2.159-0.349-2.305-0.456"/>
		
			<line fill="none" stroke="#303030" stroke-width="0.706" stroke-linecap="round" stroke-linejoin="round" stroke-miterlimit="10" x1="36.465" y1="96.5" x2="36.539" y2="98.368"/>
		<polyline fill="none" stroke="#303030" stroke-width="0.353" stroke-miterlimit="10" points="37.729,96.075 37.837,98.109 
			36.539,98.573 		"/>
	</g>
</g>
<g id="frame">
	<circle fill="none" stroke="#000000" stroke-width="2" stroke-miterlimit="10" cx="75.159" cy="75.193" r="74.5"/>
</g>
</svg>
