<?xml version="1.0" encoding="utf-8"?>
<!-- Generator: Adobe Illustrator 15.1.0, SVG Export Plug-In . SVG Version: 6.00 Build 0)  -->
<!DOCTYPE svg PUBLIC "-//W3C//DTD SVG 1.1//EN" "http://www.w3.org/Graphics/SVG/1.1/DTD/svg11.dtd">
<svg version="1.1" id="Layer_1" xmlns="http://www.w3.org/2000/svg" xmlns:xlink="http://www.w3.org/1999/xlink" x="0px" y="0px"
	 width="253.334px" height="253.334px" viewBox="0 0 253.334 253.334" enable-background="new 0 0 253.334 253.334"
	 xml:space="preserve">
<g id="borderAndBkg">
	
		<circle fill="#EAEAEA" stroke="#6897C5" stroke-width="4" stroke-linecap="round" stroke-linejoin="round" stroke-miterlimit="10" stroke-dasharray="1,8" cx="126" cy="124.667" r="124.667"/>
</g>
<g id="Layer_20">
	<g>
		
			<path fill="none" stroke="#161616" stroke-width="0.5" stroke-linecap="round" stroke-linejoin="round" stroke-miterlimit="10" d="
			M106.885,100.581c0,0-0.5,2,0,3.875s6.75,9.25,6.75,10.25s0-0.125,0,1s0,1.125,0,1.125"/>
		
			<path fill="none" stroke="#332E2E" stroke-width="0.5" stroke-linecap="round" stroke-linejoin="round" stroke-miterlimit="10" d="
			M154.385,120.456c0,0,3.75,5.875-0.75,10.875"/>
		
			<path fill="none" stroke="#332E2E" stroke-width="0.5" stroke-linecap="round" stroke-linejoin="round" stroke-miterlimit="10" d="
			M155.037,121.772c0,0,2.848,5.059,4.348,12.934"/>
		<path fill="none" stroke="#332E2E" stroke-linecap="round" stroke-linejoin="round" stroke-miterlimit="10" d="M120.135,132.875
			c0,0,18.625,7.705,29.125,7.955c0,0,14,2,15.75,9.374"/>
		<path fill="none" stroke="#332E2E" stroke-linecap="round" stroke-linejoin="round" stroke-miterlimit="10" d="M122.26,123.706
			c0,0,12.609,4.25,22.25,5.625c9.644,1.375,15.125,4,16.75,7.375"/>
		
			<path fill="none" stroke="#332E2E" stroke-width="0.5" stroke-linecap="round" stroke-linejoin="round" stroke-miterlimit="10" d="
			M106.663,100.188c-3.995,3.317-4.082,12.828-1.338,16.643"/>
		
			<path fill="none" stroke="#332E2E" stroke-width="0.75" stroke-linecap="round" stroke-linejoin="round" stroke-miterlimit="10" d="
			M103.143,108.371c-7.553,8.851-14.222,30.129-4.508,39.708c0,0,6.625,5.375,6.75,22.375l0.501,23.65l0.624,0.035v2.188l2.25,0.375
			"/>
		
			<path fill="none" stroke="#332E2E" stroke-width="0.5" stroke-linecap="round" stroke-linejoin="round" stroke-miterlimit="10" d="
			M112.885,160.269c0,0-1.5,0.188-1.5,9.688l-0.977,23.889l-1.512,0.232"/>
		
			<path fill="none" stroke="#332E2E" stroke-width="0.75" stroke-linecap="round" stroke-linejoin="round" stroke-miterlimit="10" d="
			M107.858,157.046c1.211,13.062,1.036,23.912,0.902,37.033v2.625"/>
		
			<path fill="none" stroke="#332E2E" stroke-width="0.5" stroke-linecap="round" stroke-linejoin="round" stroke-miterlimit="10" d="
			M124.668,173.673c-1.479-2.326-3.369-4.408-4.824-6.75c-3.375-5.426-14.708-11.676-18.359-14.967"/>
		
			<path fill="none" stroke="#332E2E" stroke-width="0.5" stroke-linecap="round" stroke-linejoin="round" stroke-miterlimit="10" d="
			M128.696,183.83c0,0,5.938,14.375,7.062,17.375s13.375,11.625,27.125,11.625c0.34,0.021,32.104,1.967,37.5-1.375l1.5-2.25
			c0,0,6-3.625-3.125-6.75"/>
		<path fill="none" stroke="#332E2E" stroke-linecap="round" stroke-linejoin="round" stroke-miterlimit="10" d="M172.681,210.937
			c0,0,8.913-15.646,10.038-18.146"/>
		<path fill="none" stroke="#332E2E" stroke-linecap="round" stroke-linejoin="round" stroke-miterlimit="10" d="M162.321,210.455
			c0,0,7.621-15.867,8.496-16.992"/>
		
			<path fill="none" stroke="#332E2E" stroke-width="0.5" stroke-linecap="round" stroke-linejoin="round" stroke-miterlimit="10" d="
			M174.672,187.007l2.899-4.053c0,0,4.345,2.969,5.781,3.875"/>
		<g>
			<path fill="#332E2E" d="M146.479,207.394l-0.385,0.135c-0.115,0.053-0.226,0.119-0.32,0.207
				c-0.187,0.172-0.328,0.449-0.308,0.766c-0.182-0.262-0.233-0.641-0.133-1.004c0.051-0.18,0.138-0.352,0.24-0.51
				c0.053-0.082,0.12-0.16,0.188-0.24l0.153-0.18c0.187-0.219,0.515-0.242,0.729-0.059c0.215,0.186,0.242,0.516,0.058,0.729
				C146.642,207.312,146.562,207.362,146.479,207.394z"/>
		</g>
		<path fill="none" stroke="#332E2E" stroke-linecap="round" stroke-linejoin="round" stroke-miterlimit="10" d="M137.037,201.108
			c2.723-2.426,12.961-10.821,25.973-12.528c0,0,16.75-3.375,23.625-0.75l8.25,6.5c0,0-14.812-4.666-29.875,0
			c-11.225,3.479-16.795,9.883-18.768,12.647"/>
		<g>
			<path fill="#332E2E" d="M137.233,203.042c-0.224-0.244-0.426-0.514-0.59-0.832c-0.08-0.16-0.147-0.34-0.177-0.561
				c-0.026-0.211,0-0.5,0.193-0.758c0.194-0.193,0.512-0.197,0.707-0.002c0.196,0.195,0.196,0.512,0.002,0.707
				c-0.033-0.023-0.104,0.008-0.154,0.109c-0.049,0.1-0.077,0.242-0.084,0.389C137.117,202.397,137.158,202.726,137.233,203.042z"/>
		</g>
		
			<path fill="none" stroke="#332E2E" stroke-width="0.5" stroke-linecap="round" stroke-linejoin="round" stroke-miterlimit="10" d="
			M165.01,149.705c0,0,2.125,3.188,2.687,12.979c0,0,0.275,2.821,2.313,6.271c0,0,0.89,0.844,1.125,4.75c0,0,2.468,5.231,3.125,5.75
			c1.169,0.916,2.853,4.146,2.232,4.989"/>
		<path fill="none" stroke="#332E2E" stroke-linecap="round" stroke-linejoin="round" stroke-miterlimit="10" d="M148.321,141.081
			c0,0-14.188,18.499-16.438,20.624s-8.842,11.938-7.217,15l3.717,7.334l1.625,0.291l-0.391-0.695
			c0.475-3.346-0.359-3.18,8.766-12.93s19.232-27.249,19.232-27.249"/>
		<g>
			<path fill="#332E2E" d="M103.139,110.789c-1.104,1.618-1.908,3.402-2.416,5.272c-0.531,1.861-0.93,3.772-1.127,5.688
				c-0.183,1.922-0.259,3.855-0.173,5.788c0.083,1.923,0.304,3.879,0.463,5.817c0.286,3.873,0.812,7.746,2.497,11.221
				c0.816,1.746,1.779,3.441,2.843,5.066c1.042,1.644,2.216,3.198,3.534,4.646c-2.926-2.621-5.213-5.896-7.068-9.376
				c-1.898-3.539-2.438-7.595-2.801-11.472c-0.129-1.957-0.319-3.892-0.375-5.875c-0.043-1.974,0.013-3.958,0.322-5.916
				c0.298-1.961,0.782-3.875,1.423-5.741C100.932,114.058,101.854,112.27,103.139,110.789z"/>
		</g>
		
			<path fill="none" stroke="#332E2E" stroke-width="0.5" stroke-linecap="round" stroke-linejoin="round" stroke-miterlimit="10" d="
			M102.006,144.685c5.865,5.48,20.65,19.209,23.222,27.459"/>
		
			<polyline fill="none" stroke="#332E2E" stroke-width="0.5" stroke-linecap="round" stroke-linejoin="round" stroke-miterlimit="10" points="
			111.26,115.893 106.663,110.456 106.01,111.081 104.698,122.081 107.75,124.321 		"/>
		
			<path fill="none" stroke="#332E2E" stroke-width="0.5" stroke-linecap="round" stroke-linejoin="round" stroke-miterlimit="10" d="
			M112.885,115.893"/>
		
			<path fill="none" stroke="#332E2E" stroke-width="0.75" stroke-linecap="round" stroke-linejoin="round" stroke-miterlimit="10" d="
			M122.26,123.206c0,0-10-6.875-10.25-7.875l-0.625,0.562c-0.036,0.106-3.525,6.253-3.406,10.359
			c0.043,1.494,1.019,2.082,2.17,2.912c3.236,2.332,8.736,5.541,8.736,5.541L122.26,123.206z"/>
		
			<path fill="none" stroke="#332E2E" stroke-width="0.5" stroke-linecap="round" stroke-linejoin="round" stroke-miterlimit="10" d="
			M112.885,118.831c0,0,7.603,4.629,7.728,5.379l-1.229,4.186l-1.375,3.812c0,0-7.973-2.875-7.861-5.375
			S112.885,118.831,112.885,118.831z"/>
		
			<path fill="none" stroke="#332E2E" stroke-width="0.5" stroke-linecap="round" stroke-linejoin="round" stroke-miterlimit="10" d="
			M161.26,136.706c0,0,3.443,8.953,3.75,13.499"/>
		
			<path fill="none" stroke="#332E2E" stroke-width="0.5" stroke-linecap="round" stroke-linejoin="round" stroke-miterlimit="10" d="
			M200.51,209.83c0,0-39.829,4.481-54.704-2.519"/>
		
			<path fill="none" stroke="#332E2E" stroke-width="0.5" stroke-linecap="round" stroke-linejoin="round" stroke-miterlimit="10" d="
			M182.524,193.972c0,0,4.608,4.896,5.608,5.379c1,0.479,5,4.229,2.25,6.604s-7.375,1.25-7.375,1.25"/>
		
			<path fill="none" stroke="#332E2E" stroke-width="0.5" stroke-linecap="round" stroke-linejoin="round" stroke-miterlimit="10" d="
			M179.635,200.33c0,0,5.25,4.5,2.75,6.875s-7.312,0.108-8.067,0.584"/>
		
			<path fill="none" stroke="#332E2E" stroke-width="0.5" stroke-linecap="round" stroke-linejoin="round" stroke-miterlimit="10" d="
			M199.01,197.33c1.75,8.625-6.875,7.051-6.875,7.051"/>
		<g>
			<path fill="#332E2E" d="M193.324,194.306c0.526,0.129,1.01,0.352,1.51,0.533l1.492,0.57c0.991,0.385,1.989,0.76,2.973,1.17
				c0.068,0.027,0.101,0.107,0.072,0.178c-0.011,0.021-0.029,0.045-0.047,0.061L195.008,200c-0.069,0.054-0.166,0.051-0.235,0.008
				c-1.328-0.836-2.658-1.666-3.896-2.651c-0.312-0.244-0.606-0.508-0.894-0.806c-0.125-0.147-0.312-0.312-0.358-0.614
				c-0.021-0.312,0.166-0.521,0.315-0.66c0.666-0.545,1.429-0.756,2.177-1l0.018-0.002L193.324,194.306z M193.321,194.354
				l-1.188,0.031l0.02-0.003c-0.711,0.277-1.461,0.623-1.963,1.136c-0.256,0.301-0.197,0.435,0.113,0.717
				c0.268,0.257,0.584,0.481,0.885,0.724c1.24,0.922,2.516,1.828,3.811,2.692l-0.234,0.009l4.402-3.063l0.025,0.233l-2.912-1.306
				l-1.465-0.635C194.319,194.699,193.826,194.479,193.321,194.354z"/>
		</g>
		
			<path fill="none" stroke="#332E2E" stroke-width="0.5" stroke-linecap="round" stroke-linejoin="round" stroke-miterlimit="10" d="
			M165.885,194.069c0,0,2.896,1.011,2.771,2.636"/>
		
			<path fill="none" stroke="#332E2E" stroke-width="0.5" stroke-linecap="round" stroke-linejoin="round" stroke-miterlimit="10" d="
			M149.5,203.233c0,0,4.135,3.388,5.635,3.638s6.459-0.201,6.459-0.201c0.867-0.657-0.209-1.34-0.584-3.34s-2.186-6.625-2.186-6.625
			"/>
		
			<line fill="none" stroke="#332E2E" stroke-width="0.5" stroke-linecap="round" stroke-linejoin="round" stroke-miterlimit="10" x1="161.101" y1="203.903" x2="157.844" y2="206.946"/>
		<g>
			<path fill="#332E2E" d="M111.285,90.076c0.857,4.056,1.604,8.136,2.196,12.244c0.296,2.053,0.585,4.112,0.691,6.192
				c0.041,1.04,0.072,2.082,0.022,3.125c-0.06,1.037-0.145,2.101-0.536,3.078c-0.005,0.013-0.02,0.019-0.032,0.014
				c-0.012-0.005-0.018-0.019-0.015-0.031c0.261-0.999,0.24-2.041,0.234-3.066c-0.023-1.029-0.08-2.059-0.173-3.087
				c-0.17-2.056-0.347-4.117-0.59-6.172c-0.502-4.108-1.133-8.205-1.848-12.287c-0.003-0.014,0.006-0.027,0.02-0.029
				C111.268,90.055,111.282,90.062,111.285,90.076z"/>
		</g>
		
			<path fill="none" stroke="#332E2E" stroke-width="0.5" stroke-linecap="round" stroke-linejoin="round" stroke-miterlimit="10" d="
			M136.112,17.12c0,0,2.714,63.891,18.63,103.995"/>
		<path fill="none" stroke="#332E2E" stroke-linecap="round" stroke-linejoin="round" stroke-miterlimit="10" d="M85.719,22.453
			c0,0,15.5,55.461,18.979,64.627c0,0,3.273,9.277,2.354,11.417c-0.666,1.552-0.443,1.502-0.186,2.169"/>
		
			<path fill="none" stroke="#332E2E" stroke-width="0.5" stroke-linecap="round" stroke-linejoin="round" stroke-miterlimit="10" d="
			M96.81,108.128"/>
		
			<path fill="none" stroke="#332E2E" stroke-width="0.5" stroke-linecap="round" stroke-linejoin="round" stroke-miterlimit="10" d="
			M89.983,37.585c-1.893,2.993-5.697,11.74-8.184,15.333c-1.277,1.846-2.396,3.201-3.831,4.746v2l-2.544,4.233"/>
		
			<path fill="none" stroke="#332E2E" stroke-width="0.5" stroke-linecap="round" stroke-linejoin="round" stroke-miterlimit="10" d="
			M77.969,59.664c-1.212-3.981-9.779-0.014-11.5,1.583c-0.835,0.775-6.296,0.706-7.417,0.833c-5.899,0.673-8.486,2.6-14.5,6.938
			c-6.432,4.639-7.333,11.646-7.417,21.146c-0.041,4.611-4.188,11.917-8.25,17.417c-4.062,5.5-10.875,14.937-10.875,14.937
			s2.628,2.585,3.062,2.938c0.25,0.203,18.097-24.799,20.312-23.75c0,0,8.938,9.917,7,25.042"/>
		
			<path fill="none" stroke="#332E2E" stroke-width="0.5" stroke-linecap="round" stroke-linejoin="round" stroke-miterlimit="10" d="
			M47.36,137.753c0,0-2.662,13.701-4.1,14.701c-1.438,1,0.062,9.688,2.625,14.062c2.563,4.375,9.5,13.562,12.875,16
			c3.375,2.438,15.25,13.562,19.188,14.188c3.938,0.626,9.75,0.188,4.875-11.75"/>
		
			<path fill="none" stroke="#332E2E" stroke-width="0.5" stroke-linecap="round" stroke-linejoin="round" stroke-miterlimit="10" d="
			M80.948,167.315c0,0,2.312,7.015,0.938,10.015c0,0-0.562,0.375-0.938,0.438"/>
		<path fill="none" stroke="#332E2E" stroke-linecap="round" stroke-linejoin="round" stroke-miterlimit="10" d="M76.229,153.914
			c0,0,3.094,7.416,4.219,8.604c1.125,1.188,0.062,9.062-2.219,13.688s-8.719,11-11.406,12.25"/>
		<path fill="none" stroke="#332E2E" stroke-linecap="round" stroke-linejoin="round" stroke-miterlimit="10" d="M75.816,153.914
			c0,0,0.819,9.291-1.244,13.791s-13.544,14.09-16.107,14.59"/>
		<path fill="none" stroke="#332E2E" stroke-linecap="round" stroke-linejoin="round" stroke-miterlimit="10" d="M43.26,152.455
			c0,0,6.438,7,18.25,8.812c0,0,11.375,1.688,13,3.312"/>
		<path fill="none" stroke="#332E2E" stroke-linecap="round" stroke-linejoin="round" stroke-miterlimit="10" d="M46.185,167.019
			c0,0,8.2,2.25,13.638,3.562c5.438,1.312,10.312,2.459,10.312,2.459"/>
		
			<path fill="none" stroke="#332E2E" stroke-width="0.5" stroke-linecap="round" stroke-linejoin="round" stroke-miterlimit="10" d="
			M54.331,136.168c0,0-2.008,7.851-3.32,10.726s-1.685,9.133-1.625,9.75"/>
		
			<path fill="none" stroke="#332E2E" stroke-width="0.5" stroke-linecap="round" stroke-linejoin="round" stroke-miterlimit="10" d="
			M51.73,136.787c0,0-3.095,10.979-3.47,12.104s-1.904,6.125-0.842,6.938"/>
		
			<path fill="none" stroke="#332E2E" stroke-width="0.5" stroke-linecap="round" stroke-linejoin="round" stroke-miterlimit="10" d="
			M46.643,93.648c4.257,11.941,8.658,19.583,7.743,32.62"/>
		
			<path fill="none" stroke="#332E2E" stroke-width="0.5" stroke-linecap="round" stroke-linejoin="round" stroke-miterlimit="10" d="
			M66.404,65.099c-1.685-1.202-3.685-1.935-11.889,7.481c-8.075,9.268-8.629,27.375-8.504,31.062"/>
		
			<path fill="none" stroke="#332E2E" stroke-width="0.5" stroke-linecap="round" stroke-linejoin="round" stroke-miterlimit="10" d="
			M46.378,96.757c0,0,5.445,14.261,5.757,20.949c0.312,6.688,0.312,8.562,0.312,8.562"/>
		<g>
			<path fill="#332E2E" d="M78.948,69.018c-0.393-1.523-0.703-3.07-0.933-4.631c-0.223-1.562-0.372-3.143-0.295-4.742
				c0.006-0.138,0.124-0.244,0.261-0.238c0.138,0.006,0.245,0.124,0.238,0.262c0,0.004-0.001,0.011-0.001,0.015
				c-0.155,1.541-0.094,3.114,0.045,4.674C78.409,65.918,78.636,67.477,78.948,69.018z"/>
		</g>
		
			<path fill="none" stroke="#332E2E" stroke-width="0.5" stroke-linecap="round" stroke-linejoin="round" stroke-miterlimit="10" d="
			M77.969,60.081"/>
		
			<path fill="none" stroke="#332E2E" stroke-width="0.5" stroke-linecap="round" stroke-linejoin="round" stroke-miterlimit="10" d="
			M53.264,168.837c0,0,4.997,5.057,7.059,6.242c2.062,1.188,2.117,3.32,2.25,4.375"/>
		
			<path fill="none" stroke="#332E2E" stroke-width="0.5" stroke-linecap="round" stroke-linejoin="round" stroke-miterlimit="10" d="
			M70.135,187.019c0,0,8.686,6.688,12.187-2.688"/>
		
			<path fill="none" stroke="#332E2E" stroke-width="0.5" stroke-linecap="round" stroke-linejoin="round" stroke-miterlimit="10" d="
			M80.948,187.58c0,0,4.771,0-1.521-12"/>
		<g>
			<path fill="#332E2E" d="M76.367,179.214c0.803,0.527,1.59,1.076,2.359,1.648c0.763,0.582,1.537,1.152,2.252,1.811
				c0.179,0.164,0.356,0.33,0.526,0.518c0.085,0.094,0.168,0.188,0.249,0.309c0.039,0.059,0.083,0.129,0.11,0.246
				c0.01,0.037,0.022,0.17,0.011,0.238c-0.093,0.598-0.419,0.984-0.728,1.379c-0.655,0.75-1.461,1.375-2.448,1.686
				c-0.071,0.021-0.149,0.002-0.204-0.041c-1.712-1.371-3.387-2.791-5.025-4.258c1.805,1.256,3.574,2.557,5.305,3.904l-0.203-0.039
				c0.847-0.273,1.596-0.895,2.202-1.57c0.291-0.336,0.586-0.744,0.64-1.105c0.004-0.051,0.009-0.037-0.003-0.116
				c-0.002,0-0.014-0.036-0.042-0.077c-0.05-0.08-0.123-0.168-0.197-0.254c-0.151-0.172-0.319-0.338-0.49-0.498
				C79.305,181.687,77.813,180.474,76.367,179.214z"/>
		</g>
		<path fill="none" stroke="#332E2E" stroke-linecap="round" stroke-linejoin="round" stroke-miterlimit="10" d="M79.135,175.269
			c0,0,3.888,1.029,2.514,2.062"/>
		
			<path fill="none" stroke="#332E2E" stroke-width="0.5" stroke-linecap="round" stroke-linejoin="round" stroke-miterlimit="10" d="
			M87.885,129.331c-11.657,16.499-11.909,23.583-11.909,24.083"/>
		<g>
			<path fill="#332E2E" d="M186.76,201.769c0.15-0.305,0.427-0.539,0.763-0.67c0.338-0.145,0.75-0.115,1.084,0.031
				c0.334,0.154,0.606,0.395,0.802,0.672c0.194,0.277,0.344,0.576,0.418,0.902c-0.494-0.438-0.914-0.896-1.418-1.115
				C187.918,201.351,187.349,201.451,186.76,201.769z"/>
		</g>
		<g>
			<path fill="#332E2E" d="M178.196,204.494c-0.065-0.313-0.059-0.629-0.022-0.943c0.033-0.313,0.117-0.622,0.267-0.926
				c0.084-0.147,0.179-0.299,0.324-0.428c0.146-0.121,0.371-0.23,0.586-0.185c0.42,0.098,0.599,0.405,0.724,0.69
				c-0.267-0.158-0.548-0.336-0.75-0.308c-0.171,0.026-0.316,0.209-0.438,0.457C178.631,203.341,178.469,203.921,178.196,204.494z"
				/>
		</g>
		<path fill="none" stroke="#332E2E" stroke-width="0.5" stroke-miterlimit="10" d="M216.219,155.394"/>
		
			<path fill="none" stroke="#332E2E" stroke-width="0.5" stroke-linecap="round" stroke-linejoin="round" stroke-miterlimit="10" d="
			M96.808,108.124c-0.333-0.671-0.798-1.293-0.798-1.293l-8.25-14.917c0,0-4.639-9.854-9.326-18.667S75.385,61.83,75.385,61.83
			s0.562-2.562-7.75,1.188c0,0-2,0.438-1.062,2.562c0,0,5.938,19.875,10.25,25.938c4.312,6.063,13.229,24.375,13.229,24.375
			s1.086,2.188-1.333,5.521"/>
		<g>
			<path fill="#332E2E" d="M97.552,111.512c-0.375,2.597-1.099,5.143-2.083,7.584c-0.99,2.436-2.27,4.774-3.922,6.85
				c-0.824,1.037-1.751,1.997-2.768,2.854c-1.021,0.863-2.13,1.588-3.25,2.285c-1.128,0.689-2.312,1.314-3.569,1.782
				c-1.257,0.473-2.562,0.751-3.819,1.071l-0.039,0.01h-0.009c-5.129,0.625-10.263,1.201-15.4,1.762l-3.856,0.41l-1.938,0.182
				c-0.624,0.053-1.257,0.139-1.888,0.234c-1.262,0.195-2.521,0.441-3.761,0.738c-0.619,0.15-1.235,0.314-1.83,0.51
				c-0.59,0.212-1.194,0.381-1.5,0.768c-0.155,0.197-0.44,0.231-0.638,0.076c-0.062-0.049-0.107-0.107-0.136-0.177l-0.016-0.037
				c-0.431-1.013-0.452-1.967-0.491-2.918c-0.021-0.95,0.033-1.89,0.112-2.819c0.165-1.863,0.429-3.697,0.769-5.538
				c0.031-0.173,0.153-0.306,0.305-0.361l0.396-0.146c0.029-0.011,0.064-0.021,0.094-0.022c2.397-0.354,4.793-0.683,7.198-0.979
				c2.417-0.271,4.786-0.609,7.292-0.613c4.819,0.206,9.644,0.264,14.422-0.281c4.74-0.562,9.557-1.697,13.523-4.412
				c1.964-1.353,3.631-3.16,4.718-5.301c0.55-1.066,0.952-2.206,1.236-3.375c0.144-0.584,0.253-1.178,0.335-1.776
				c0.023-0.299,0.111-0.601,0.062-0.895c-0.048-0.296-0.166-0.579-0.292-0.853c0.136,0.269,0.264,0.547,0.324,0.847
				c0.062,0.306-0.017,0.607-0.028,0.908c-0.061,0.603-0.148,1.203-0.272,1.797c-0.242,1.189-0.625,2.353-1.152,3.452
				c-1.045,2.207-2.702,4.109-4.678,5.55c-1.974,1.456-4.236,2.47-6.556,3.213c-2.325,0.744-4.723,1.222-7.134,1.542
				c-4.827,0.639-9.708,0.662-14.542,0.461c-2.331,0.014-4.765,0.363-7.146,0.646c-2.392,0.31-4.784,0.649-7.167,1.015l0.093-0.022
				l-0.395,0.146l0.305-0.357c-0.321,1.795-0.575,3.623-0.724,5.439c-0.072,0.91-0.115,1.82-0.104,2.721
				c0.02,0.883,0.08,1.819,0.384,2.52l-0.79-0.137l0.172-0.172c0.092-0.094,0.185-0.158,0.27-0.213
				c0.173-0.111,0.333-0.186,0.496-0.262c0.322-0.141,0.639-0.252,0.956-0.354c0.634-0.201,1.269-0.366,1.906-0.518
				c1.273-0.299,2.552-0.541,3.843-0.734c0.646-0.096,1.293-0.182,1.957-0.231l1.92-0.169l3.852-0.389l15.412-1.606l-0.048,0.009
				c1.286-0.308,2.559-0.558,3.768-0.988c1.211-0.426,2.367-1.012,3.485-1.67c1.114-0.67,2.22-1.366,3.216-2.184
				c1.003-0.814,1.917-1.74,2.756-2.729c1.672-1.988,3.001-4.262,4.048-6.653C96.27,116.6,97.078,114.091,97.552,111.512z"/>
		</g>
		
			<polyline fill="none" stroke="#332E2E" stroke-width="0.5" stroke-linecap="round" stroke-linejoin="round" stroke-miterlimit="10" points="
			18.01,122.998 16.385,125.123 18.987,127.276 20.469,125.137 		"/>
		
			<path fill="none" stroke="#332E2E" stroke-width="0.5" stroke-linecap="round" stroke-linejoin="round" stroke-miterlimit="10" d="
			M37.885,82.331c0,0,3.821,16.506,5.333,19.917c1.336,3.013,1.386,4.181,2.135,5.848"/>
		
			<polyline fill="none" stroke="#332E2E" stroke-width="0.5" stroke-linecap="round" stroke-linejoin="round" stroke-miterlimit="10" points="
			21.073,125.456 19.927,127.081 19.109,127.437 		"/>
		
			<path fill="none" stroke="#332E2E" stroke-width="0.5" stroke-linecap="round" stroke-linejoin="round" stroke-miterlimit="10" d="
			M41.385,101.706c0,0-0.792-1.667-4.458,2.417l-16.208,20.583"/>
		
			<path fill="none" stroke="#332E2E" stroke-width="0.5" stroke-linecap="round" stroke-linejoin="round" stroke-miterlimit="10" d="
			M66.404,65.956c0,0-2.639-2.531-11.889,6.625"/>
		
			<path fill="none" stroke="#332E2E" stroke-width="0.5" stroke-linecap="round" stroke-linejoin="round" stroke-miterlimit="10" d="
			M113.658,119.623c0,0,2.757,3.542,5.514,3.583"/>
		<g>
			<path fill="#332E2E" d="M115.352,126.471c-0.067,0.164-0.274,0.197-0.435,0.226c-0.172,0.027-0.351,0.035-0.531,0.023
				c-0.171-0.018-0.363-0.05-0.544-0.125c-0.088-0.043-0.18-0.093-0.266-0.173c-0.042-0.056-0.085-0.083-0.119-0.169
				c-0.029-0.089-0.075-0.12-0.016-0.338c0.02-0.029,0.026-0.068,0.132-0.162c0.104-0.086,0.133-0.07,0.203-0.104
				c0.113-0.03,0.218-0.028,0.315-0.023c0.198,0.021,0.366,0.084,0.542,0.156c0.148,0.072,0.314,0.171,0.447,0.279
				C115.208,126.166,115.373,126.293,115.352,126.471z M115.352,126.471c0.01-0.178-0.162-0.287-0.307-0.349
				c-0.158-0.061-0.31-0.079-0.484-0.099c-0.151-0.004-0.317,0.006-0.456,0.034c-0.07,0.011-0.133,0.032-0.181,0.051
				c-0.004,0.005-0.064,0.032-0.021,0.009c0.029-0.051-0.002-0.014-0.021,0.032c0.057-0.133,0.007-0.079,0.022-0.093
				c-0.012-0.003,0.018,0.023,0.021,0.037c0.032,0.041,0.077,0.09,0.134,0.133c0.11,0.094,0.234,0.178,0.388,0.252
				c0.146,0.065,0.302,0.125,0.467,0.148C115.072,126.643,115.274,126.632,115.352,126.471z"/>
		</g>
		<g>
			<path fill="#332E2E" d="M126.371,130.747c-0.088,0.27-0.424,0.379-0.725,0.383c-0.262-0.009-0.779-0.113-0.74-0.707
				c0.041-0.109,0.02-0.062,0.066-0.146c0.041-0.064,0.096-0.127,0.137-0.15c0.09-0.068,0.188-0.094,0.275-0.109
				c0.182-0.022,0.346,0.021,0.49,0.078C126.143,130.224,126.408,130.467,126.371,130.747z M126.371,130.747
				c0.029-0.311-0.322-0.424-0.551-0.408c-0.248-0.002-0.457,0.184-0.426,0.193c-0.029-0.006,0.07,0.25,0.305,0.354
				C125.896,130.997,126.27,131.039,126.371,130.747z"/>
		</g>
		
			<path fill="none" stroke="#332E2E" stroke-width="0.5" stroke-linecap="round" stroke-linejoin="round" stroke-miterlimit="10" d="
			M118.448,127.706c0,0,0.875,1,1.312,1.125c0.437,0.125-0.312,0.5-0.312,0.5s-1,0-1-0.812
			C118.448,127.707,118.448,127.706,118.448,127.706z"/>
		
			<polyline fill="none" stroke="#332E2E" stroke-width="0.5" stroke-linecap="round" stroke-linejoin="round" stroke-miterlimit="10" points="
			110.448,194.076 110.415,196.414 108.76,196.705 		"/>
		
			<path fill="none" stroke="#332E2E" stroke-width="0.5" stroke-linecap="round" stroke-linejoin="round" stroke-miterlimit="10" d="
			M130.135,181.621c1.638,5.162,4.742,14.151,9.604,17.262"/>
		<g>
			<path fill="#332E2E" d="M79.198,56.962c-0.062,1.718,0.013,3.46,0.214,5.18c0.208,1.719,0.544,3.434,1.16,5.064
				c-0.694-1.599-1.115-3.308-1.408-5.029c-0.285-1.726-0.445-3.466-0.466-5.228c-0.001-0.138,0.109-0.251,0.247-0.253
				c0.138-0.001,0.251,0.109,0.253,0.247c0,0.004,0,0.008,0,0.011V56.962z"/>
		</g>
		
			<path fill="none" stroke="#332E2E" stroke-width="0.5" stroke-linecap="round" stroke-linejoin="round" stroke-miterlimit="10" d="
			M163.752,206.24c0,0-1.256,0.59-2.168-1.16"/>
		
			<path fill="none" stroke="#332E2E" stroke-width="0.5" stroke-linecap="round" stroke-linejoin="round" stroke-miterlimit="10" d="
			M50.575,168.104c0,0,6.186,12.018,11.998,9.664"/>
		<g>
			<path fill="#332E2E" d="M107.237,130.603c0.536,1.012,1.25,1.92,2.021,2.756c0.772,0.841,1.628,1.599,2.544,2.271
				c0.92,0.669,1.905,1.231,2.899,1.776c0.988,0.562,2.023,1.033,3.067,1.527c0.013,0.006,0.018,0.021,0.012,0.032
				c-0.005,0.013-0.017,0.017-0.027,0.015c-1.138-0.225-2.229-0.64-3.282-1.129c-1.051-0.502-2.009-1.181-2.913-1.904
				c-0.904-0.729-1.742-1.536-2.487-2.422c-0.733-0.896-1.397-1.853-1.878-2.901c-0.006-0.013,0-0.026,0.012-0.033
				C107.215,130.583,107.231,130.59,107.237,130.603z"/>
		</g>
		<g>
			<path fill="#332E2E" d="M116.166,134.188c1.748,1.773,3.657,3.395,5.702,4.791c1.031,0.69,2.111,1.291,3.205,1.854
				c1.09,0.57,2.232,1.021,3.439,1.35c0.014,0.004,0.021,0.018,0.02,0.029s-0.016,0.021-0.025,0.021
				c-1.264-0.043-2.494-0.443-3.65-0.947c-1.156-0.521-2.207-1.232-3.217-1.977c-2.023-1.49-3.863-3.207-5.51-5.086
				c-0.009-0.012-0.008-0.025,0.002-0.035C116.141,134.179,116.157,134.181,116.166,134.188z"/>
		</g>
		<g>
			<path fill="#332E2E" d="M138.938,49.834c1.396-1.834,2.828-3.64,4.313-5.402c1.479-1.768,3.021-3.483,4.586-5.18
				c1.593-1.667,3.209-3.317,4.933-4.858c1.719-1.536,3.524-3.006,5.53-4.151c-0.956,0.643-1.854,1.363-2.721,2.117
				c-0.877,0.742-1.724,1.52-2.552,2.316c-1.655,1.59-3.268,3.229-4.827,4.918c-1.589,1.663-3.121,3.379-4.66,5.089L138.938,49.834z
				"/>
		</g>
		<g>
			<path fill="#332E2E" d="M96.467,107.992c1.377-2.429,2.932-4.741,4.48-7.057c1.597-2.282,3.189-4.567,4.95-6.735
				c-1.419,2.405-2.99,4.703-4.538,7.017C99.763,103.499,98.187,105.793,96.467,107.992z"/>
		</g>
	</g>
</g>
</svg>
