<?xml version="1.0" encoding="utf-8"?>
<!-- Generator: Adobe Illustrator 15.1.0, SVG Export Plug-In . SVG Version: 6.00 Build 0)  -->
<!DOCTYPE svg PUBLIC "-//W3C//DTD SVG 1.1//EN" "http://www.w3.org/Graphics/SVG/1.1/DTD/svg11.dtd">
<svg version="1.1" id="Layer_1" xmlns="http://www.w3.org/2000/svg" xmlns:xlink="http://www.w3.org/1999/xlink" x="0px" y="0px"
	 width="151px" height="151px" viewBox="-0.341 -0.307 151 151" enable-background="new -0.341 -0.307 151 151"
	 xml:space="preserve">
<g id="other">
	<g>
		<path fill="none" stroke="#020202" d="M102.908,65.132h-1.346c-0.064-0.235-0.117-0.555-0.16-0.961
			c0-0.235-0.032-0.555-0.096-0.961c-0.086-0.534-0.289-2.35-0.609-5.448l-0.192-1.987l-0.063-0.449c0-0.149,0.056-0.363,0.16-0.641
			c0.576-0.384,1.463-0.609,2.659-0.673c3.247-0.17,5.416-0.449,6.507-0.833c1.561-0.534,2.707-1.346,3.443-2.436
			c0.736-1.09,1.105-2.382,1.105-3.877c0-2.564-0.914-4.828-2.739-6.794c-1.827-1.965-3.659-2.948-5.496-2.948
			c-0.599,0-1.741,0.192-3.429,0.577c-1.176,0.256-1.937,0.385-2.275,0.385c-0.791,0-1.41-0.203-1.857-0.609
			c-0.449-0.406-0.674-0.94-0.674-1.603c0-0.79,0.256-1.388,0.771-1.794c0.787-0.598,1.91-0.897,3.363-0.897
			c1.367,0,2.91,0.332,4.631,0.994c1.721,0.663,3.562,2.008,5.527,4.038c1.432,1.432,2.547,3.146,3.348,5.144
			c0.805,1.998,1.203,3.894,1.203,5.688c0,1.496-0.318,2.911-0.963,4.246c-0.641,1.335-1.341,2.339-2.099,3.012
			c-0.759,0.673-1.704,1.213-2.836,1.618c-0.534,0.192-1.955,0.438-4.263,0.737c-1.068,0.149-1.821,0.374-2.26,0.673
			c-0.439,0.299-0.766,0.705-0.979,1.218c-0.062,0.171-0.142,0.897-0.228,2.179C102.982,64.01,102.93,64.812,102.908,65.132z
			 M99.191,72.983c0-1.025,0.287-1.826,0.865-2.403c0.769-0.748,1.603-1.122,2.498-1.122c0.791,0,1.508,0.342,2.146,1.025
			c0.641,0.684,0.961,1.518,0.961,2.5c0,0.961-0.306,1.731-0.913,2.308c-0.605,0.576-1.438,0.865-2.48,0.865
			c-0.748,0-1.447-0.326-2.102-0.979C99.518,74.527,99.191,73.795,99.191,72.983z"/>
	</g>
	<g>
		<path fill="none" stroke="#000000" stroke-width="0.8288" stroke-miterlimit="10" d="M132.205,104.273
			c2.643,4.979-3.176,10.867-10.65,10.506c-2.451,1.484-3.724,1.211-4.628,1.52c-0.935,0.32-9.151-0.033-9.151-0.033l-3.451,0.76
			c-3.315,1.312-9.29-1.002-9.29-1.002c-1.937,1.002-3.315,1.105-3.315,1.105c-5.354,0.967-9.842-2.314-10.257-1.797
			c-0.414,0.518-2.832,1.002-2.832,1.002c-4.766,1.002-7.804-0.727-7.807-0.727c-2.392-0.521-5.694-0.98-7.562-1.48
			c-2.105-0.562-4.148-1.445-6.284-1.902c-1.934-0.414-6.769-3.938-6.769-3.938c-0.933-0.725-7.874-9.739-7.874-9.739
			c-0.003-0.001-0.006-0.001-0.01-0.001c-3.854-0.617-11.552-4.617-14.909-4.246c-0.934,0.104-7.667-3.523-10.153-4.869
			c-0.214-0.117-0.417-0.266-0.609-0.438"/>
		<path fill="none" stroke="#000000" stroke-width="0.4144" stroke-miterlimit="10" d="M16.649,88.992
			c-1.989-1.811-2.777-6.411-2.809-6.6c0-0.004,0-0.009-0.002-0.018c-2.064-12.455,6.355-21.63,8.29-33.042
			c1.036-6.113,4.662-6.113,4.662-6.113s8.846-0.514,8.91-0.518c3.501-0.203,3.339,4.625,5.544,5.168
			c2.743,0.676,15.301,8.003,17.111,8.404c10.292,2.28,13.192,3.993,20.721,14.505c3.441,4.805,9.193,8.196,13.262,12.433
			c2.107,2.195,4.947,3.246,7.771,4.156c0.752,0.243,6.382,1.796,5.662,3.231c0.242-0.035,6.525,3.178,6.525,3.178
			c4.561,2.693,14.194,6.078,14.195,6.078c3.011,1.193,4.83,2.752,5.711,4.412"/>
		<path d="M39.938,60.919c-1.007,0-1.98-0.075-2.915-0.246c-8.344-1.522-12.571-9.733-12.747-10.082
			c-0.104-0.205,0.339-0.989,0.544-1.092c0.204-0.103,0.009,0.501,0.196,0.718c0.06,0.069,4.225,8.194,12.156,9.64
			c4.104,0.749,9.125-0.447,14.441-1.713c2.835-0.675,5.743-1.027,8.68-1.466c0.227-0.034,0.401-0.026,0.495,0.003
			c0.219,0.068,0.119,0.17-0.107,0.204c-2.902,0.433-6.058,1.394-8.876,2.065C47.583,59.957,43.543,60.919,39.938,60.919z"/>
		
			<path fill="none" stroke="#000000" stroke-width="0.4144" stroke-linecap="round" stroke-linejoin="round" stroke-miterlimit="10" d="
			M57.586,57.197c-5.077-2.618-8.929-4.412-10.089-4.913c-3.478-1.502-7.105-2.456-10.839-3.05
			c-0.839-0.134-13.899-1.862-11.785,1.811"/>
		<path d="M46.61,97.223c-0.608-3.353,4.179-11.771,4.895-12.934c-0.421-4.297-1.948-7.381-4.539-9.169
			c-3.032-2.092-7.582-2.379-13.159-0.831c-3.327,0.924-6.413,0.071-8.691-2.403c-2.296-2.495-3.451-6.459-2.573-8.837
			c0.369-1.001,1.088-1.614,2.022-1.727c4.512-0.542,10.14-2.026,10.196-2.041l0.212,0.801c-0.057,0.016-5.739,1.513-10.31,2.063
			c-0.628,0.076-1.08,0.477-1.344,1.191c-0.684,1.853,0.12,5.505,2.406,7.988c1.455,1.58,3.999,3.239,7.859,2.167
			c5.82-1.617,10.61-1.289,13.852,0.947c2.83,1.953,4.48,5.289,4.907,9.914l0.013,0.142l-0.074,0.116
			c-0.058,0.095-5.815,9.65-5.232,12.865L46.61,97.223z"/>
		<g>
			<path d="M74.928,101.561c0.994,1.021,1.98,2.043,2.952,3.086c0.954,1.062,1.908,2.105,2.794,3.258
				c0.857,1.146,1.69,2.472,1.792,4.033c0.032,0.771-0.099,1.562-0.444,2.236c-0.344,0.68-0.846,1.244-1.432,1.67
				c-0.02,0.014-0.045,0.01-0.059-0.008c-0.012-0.016-0.012-0.035,0-0.051c0.842-1.154,1.332-2.469,1.113-3.771
				c-0.182-1.291-0.758-2.561-1.52-3.725c-0.777-1.15-1.688-2.264-2.562-3.371c-0.888-1.109-1.787-2.211-2.695-3.303
				c-0.016-0.018-0.013-0.043,0.005-0.059C74.889,101.543,74.913,101.545,74.928,101.561z"/>
		</g>
		<g>
			<path d="M87.021,100.148c0.949,1.436,2.199,2.608,3.511,3.707c1.304,1.104,2.659,2.199,3.807,3.539
				c1.146,1.348,2.11,2.83,2.517,4.655c0.156,0.933-0.057,1.943-0.604,2.685c-0.521,0.76-1.263,1.285-2.007,1.709
				c-0.021,0.012-0.046,0.006-0.06-0.014c-0.012-0.021-0.006-0.039,0.006-0.056c0.637-0.586,1.236-1.192,1.609-1.914
				c0.368-0.719,0.487-1.51,0.301-2.269c-0.188-0.725-0.604-1.518-0.971-2.243c-0.39-0.734-0.82-1.451-1.334-2.117
				c-1.016-1.342-2.298-2.479-3.551-3.66c-1.248-1.185-2.439-2.479-3.295-3.979c-0.012-0.021-0.006-0.045,0.014-0.059
				C86.982,100.125,87.008,100.131,87.021,100.148z"/>
		</g>
		<g>
			<path d="M99.824,100.762c0.572,0.438,1.189,0.834,1.848,1.105c0.337,0.141,0.654,0.207,1.023,0.217
				c0.42,0.068,0.74,0.252,1.066,0.436c1.271,0.771,2.344,1.797,3.436,2.728l-0.033-0.022c1.008,0.649,1.852,1.469,2.57,2.414
				c0.705,0.948,1.252,2.063,1.438,3.268c0.18,1.16,0.121,2.451-0.445,3.562c-0.295,0.55-0.744,1.013-1.263,1.322
				c-0.522,0.31-1.106,0.467-1.68,0.521c-0.022,0.004-0.043-0.013-0.046-0.035c-0.004-0.021,0.01-0.039,0.027-0.045
				c1.082-0.353,2.018-1.051,2.381-2.037c0.41-0.973,0.346-2.074,0.185-3.146c-0.187-1.053-0.587-2.073-1.19-2.987
				c-0.6-0.908-1.395-1.73-2.271-2.36l-0.03-0.021l-0.003-0.003c-1.069-1.008-2.084-2.034-3.256-2.854
				c-0.288-0.193-0.61-0.386-0.911-0.451c-0.354-0.027-0.756-0.136-1.08-0.299c-0.67-0.324-1.263-0.761-1.812-1.238
				c-0.021-0.015-0.021-0.041-0.006-0.058C99.781,100.75,99.809,100.748,99.824,100.762z"/>
		</g>
		<g>
			<path d="M106.867,96.753c2.929,1.985,5.863,3.962,8.938,5.685c0.766,0.435,1.545,0.863,2.321,1.248
				c0.785,0.385,1.604,0.728,2.408,1.148c0.8,0.42,1.601,0.936,2.229,1.668c0.633,0.723,1.027,1.646,1.186,2.57l0.008,0.047v0.018
				c-0.016,0.664-0.109,1.271-0.255,1.889c-0.146,0.611-0.353,1.211-0.647,1.771c-0.562,1.123-1.472,2.088-2.582,2.615
				c-0.021,0.012-0.047,0.002-0.057-0.021c-0.009-0.019-0.003-0.039,0.014-0.052c0.979-0.711,1.694-1.69,2.122-2.774
				c0.212-0.543,0.367-1.105,0.474-1.681c0.104-0.567,0.154-1.172,0.136-1.721l0.008,0.065c-0.188-0.811-0.524-1.559-1.056-2.178
				c-0.514-0.627-1.2-1.125-1.94-1.562c-0.743-0.438-1.541-0.818-2.331-1.236c-0.793-0.434-1.547-0.883-2.307-1.35
				c-1.52-0.926-2.995-1.9-4.438-2.934c-1.438-1.033-2.855-2.095-4.273-3.15c-0.02-0.014-0.021-0.039-0.008-0.059
				C106.823,96.744,106.85,96.74,106.867,96.753z"/>
		</g>
		<path d="M52.381,105.387c-0.021,0-0.041-0.002-0.061-0.006c-0.168-0.033-0.278-0.197-0.245-0.365
			c1.262-6.414,8.883-9.43,9.207-9.555l0.029-0.01c5.921-1.631,7.496-3.258,7.816-3.674c-1.091-2.838-0.754-5.213,1.001-7.062
			c3.538-3.73,11.976-4.131,16.002-2.762c2.524,0.859,4.892,2.959,7.179,4.988c3.338,2.961,6.828,6.192,10.707,5.188
			c1.728-0.445,1.477-2.375,1.065-2.596c-0.503-0.273,0.144-0.062,0.329,0.154c0.109,0.129,0.316,0.121,0.326,0.293
			c0.006,0.1,0.109,2.395-1.594,2.756c-0.496,0.104-0.983,0.154-1.463,0.154c-3.603,0-6.738-2.785-9.785-5.488
			c-2.24-1.986-4.561-4.045-6.965-4.862c-3.925-1.335-12.099-0.831-15.354,2.603c-1.604,1.688-1.878,3.896-0.814,6.557l-0.008,0.249
			c-0.04,0.085-1.074,2.116-8.263,4.099c-0.361,0.146-7.636,3.137-8.807,9.089C52.656,105.283,52.526,105.387,52.381,105.387z"/>
		<path fill="none" stroke="#000000" stroke-width="0.4144" stroke-miterlimit="10" d="M13.839,82.386
			c2.954,4.628,11.693,7.242,15.698,12.082"/>
		<path d="M41.489,97.67c-0.119-0.167-0.227-0.343-0.31-0.533c-0.083-0.188-0.144-0.396-0.137-0.611
			c0.004-0.217,0.096-0.436,0.249-0.59c0.151-0.156,0.34-0.263,0.533-0.34c0.388-0.154,0.801-0.227,1.217-0.229
			c0.835-0.008,1.646,0.277,2.354,0.693c0.712,0.42,1.337,0.97,1.889,1.573c1.101,1.218,1.906,2.691,2.516,4.183
			c0.668,1.432,1.803,2.604,3.1,3.51c1.304,0.9,2.772,1.576,4.287,2.029c0.102,0.024,0.243,0.086,0.334,0.139
			c0.1,0.053,0.192,0.105,0.282,0.161c0.18,0.11,0.352,0.228,0.521,0.345c0.338,0.232,0.667,0.475,0.99,0.723
			c0.645,0.492,1.278,0.996,1.912,1.502c0.628,0.51,1.257,1.019,1.889,1.517c0.315,0.25,0.632,0.498,0.952,0.737
			c0.321,0.232,0.647,0.479,0.974,0.656c0.727,0.352,1.436,0.76,2.147,1.133c0.355,0.189,0.712,0.379,1.074,0.556
			c0.364,0.168,0.729,0.344,1.116,0.438h0.001c0.017,0.006,0.026,0.021,0.022,0.037c-0.003,0.018-0.019,0.025-0.033,0.021
			c-0.41-0.055-0.797-0.193-1.177-0.338c-0.381-0.146-0.756-0.303-1.128-0.465c-0.744-0.33-1.461-0.688-2.214-0.994
			c-0.396-0.188-0.73-0.414-1.071-0.646c-0.338-0.229-0.668-0.467-0.996-0.705c-0.655-0.479-1.297-0.975-1.941-1.465
			c-0.639-0.496-1.275-0.992-1.918-1.478c-0.321-0.241-0.639-0.485-0.963-0.717c-0.161-0.115-0.324-0.229-0.487-0.332
			c-0.081-0.055-0.163-0.104-0.241-0.146c-0.086-0.045-0.131-0.063-0.225-0.099c-1.57-0.512-3.06-1.241-4.396-2.215
			c-1.33-0.965-2.5-2.219-3.179-3.746c-0.166-0.381-0.302-0.752-0.472-1.11c-0.167-0.363-0.347-0.724-0.542-1.068
			c-0.392-0.692-0.844-1.354-1.366-1.959c-0.52-0.603-1.11-1.146-1.784-1.565c-0.67-0.418-1.436-0.707-2.226-0.725
			c-0.392-0.007-0.791,0.057-1.159,0.188c-0.183,0.064-0.356,0.16-0.49,0.294c-0.135,0.131-0.216,0.309-0.226,0.495
			c-0.015,0.386,0.183,0.76,0.4,1.086c0.226,0.328,0.59,0.472,0.882,0.744l-0.096,0.164C42.365,98.537,41.729,98.001,41.489,97.67z"
			/>
		<path fill="none" stroke="#000000" stroke-width="0.4144" stroke-miterlimit="10" d="M41.244,47.873c0,0-5.544-0.506-6.166-0.713
			s-8.597-1.14-10.463,0.829c-1.866,1.969-2.913,3.419-2.913,3.419"/>
		
			<ellipse fill="none" stroke="#000000" stroke-width="0.6216" stroke-miterlimit="10" cx="26.894" cy="65.55" rx="0.518" ry="0.777"/>
		
			<ellipse fill="none" stroke="#000000" stroke-width="0.6216" stroke-miterlimit="10" cx="28.344" cy="69.124" rx="0.414" ry="0.726"/>
		
			<ellipse fill="none" stroke="#000000" stroke-width="0.6216" stroke-miterlimit="10" cx="29.949" cy="71.196" rx="0.412" ry="0.518"/>
		<path fill="none" stroke="#000000" stroke-width="0.4144" stroke-miterlimit="10" d="M21.751,51.205
			c0,0-1.065-17.406,2.864-15.546c2.626,1.243,1.803,6.677,0.724,8.014"/>
		<path fill="none" stroke="#000000" stroke-width="0.4144" stroke-miterlimit="10" d="M24.615,35.659l10.152-0.043
			c2.901,0.475,1.419,7.094,1.419,7.094"/>
		
			<path fill="none" stroke="#000000" stroke-width="0.4144" stroke-linecap="round" stroke-linejoin="round" stroke-miterlimit="10" d="
			M51.932,58.452c0,0-13.938-8.668-26.855-7.044"/>
	</g>
</g>
<g id="frame">
	<circle fill="none" stroke="#000000" stroke-width="2" stroke-miterlimit="10" cx="75.159" cy="75.193" r="74.5"/>
</g>
</svg>
