<?xml version="1.0" encoding="utf-8"?>
<!-- Generator: Adobe Illustrator 15.1.0, SVG Export Plug-In . SVG Version: 6.00 Build 0)  -->
<!DOCTYPE svg PUBLIC "-//W3C//DTD SVG 1.1//EN" "http://www.w3.org/Graphics/SVG/1.1/DTD/svg11.dtd">
<svg version="1.1" xmlns="http://www.w3.org/2000/svg" xmlns:xlink="http://www.w3.org/1999/xlink" x="0px" y="0px"
	 width="254.334px" height="254.334px" viewBox="0 0 254.334 254.334" enable-background="new 0 0 254.334 254.334"
	 xml:space="preserve">
<g id="Layer_1">
	<g id="borderAndBkg">
		<g id="borderAndBackground">
				<circle fill="#C1C1C1" stroke="#6897C5" stroke-width="4" stroke-linecap="round" stroke-linejoin="round" stroke-miterlimit="10" stroke-dasharray="1,8" cx="126" cy="124.667" r="124.667"/>
		</g>
	</g>
	<g id="targetlogo">
		<path d="M164.936,151.521c-1.885-0.601-3.566-0.99-5.753-0.66c-4.306,0.649-4.33,1.366-4.751,1.889l0.466,9.687
			c0.59-1.144,1.876-2.22,3.353-2.562c1.71-0.396,4.75-0.758,5.917,0.826l1.322-9.012"/>
		<path d="M165.356,151.647c0.133,0.042,0.265,0.086,0.396,0.133c1.516,0.535,2.9,1.342,4.122,2.511l6.271,15.532l-3.792,8.548
			c-0.353,1.946-0.394,4.421,0.688,6.796c0.372,0.817,1.191,0.294,0.559,0.938l-5.849-3.484l0.665-2.078
			c0.348-0.354,0.417-2.167,0.417-2.167c1.542-4.833,2.539-10.907-1.513-14.89c-0.957-0.939-1.97-2.242-3.154-2.784"/>
		<path d="M164.553,168.805c1.94,2.523-1.324,5.141-1.032,7.051c0.646,4.223-2.775,1.701-4.717-0.821
			c-1.94-2.524-4.858-5.343-2.336-7.284C158.992,165.809,162.61,166.281,164.553,168.805z"/>
	</g>
	<g id="shoelines">
		<path fill="#0C0C0C" d="M116.835,160.344l-3.08,2.649c-0.506,0.445-0.966,0.9-1.456,1.373l-1.443,1.396l-0.07,0.066l-0.129,0.033
			c-1.007,0.246-2.009,0.527-3.027,0.72l0.114-0.037c-0.713,0.312-1.447,0.587-2.188,0.841c-0.75,0.236-1.497,0.475-2.28,0.637
			l-0.043-0.096c0.641-0.48,1.316-0.882,1.99-1.283c0.682-0.385,1.373-0.754,2.082-1.076l0.05-0.023l0.065-0.014
			c1.013-0.215,2.046-0.342,3.071-0.5l-0.199,0.101l1.552-1.276c0.511-0.422,1.04-0.867,1.576-1.267l3.042-2.586L116.835,160.344z"
			/>
		<path fill="none" stroke="#0C0C0C" stroke-width="0.5229" stroke-miterlimit="10" d="M82.693,97.472
			c0.206-0.153,0.647,0.028,1.456,0.784c0.687,0.642,2.542-0.159,3.082,0.615c0,0,2.786,0.958,2.788,0.958
			c3.716,0,4.888-0.444,9.063,0.174l2.962-0.871h4.009c0,0,3.651-0.87,3.673-0.883c0.945-0.582,1.637-2.039,2.842-2.184
			c1.594-0.192,1.449,2.693,1.677,3.676l-1.133,0.871l1.133,1.219l-0.523,0.697l-0.348,0.785l0.174,1.307l0.261,1.046l-1.219,2.353
			l0.697,0.436l0.959,2.004v5.315l0.958,2.876v5.141l8.627,13.331c0,0,2.265,4.533-2.092,13.51l-2.788,6.883l-2.353,2.701"/>
		<path fill="none" stroke="#0C0C0C" stroke-width="0.5229" stroke-miterlimit="10" d="M82.698,108.893l-0.871-1.655l-0.741,0.609
			l1.089-4.879l1.395-1.57c0,0-1.496-3.467-0.877-3.926"/>
		<polyline fill="none" stroke="#0C0C0C" stroke-width="1.0457" stroke-miterlimit="10" points="66.752,138.521 75.64,118.391 
			82.698,108.893 		"/>
		<polyline fill="none" stroke="#0C0C0C" stroke-width="1.0457" stroke-miterlimit="10" points="51.938,166.231 51.366,161.699 
			52.635,154.729 52.722,152.549 62.307,142.79 66.752,138.521 		"/>
		<path fill="none" stroke="#0C0C0C" stroke-width="1.0457" stroke-miterlimit="10" d="M58.735,187.843l-10.894-2.833
			c0,0-3.572-3.835-2.701-7.758c0.871-3.918,6.797-11.022,6.797-11.022"/>
		<path fill="#0C0C0C" d="M68.826,190.708l-3.098-2.816c-0.657,0.125-2.49,0.482-3.451,0.773c-1.343,0.404-3.804-0.441-4.227-1.318
			l-0.323-0.541c0.563,0.215,3.398,1.055,4.263,0.795c1.233-0.375,3.698-0.826,3.802-0.849l0.243-0.044l3.001,2.729l4.066-1.64
			l10.176-2.519l6-2.924c0.242-0.185,7.808-5.709,9.047-6.367c0.725-0.383,2.466-3.658,3.486-5.889l1.365-3.507l1.174-0.558
			l-1.574,4.494c-0.435,0.955-2.67,5.75-3.984,6.445c-0.939,0.498-6.297,4.366-9,6.338l-6.179,3.008l-10.208,2.531L68.826,190.708z"
			/>
		<g>
			<path fill="#0C0C0C" d="M88.401,113.26l-4.019,11.261c-0.671,1.876-1.315,3.763-2.046,5.619
				c-0.742,1.848-1.477,3.699-2.315,5.517l-0.049-0.019c0.559-1.92,1.221-3.799,1.875-5.684c0.666-1.878,1.419-3.723,2.144-5.58
				l4.361-11.134L88.401,113.26z"/>
		</g>
		<g>
			<path fill="#0C0C0C" d="M77.844,143.931l-4.001,14.689c-0.321,1.227-0.64,2.455-0.927,3.688l-0.198,0.922
				c-0.029,0.152-0.057,0.307-0.072,0.449c-0.009,0.104-0.011,0.336-0.043,0.486c-0.115,0.65-0.301,1.259-0.484,1.871
				c-0.768,2.436-1.659,4.812-2.616,7.166l0.01-0.032c-0.672,2.664-1.371,5.322-2.125,7.966l-0.051-0.012
				c0.524-2.7,1.103-5.389,1.709-8.064l0.002-0.015l0.007-0.021c0.885-2.373,1.804-4.738,2.597-7.135
				c0.193-0.599,0.389-1.207,0.506-1.802c0.033-0.161,0.03-0.248,0.049-0.46c0.022-0.171,0.055-0.328,0.088-0.486l0.219-0.934
				c0.309-1.234,0.648-2.459,0.989-3.682c1.366-4.889,2.852-9.746,4.29-14.608L77.844,143.931z"/>
		</g>
		<g>
			<path fill="#0C0C0C" d="M84.815,134.172l-3.531,10.647c-0.591,1.774-1.153,3.56-1.802,5.312
				c-0.662,1.751-1.315,3.502-2.074,5.217l-0.05-0.019c0.477-1.813,1.058-3.591,1.629-5.371c0.585-1.776,1.257-3.521,1.901-5.276
				l3.876-10.527L84.815,134.172z"/>
		</g>
		<g>
			<path fill="#0C0C0C" d="M95.361,111.856l-0.562,21.745l-0.137,5.436c-0.054,1.794-0.013,3.621-0.024,5.43
				c-0.048,3.625-0.086,7.25-0.235,10.875H94.35c-0.149-3.625-0.188-7.25-0.235-10.875c0.013-1.816-0.026-3.615,0.03-5.447
				l0.236-5.432l0.927-21.731H95.361z"/>
		</g>
		<g>
			<path fill="#0C0C0C" d="M103.899,156.21c0.1,1.941,0.166,3.885,0.188,5.829c0.015,0.974,0.054,1.946-0.022,2.92
				c-0.113,0.964-0.129,1.965-0.558,2.888l-0.046-0.022c0.122-0.942,0.065-1.923,0.081-2.886c0.006-0.969,0.085-1.936,0.126-2.903
				l0.179-5.826L103.899,156.21L103.899,156.21z"/>
		</g>
		<g>
			<path fill="#0C0C0C" d="M103.106,109.308l3.032,2.447l0.011,0.009l0.012,0.018l2.065,2.921c0.687,0.975,1.402,1.931,2.055,2.928
				l-0.019-0.024c0.906,1.094,1.8,2.2,2.607,3.381l-0.04,0.034c-1.051-0.968-2.017-2.012-2.97-3.067l-0.007-0.009l-0.012-0.017
				c-0.684-0.977-1.305-1.996-1.954-2.996l-1.943-3.003l0.023,0.026l-2.894-2.607L103.106,109.308z"/>
		</g>
		<g>
			<path fill="#0C0C0C" d="M103.539,101.289c1.53,0.884,3.041,1.797,4.558,2.7l0.027,0.016l0.034,0.041
				c0.433,0.518,0.851,1.046,1.219,1.614c0.372,0.564,0.741,1.125,1.054,1.737l-0.042,0.032c-0.506-0.458-0.97-0.959-1.401-1.478
				c-0.441-0.512-0.832-1.062-1.208-1.621l0.061,0.056c-1.444-1.014-2.897-2.018-4.331-3.051L103.539,101.289z"/>
		</g>
		<g>
			<path fill="#0C0C0C" d="M109.638,105.035c0.834,0.346,1.642,0.738,2.468,1.1l0.12,0.053l0.017,0.178
				c0.022,0.247-0.007,0.494-0.043,0.741c-0.033,0.247-0.096,0.494-0.194,0.741h-0.053c-0.098-0.247-0.161-0.494-0.194-0.741
				c-0.036-0.247-0.066-0.494-0.043-0.741l0.135,0.23c-0.743-0.509-1.503-0.989-2.237-1.515L109.638,105.035z"/>
		</g>
		<g>
			<path fill="#0C0C0C" d="M106.234,101.286c0.839,0.157,1.681,0.302,2.516,0.475l1.256,0.247c0.419,0.082,0.841,0.146,1.251,0.264
				l0.053,0.016l0.035,0.023c0.275,0.189,0.525,0.416,0.789,0.622c0.25,0.227,0.502,0.451,0.731,0.709l-0.03,0.043
				c-0.324-0.12-0.624-0.272-0.925-0.424c-0.289-0.171-0.59-0.322-0.866-0.511l0.087,0.04c-0.417-0.085-0.823-0.224-1.231-0.346
				l-1.228-0.363c-0.82-0.234-1.634-0.495-2.45-0.745L106.234,101.286z"/>
		</g>
		<g>
			<path fill="#0C0C0C" d="M109.103,99.804c0.624-0.075,1.249-0.137,1.873-0.183c0.312-0.028,0.625-0.087,0.937-0.052
				c0.312,0.048,0.625,0.086,0.937,0.235v0.053c-0.312,0.15-0.624,0.187-0.937,0.235c-0.312,0.035-0.624-0.024-0.937-0.052
				c-0.625-0.047-1.249-0.107-1.873-0.183V99.804z"/>
		</g>
		<g>
			<path fill="#0C0C0C" d="M85.765,106.432l1.604-1.148l0.807-0.591c0.264-0.204,0.539-0.393,0.84-0.538l0.284-0.137l0.075,0.248
				c0.109,0.364,0.206,0.733,0.233,1.13l-0.049,0.02c-0.262-0.301-0.456-0.629-0.636-0.963l0.358,0.112
				c-0.259,0.214-0.546,0.383-0.845,0.536l-0.882,0.476c-0.293,0.159-0.583,0.323-0.884,0.472c-0.312,0.144-0.563,0.319-0.937,0.423
				L85.765,106.432z"/>
		</g>
		<g>
			<path fill="#0C0C0C" d="M94.872,107.391c1.212,0.881,2.39,1.803,3.592,2.697l0.047,0.035l0.032,0.08
				c0.168,0.414,0.298,0.84,0.404,1.275c0.118,0.431,0.198,0.874,0.248,1.329l-0.049,0.017c-0.241-0.388-0.451-0.788-0.625-1.199
				c-0.184-0.408-0.345-0.824-0.468-1.252l0.079,0.114c-1.093-1.024-2.21-2.019-3.293-3.055L94.872,107.391z"/>
		</g>
		<g>
			<path fill="#0C0C0C" d="M93.008,107.848c-0.142,0.793-0.349,1.557-0.531,2.334l-0.574,2.32l-1.187,4.629l0.005-0.019
				c-0.342,2.298-0.631,4.604-0.994,6.898c-0.382,2.292-0.796,4.578-1.323,6.847l-0.052-0.01c0.196-2.32,0.502-4.623,0.843-6.922
				c0.358-2.295,0.792-4.578,1.171-6.87l0.002-0.012l0.002-0.007l1.318-4.592l0.657-2.296c0.209-0.766,0.445-1.534,0.611-2.303
				L93.008,107.848z"/>
		</g>
		<g>
			<path fill="#0C0C0C" d="M87.256,136.171c-0.315,2.195-0.644,4.389-0.987,6.579c-0.169,1.089-0.291,2.208-0.559,3.284
				c-0.269,1.076-0.526,2.154-0.895,3.21l-0.052-0.011c0.074-1.114,0.259-2.209,0.434-3.305c0.2-1.092,0.431-2.162,0.659-3.253
				c0.434-2.175,0.883-4.346,1.347-6.515L87.256,136.171z"/>
		</g>
		<g>
			<path fill="#0C0C0C" d="M80.458,150.644l-5.827,15.147l0.012-0.039c-0.418,2.243-0.837,4.487-1.328,6.716
				c-0.489,2.229-0.99,4.455-1.569,6.664l-0.052-0.01c0.321-2.262,0.721-4.51,1.132-6.755c0.41-2.245,0.891-4.476,1.373-6.705
				l0.005-0.021l0.007-0.019l6.198-15.001L80.458,150.644z"/>
		</g>
		<g>
			<path fill="#0C0C0C" d="M66.166,157.616l-3.765,7.921l-0.008,0.019l-0.016,0.021c-0.913,1.146-1.798,2.314-2.737,3.438
				l0.041-0.066c-0.333,0.814-0.711,1.609-1.064,2.414c-0.377,0.796-0.75,1.593-1.164,2.373l-0.048-0.02
				c0.256-0.847,0.55-1.676,0.842-2.507c0.314-0.821,0.604-1.651,0.94-2.466l0.016-0.036l0.026-0.032
				c0.919-1.139,1.892-2.236,2.838-3.354l-0.024,0.037l4.078-7.766L66.166,157.616z"/>
		</g>
		<g>
			<path fill="#0C0C0C" d="M66.776,140.444l-1.69,4.892c-0.282,0.812-0.535,1.642-0.87,2.435c-0.343,0.791-0.696,1.578-1.1,2.346
				l-0.051-0.014c0.124-0.875,0.406-1.69,0.661-2.518c0.272-0.816,0.634-1.604,0.968-2.398c0.66-1.595,1.337-3.18,2.031-4.76
				L66.776,140.444z"/>
		</g>
		<g>
			<path fill="#0C0C0C" d="M83.678,110.913l-4.422,6.009l0.022-0.04l-2.383,6.357c-0.831,2.105-1.723,4.186-2.711,6.228
				l-0.049-0.021c0.668-2.167,1.431-4.299,2.255-6.405l2.583-6.279l0.009-0.024l0.013-0.016l4.641-5.842L83.678,110.913z"/>
		</g>
		<g>
			<path fill="#0C0C0C" d="M81.59,115.614c-0.375,0.934-0.764,1.861-1.165,2.782c-0.197,0.462-0.365,0.938-0.617,1.374
				c-0.265,0.43-0.52,0.863-0.875,1.247l-0.047-0.022c0.086-0.516,0.274-0.983,0.453-1.455c0.191-0.465,0.465-0.89,0.711-1.328
				c0.485-0.88,0.982-1.753,1.493-2.62L81.59,115.614z"/>
		</g>
		<g>
			<path fill="#0C0C0C" d="M94.378,102.461l6.639,0.488l0.025,0.002l0.029,0.011l1.924,0.761c0.639,0.265,1.276,0.521,1.896,0.874
				c0.079,0.045,0.156,0.09,0.24,0.149c0.045,0.035,0.079,0.052,0.147,0.125l0.074,0.092c0.102,0.115,0.226,0.234,0.347,0.351
				l0.758,0.689l1.526,1.387l-0.029,0.044c-0.614-0.329-1.178-0.729-1.744-1.127c-0.278-0.205-0.552-0.417-0.824-0.635
				c-0.136-0.111-0.27-0.22-0.407-0.353l-0.095-0.101c0.009,0.009-0.028-0.022-0.053-0.038c-0.057-0.038-0.13-0.079-0.2-0.118
				c-1.192-0.603-2.453-1.194-3.705-1.741l0.054,0.014l-6.606-0.819L94.378,102.461z"/>
		</g>
		<g>
			<path fill="#0C0C0C" d="M111.973,108.3c-0.458-0.002-0.913-0.018-1.374-0.063c-0.232-0.025-0.459-0.05-0.708-0.123
				c-0.019-0.005-0.09-0.032-0.069-0.023l-0.083-0.02c-0.058-0.012-0.058,0.005-0.098,0.001c-0.089,0.009-0.186,0.028-0.286,0.054
				c-0.799,0.227-1.662,0.733-2.609,0.845c-0.398,0.09-0.804,0.241-1.192,0.42c-0.196,0.09-0.388,0.188-0.579,0.291l-0.143,0.079
				l-0.018,0.01l-0.009,0.005l-0.004,0.002l-0.068,0.028l-0.04,0.016c-0.027,0.016-0.217,0.048-0.271,0.038
				c-0.256-0.016-0.395-0.083-0.533-0.141c-0.966-0.512-1.588-1.125-2.301-1.769l0.226,0.15l-2.919-1.006l0.351,0.047l-4.771,0.704
				l-0.068,0.01l-0.175-0.016l-3.609-0.325c-0.275-0.023-0.607-0.045-0.755-0.049c-0.024,0-0.006-0.001,0.016-0.008
				c0.005-0.002,0.105-0.024,0.147-0.048c-0.021,0.009,0.19-0.083,0.28-0.18c0.055-0.05,0.103-0.107,0.142-0.166l-0.062,0.078
				c-0.292,0.308-0.403,0.315-0.502,0.38c-0.202,0.103-0.359,0.163-0.524,0.221c-0.64,0.22-1.23,0.391-1.855,0.544l-0.203,0.05
				l-0.078-0.006c-1.191-0.099-2.382-0.209-3.573-0.385l0.49-0.747c0.125,0.429,0.227,0.867,0.336,1.302l0.088,0.351l-0.263,0.079
				c-0.644,0.194-1.291,0.38-1.941,0.558l-0.08-0.194c0.588-0.33,1.181-0.649,1.775-0.964l-0.174,0.429
				c-0.243-0.376-0.494-0.751-0.722-1.134l-0.369-0.622l0.86-0.126c1.191-0.177,2.382-0.286,3.573-0.384l-0.28,0.044
				c0.545-0.228,1.122-0.456,1.621-0.702c0.119-0.061,0.244-0.124,0.313-0.167c0.036-0.01,0.063-0.075-0.126,0.117l0.004-0.005
				l0.002-0.002l0.001-0.001c-0.127,0.172-0.026,0.034-0.049,0.066c0.047-0.064,0.102-0.126,0.165-0.183
				c0.106-0.107,0.329-0.217,0.328-0.21c0.08-0.035,0.216-0.073,0.258-0.08c0.097-0.018,0.192-0.031,0.244-0.035
				c0.468-0.035,0.751-0.006,1.089,0.018c1.285,0.1,2.491,0.335,3.719,0.584l-0.242-0.005l4.814-0.286l0.213-0.013l0.138,0.06
				l2.833,1.23l0.146,0.063l0.08,0.087c0.572,0.622,1.243,1.319,1.859,1.703c0.064,0.04,0.139,0.062,0.11,0.063
				c-0.246,0.063-0.005,0,0.078-0.049c0.218-0.092,0.44-0.178,0.666-0.255c0.452-0.154,0.914-0.28,1.411-0.34
				c0.882-0.009,1.661-0.393,2.625-0.572c0.121-0.02,0.249-0.033,0.387-0.032c0.072,0.003,0.188,0.018,0.238,0.037l0.081,0.027
				l0.088,0.039c0.179,0.077,0.399,0.132,0.613,0.18c0.434,0.095,0.882,0.163,1.329,0.217L111.973,108.3z"/>
		</g>
		<g>
			<path fill="#0C0C0C" d="M88.39,101.334c-1.347,0.872-2.721,1.698-4.076,2.556l0.069-0.056c-0.281,0.367-0.589,0.719-0.893,1.069
				l-0.443,0.533c-0.127,0.183-0.307,0.363-0.324,0.57l-0.049,0.019c-0.099-0.27,0.031-0.519,0.113-0.741
				c0.094-0.227,0.209-0.442,0.338-0.645c0.25-0.413,0.532-0.796,0.864-1.147l0.039-0.042l0.029-0.015
				c1.438-0.71,2.858-1.452,4.305-2.149L88.39,101.334z"/>
		</g>
		<g>
			<path fill="#0C0C0C" d="M78.961,124.447c0.16,1.329,0.268,2.656,0.365,3.986c0.045,0.666,0.181,1.33,0.105,1.992
				c-0.07,0.666-0.183,1.33-0.47,1.995h-0.105c-0.288-0.665-0.4-1.329-0.47-1.995c-0.077-0.662,0.059-1.326,0.105-1.992
				c0.099-1.33,0.205-2.658,0.365-3.986H78.961L78.961,124.447z"/>
		</g>
		<g>
			<path fill="#0C0C0C" d="M74.209,145.285l-2.006,8.432l-2.051,8.423l-0.01,0.036l-0.025,0.054l-1.584,3.289
				c-0.533,1.094-1.1,2.172-1.686,3.236c-0.601,1.061-1.161,2.141-1.794,3.184c-0.613,1.053-1.243,2.098-1.915,3.121l-0.093-0.049
				c0.432-1.144,0.907-2.269,1.396-3.385c0.47-1.125,1.015-2.214,1.517-3.322c0.518-1.102,1.055-2.193,1.625-3.268l1.728-3.215
				l-0.035,0.089l2.394-8.33l2.437-8.317L74.209,145.285z"/>
		</g>
		<g>
			<path fill="#0C0C0C" d="M101.12,136.938l-4.451-22.253l0.691-0.048c-0.237,5.935-0.384,11.874-0.647,17.809
				c-0.139,2.968-0.353,5.932-0.55,8.896c-0.224,2.962-0.46,5.925-0.777,8.882l-0.104-0.004c-0.037-2.978,0.005-5.945,0.061-8.916
				c0.083-2.973,0.149-5.938,0.29-8.906c0.296-5.933,0.709-11.859,1.03-17.792l0.167-3.076l0.524,3.029l3.869,22.361L101.12,136.938
				z"/>
		</g>
		<g>
			<path fill="#0C0C0C" d="M114.555,133.614l-1.014,3.395l0.008-0.066l0.325,3.479l0.151,1.741l0.076,0.871
				c0.01,0.153,0.03,0.269,0.034,0.457l0.011,0.436l0.002,0.07l-0.034,0.084l-1.25,3.099c-0.417,1.032-0.823,2.072-1.301,3.078
				c-0.458,1.016-0.964,2.008-1.489,2.999l-0.218,0.379c-0.061,0.091-0.123,0.216-0.183,0.337l-0.352,0.748
				c-0.244,0.502-0.477,1.01-0.735,1.51l-0.099-0.033c0.214-1.102,0.439-2.202,0.871-3.268c0.396-1.035,0.788-2.08,1.23-3.103
				c0.422-1.029,0.914-2.029,1.393-3.035l1.436-3.017l-0.032,0.152l0.011-0.437c0.007-0.103-0.007-0.278-0.009-0.415l-0.03-0.873
				l-0.06-1.746l-0.099-3.492l-0.001-0.04l0.011-0.026l1.25-3.314L114.555,133.614z"/>
		</g>
		<g>
			<path fill="#0C0C0C" d="M90.705,149.243l-2.168,16.711c-0.348,2.787-0.725,5.57-1.122,8.35c-0.429,2.775-0.848,5.553-1.378,8.316
				l-0.052-0.008c0.234-2.803,0.578-5.59,0.912-8.381c0.379-2.783,0.791-5.561,1.226-8.336l2.532-16.658L90.705,149.243z"/>
		</g>
		<path fill="#0C0C0C" d="M120.213,96.475"/>
		<path fill="none" stroke="#0C0C0C" stroke-width="0.5229" stroke-miterlimit="10" d="M82.988,97.585"/>
		<g id="Layer_4">
			<path fill="none" stroke="#000000" stroke-width="0.5229" stroke-miterlimit="10" d="M80.496,101.524l-5.05-4.712l-5.748-1.367
				l-9.383-5.825l-2.958-3.186l-1.497-0.691l-2.804-2.386l-1.428-0.967l-0.136-1.701l0.809-1.146l1.521-0.122l0.467-0.939
				l0.893,0.084l1.344,0.916l10.741,4.719l5.192,4.089l6.017,6.544c0,0,2.965,3.275,3.089,3.716c0.125,0.44,1.423,3.146,1.423,3.146
				S81.064,101.177,80.496,101.524z"/>
			<path fill="none" stroke="#000000" stroke-width="0.5229" stroke-miterlimit="10" d="M62.02,77.251"/>
			<g>
				<path d="M62.223,86.145l-3.787-2.209l0.067,0.017l-3.127,0.318l-0.175,0.018l-0.018-0.182l-0.228-2.235l-0.04-0.396l0.369,0.174
					l1.895,0.894l-0.055-0.02c1.011,0.25,2.012,0.536,3.011,0.838l0.065,0.02l0.031,0.042c0.652,0.867,1.299,1.737,1.924,2.627
					L62.223,86.145z M61.988,85.938c-0.692-0.754-1.367-1.523-2.037-2.296l0.096,0.062c-1.024-0.198-2.044-0.409-3.056-0.657
					L56.96,83.04l-0.024-0.013l-1.855-0.972l0.329-0.222l0.129,2.242l-0.193-0.165l3.139-0.184l0.038-0.002l0.029,0.018
					L61.988,85.938z"/>
			</g>
			<g>
				<path d="M63.171,85.144l4.431,1.533l0.021,0.008l0.02,0.018l4.052,3.628c1.356,1.203,2.718,2.4,3.996,3.687l-0.017-0.014
					c0.941,0.757,1.86,1.544,2.755,2.362l-0.032,0.042c-1.024-0.649-2.024-1.329-3.001-2.039l-0.002-0.001l-0.015-0.013
					c-1.381-1.177-2.678-2.443-3.981-3.704l-3.925-3.763l0.042,0.026l-4.362-1.72L63.171,85.144z"/>
			</g>
			<g>
				<path d="M58.693,86.771l3.237,0.973l0.032,0.009l0.032,0.032l1.631,1.623l-0.062-0.047c0.673,0.313,1.333,0.648,1.956,1.053
					c0.31,0.204,0.627,0.398,0.921,0.631c0.292,0.232,0.605,0.448,0.821,0.781l-0.043,0.029c-0.281-0.214-0.632-0.357-0.954-0.527
					l-0.985-0.491c-0.661-0.322-1.298-0.69-1.932-1.062l-0.043-0.025l-0.019-0.022L61.766,88l0.063,0.041l-3.153-1.222
					L58.693,86.771z"/>
			</g>
			<g>
				<path d="M56.523,81.718c0.575-0.124,1.151-0.229,1.729-0.325l0.042-0.007l0.066,0.027c0.482,0.195,0.974,0.368,1.428,0.622
					c0.451,0.263,0.903,0.521,1.311,0.874l-0.022,0.047c-0.532-0.089-1.02-0.274-1.509-0.453c-0.485-0.188-0.933-0.457-1.39-0.704
					l0.107,0.019c-0.585-0.002-1.171-0.017-1.758-0.046L56.523,81.718z"/>
			</g>
			<g>
				<path d="M78.615,106.475l-5.405,5.16l-0.001,0.002l-0.002,0.002l-3.763,3.06l0.01-0.009l-1.575,1.575l-0.007,0.007l-0.01,0.008
					l-1.726,1.262l-0.016,0.011l-0.019,0.008c-0.745,0.301-1.487,0.596-2.254,0.858c-0.194,0.062-0.383,0.131-0.609,0.166
					c-0.183,0.026-0.345,0.088-0.534,0.159c-0.362,0.142-0.724,0.312-1.075,0.487l0.016-0.356l1.843,1.119l-0.234-0.002l3.013-1.843
					l-0.034,0.024l1.683-1.422l0.842-0.711c0.308-0.259,0.595-0.447,0.893-0.674l3.585-2.562l-0.02,0.017l2.436-2.225l-0.015,0.018
					l2.941-4.175L78.615,106.475z M78.737,106.29l-2.917,4.452l-0.005,0.008l-0.011,0.01l-2.314,2.353l-0.007,0.006l-0.014,0.011
					l-3.514,2.66c-0.287,0.216-0.613,0.436-0.866,0.65l-0.842,0.71l-1.685,1.42l-0.018,0.015l-0.017,0.009l-3.049,1.785
					l-0.121,0.071l-0.113-0.072l-1.82-1.154l-0.312-0.198l0.329-0.157c0.368-0.177,0.734-0.341,1.119-0.486
					c0.185-0.068,0.403-0.145,0.618-0.172c0.17-0.021,0.362-0.083,0.549-0.142c0.752-0.243,1.502-0.527,2.246-0.814l-0.036,0.019
					l1.746-1.233l-0.017,0.015l1.602-1.55l0.006-0.006l0.004-0.003l3.829-2.978l-0.005,0.003L78.737,106.29z"/>
			</g>
			<g>
				<path d="M78.616,105.567l-1.827,2.052l-0.009,0.01l-0.016,0.009l-4.952,2.807l-0.01,0.005l-0.019,0.008
					c-1.189,0.472-2.373,0.955-3.593,1.347c-0.31,0.093-0.602,0.199-0.942,0.271l-0.926,0.21c-0.31,0.072-0.616,0.151-0.919,0.241
					c-0.297,0.092-0.625,0.169-0.851,0.361l-0.045-0.028c0.47-0.501,1.124-0.666,1.714-0.911c0.302-0.114,0.609-0.21,0.92-0.3
					c0.281-0.08,0.584-0.211,0.879-0.324c1.188-0.463,2.402-0.863,3.611-1.277l-0.028,0.013l5.067-2.593l-0.024,0.019l1.931-1.954
					L78.616,105.567z"/>
			</g>
			<g>
				<path d="M60.309,120.5l2.923,0.729l-0.019,0.001l1.747-0.611l-0.008,0.003l8.063-5.071L73,115.566l7.269-9.835l0.022,0.194
					l-0.523-0.427l0.172-0.239l0.84,0.518l0.09,0.055l-0.022,0.105c-0.09,0.416-0.189,0.827-0.304,1.237
					c-0.136,0.415-0.197,0.807-0.505,1.234c-0.362,0.208-0.51,0.6-0.734,0.954c-0.203,0.363-0.394,0.738-0.574,1.112l-0.006,0.014
					l-0.01,0.015c-0.707,0.986-1.427,1.983-2.016,3.024c-0.068,0.128-0.139,0.265-0.176,0.382c-0.01,0.03-0.013,0.053-0.015,0.062
					c-0.008,0.074-0.008,0.053-0.014,0.084l-0.035,0.092c-0.052,0.107-0.094,0.161-0.145,0.232
					c-0.196,0.258-0.408,0.481-0.622,0.704c-0.429,0.442-0.873,0.864-1.317,1.283l-1.336,1.25c-0.213,0.208-0.457,0.424-0.614,0.628
					c-0.262,0.29-0.496,0.43-0.748,0.627c-0.996,0.722-2.015,1.394-3.04,2.064l-0.019,0.013l-0.024,0.01l-3.295,1.243l-0.034,0.013
					l-0.038,0.001l-3.605,0.205l-0.042,0.003l-0.041-0.012l-3.972-1.096l-0.138-0.037l-0.042-0.137l-0.278-0.912l-0.009-0.03
					l-0.001-0.031l-0.11-1.865l-0.005-0.082l0.044-0.07l1.659-2.67l0.037-0.059l0.059-0.032l2.261-1.224l-0.036,0.023l3.426-2.719
					l0.019-0.015l0.018-0.01l3.226-1.569l-0.013,0.008l3.612-2.176l0.011-0.007l0.011-0.003l3.786-1.411l-0.017,0.01l2.122-1.505
					l0.001-0.001h0.001l0.915-0.521l0.026,0.046l-0.909,0.529l0.002-0.001l-2.068,1.578l-0.007,0.005l-0.01,0.004l-3.745,1.519
					l0.021-0.011l-3.573,2.238l-0.005,0.003l-0.009,0.004l-3.197,1.626l0.036-0.023l-3.376,2.779l-0.016,0.012l-0.02,0.012
					l-2.242,1.258l0.096-0.091l-1.661,2.669l0.039-0.152l0.109,1.865l-0.011-0.061l0.278,0.912l-0.179-0.175l3.971,1.097
					l-0.082-0.008l3.606-0.174l-0.072,0.015l3.307-1.211l-0.044,0.021c1.025-0.656,2.052-1.32,3.038-2.021
					c0.232-0.169,0.515-0.371,0.663-0.534c0.22-0.275,0.443-0.458,0.668-0.677l1.346-1.242c0.446-0.415,0.89-0.831,1.315-1.262
					c0.21-0.215,0.42-0.436,0.595-0.663c0.039-0.051,0.086-0.123,0.102-0.152l0.012-0.013c0.003-0.006,0.011-0.065,0.009-0.028
					c0.004-0.067,0.018-0.119,0.032-0.162c0.058-0.173,0.132-0.308,0.207-0.448c0.623-1.08,1.343-2.059,2.064-3.051l-0.016,0.026
					c0.187-0.382,0.382-0.757,0.593-1.127c0.105-0.186,0.215-0.369,0.337-0.549c0.062-0.09,0.125-0.179,0.203-0.267
					c0.039-0.045,0.079-0.087,0.141-0.135c0.054-0.036,0.069-0.042,0.111-0.06c-0.014,0.005-0.007,0.002,0.001-0.004
					c0.19-0.256,0.319-0.713,0.435-1.096c0.116-0.4,0.217-0.808,0.308-1.214l0.068,0.16l-0.836-0.524l0.172-0.239l0.517,0.436
					l0.105,0.088l-0.082,0.107l-7.402,9.735l-0.007,0.008l-0.01,0.006L65,120.696l-0.004,0.002h-0.004l-1.752,0.594l-0.01,0.003
					l-0.009-0.002l-2.92-0.743L60.309,120.5z"/>
			</g>
			<g>
				<path d="M77.552,103.492l1.55-0.87l-0.014,0.01l1.324-1.205l0.021-0.019l0.035-0.009l1.221-0.299l0.058-0.015l0.058,0.035
					l1.391,0.824l0.155,0.092l-0.092,0.166l-1.383,2.5l-0.02,0.037l-0.041,0.035c-0.338,0.288-0.681,0.569-1.031,0.841l-0.13,0.102
					l-0.146-0.066c-0.413-0.185-0.812-0.4-1.221-0.598c-0.408-0.198-0.807-0.414-1.207-0.629l-0.017-0.009l0,0
					c-0.246-0.173-0.482-0.358-0.722-0.54l-0.058-0.044l0.036-0.047L77.552,103.492z M77.588,103.532l-0.152,0.321l-0.021-0.091
					c0.27,0.134,0.541,0.264,0.803,0.408l-0.017-0.008c0.426,0.156,0.853,0.312,1.27,0.486c0.419,0.174,0.845,0.331,1.257,0.518
					l-0.275,0.035c0.338-0.287,0.684-0.564,1.035-0.834l-0.061,0.071l1.505-2.43l0.064,0.258l-1.354-0.882l0.116,0.02l-1.232,0.246
					l0.055-0.027l-1.391,1.126l-0.009,0.007l-0.006,0.002L77.588,103.532z"/>
			</g>
			<g>
				<path d="M78.947,103.943c0.324-0.025,0.649-0.062,0.972-0.071c0.162-0.009,0.323-0.011,0.485-0.026
					c0.162-0.008,0.325-0.037,0.483-0.002l0.1,0.021l0.02,0.018c0.186,0.156,0.365,0.32,0.485,0.582l-0.027,0.045
					c-0.288,0.009-0.515-0.08-0.736-0.177l0.121,0.039c-0.162,0.012-0.32-0.041-0.479-0.072c-0.158-0.038-0.317-0.063-0.476-0.095
					c-0.318-0.056-0.634-0.138-0.951-0.209L78.947,103.943z"/>
			</g>
		</g>
		<g id="Layer_11_copy">
			<path fill="#0C0C0C" d="M75.736,54.758c0.795,3.805,1.52,7.624,2.232,11.445l2.057,11.476l1.903,11.502
				c0.322,2.041-1.363,6.336,0.755,7.9c1.822,1.344-0.24,0.396-0.419,0.18c-2.618-2.71-0.131-4.171-0.844-7.992l-2.056-11.476
				l-1.901-11.501C76.854,62.451,76.259,58.611,75.736,54.758z"/>
			<path fill="#0C0C0C" d="M117.339,28.458c0.25,3.711,0.101,22.814,0.021,26.528c-0.066,3.718-2.166,12.206-2.396,15.913
				c-0.241,3.707-0.542,7.409-0.902,11.105c-0.385,3.695-0.53,7.135-0.412,10.851c0.034,1.034,0.398,1.97-0.086,2.921
				c-0.103,0.203-0.682,0.945-0.911,0.567c-0.219-0.357,0.428-0.627,0.578-0.84c0.161-0.228-0.138-2.548-0.138-2.548
				s-0.096-7.312,0.111-11.018l0.727-11.107l2.327-15.843C116.496,51.285,117.175,32.17,117.339,28.458z"/>
		</g>
		<path fill="#0C0C0C" d="M154.467,163.333l-10.312-5.882l-1.646-2.209c-4.759-9.826-2.141-13.409-3.775-17.289l4.166-14.237
			l0.015-5.147l0.948-2.834l0.023-5.387l1.239-1.684l0.789-0.421l-0.789,0.748l-0.74,1.53l-0.015,5.339l-0.946,2.835v5.176
			l-4.082,14.083c0.495,1.146-0.284,8.972,3.742,17.271l0.103,0.209l1.561,1.168l9.725,5.926v0.805H154.467L154.467,163.333z"/>
		
			<path fill="none" stroke="#0C0C0C" stroke-width="0.5229" stroke-linecap="round" stroke-linejoin="round" stroke-miterlimit="10" d="
			M144.656,97.171c0,0-0.632,0.588,0.565,0.975c0.447,0.146-1.531,1.014-1.664,1.377c-0.236,0.643,0.291,1.041,0.879,1.307
			c-0.358,0.355-0.838,0.959-0.937,1.482c-0.069,0.369,0.638,0.403,0.851,0.61c0.197,0.192,0.844,0.122,0.959,0.368
			c0,0-1.427,1.153-1.429,1.174c-0.062,0.407-0.289,1.023-0.007,1.392c0.166,0.221,0.339,0.31,0.452,0.596
			c0.104,0.262,1.44,0.696,1.424,0.981c-0.015,0.197-0.083,0.43,0,0.617"/>
		
			<path fill="none" stroke="#0C0C0C" stroke-width="0.5229" stroke-linecap="round" stroke-linejoin="round" stroke-miterlimit="10" d="
			M199.626,187.843l4.532-3.66c0,0,3.571-3.834,2.7-7.757c-0.873-3.921-0.438-10.194-0.438-10.194l0.575-4.531l-1.155-4.096
			l0.133-1.894l-6.727-12.547l-9.229-5.005l-8.891-20.129l-5.467-9.138l0.872-1.655l0.348-0.844l-0.696-3.426l-0.512-1.453
			c0.084-0.431,0.449-1.756,0.194-2.164c-0.322-0.519-1.95,0.505-2.306,0.698c-0.347,0.188-0.691,0.376-1.039,0.565
			c0,0-2.963,0-2.965,0c-3.947-1.406-6.193-1.261-10.279-0.61l-2.963-0.871h-4.01c-0.557-0.375-1.104-0.755-1.666-1.125
			c-0.715-0.472-1.533-1.288-2.402-1.382c-0.842-0.092-1.769-0.226-2.609-0.082c-0.27,0.046-0.818,0.173-0.885,0.454"/>
		<path fill="#0C0C0C" d="M189.735,188.688l2.898-0.797c0.657,0.125,2.488,0.482,3.45,0.773c1.342,0.404,3.804-0.441,4.228-1.318
			l0.322-0.541c-0.562,0.215-3.398,1.055-4.264,0.795c-1.232-0.375-3.698-0.826-3.801-0.849l-0.244-0.044l-2.592,0.962l-4.476,0.127
			l-10.175-2.519l-6.002-2.924c-0.242-0.185-8.533-6.095-9.771-6.75c-0.725-0.389-1.74-3.271-2.761-5.504l-1.366-3.507l-0.718-2.172
			l1.118,6.108c0.436,0.957,2.671,5.75,3.982,6.447c0.94,0.498,6.744,4.58,9.444,6.553l5.735,2.793l10.208,2.529L189.735,188.688z"
			/>
		<g>
			<line fill="none" x1="169.985" y1="113.25" x2="178.364" y2="135.646"/>
			<path fill="#0C0C0C" d="M170.009,113.241l4.361,11.134c0.724,1.856,1.477,3.702,2.145,5.58c0.653,1.883,1.315,3.764,1.873,5.683
				l-0.049,0.02c-0.84-1.816-1.572-3.668-2.316-5.518c-0.729-1.854-1.373-3.741-2.045-5.618l-4.019-11.261L170.009,113.241z"/>
		</g>
		<g>
			<path fill="none" d="M180.543,143.924c0.089,0.435,5.401,18.474,5.401,19.867c0,1.392,3.138,9.325,3.138,9.325l1.916,8.016"/>
			<path fill="#0C0C0C" d="M180.567,143.919c1.438,4.863,2.924,9.721,4.289,14.609c0.342,1.223,0.681,2.445,0.988,3.682l0.221,0.934
				c0.031,0.16,0.063,0.315,0.088,0.487c0.019,0.212,0.019,0.3,0.051,0.46c0.117,0.596,0.312,1.203,0.508,1.801
				c0.792,2.397,1.712,4.764,2.598,7.135l0.006,0.02l0.004,0.016c0.605,2.679,1.185,5.363,1.709,8.063l-0.051,0.013
				c-0.756-2.645-1.455-5.302-2.125-7.966l0.01,0.032c-0.957-2.357-1.85-4.732-2.616-7.165c-0.183-0.612-0.37-1.22-0.483-1.871
				c-0.031-0.151-0.035-0.383-0.045-0.487c-0.015-0.144-0.044-0.298-0.07-0.451l-0.199-0.92c-0.285-1.231-0.605-2.459-0.926-3.688
				c-1.297-4.904-2.666-9.792-4.002-14.689L180.567,143.919z"/>
		</g>
		<g>
			<line fill="none" x1="173.571" y1="134.163" x2="180.979" y2="155.34"/>
			<path fill="#0C0C0C" d="M173.597,134.155l3.877,10.527c0.645,1.754,1.316,3.5,1.9,5.276c0.57,1.78,1.152,3.558,1.629,5.372
				l-0.049,0.018c-0.76-1.716-1.413-3.468-2.074-5.216c-0.648-1.753-1.211-3.536-1.802-5.312l-3.53-10.649L173.597,134.155z"/>
		</g>
		<g>
			<polyline fill="none" points="162.954,107.873 165.38,140.22 165.38,155.731 			"/>
			<path fill="#0C0C0C" d="M162.979,107.87l2.658,32.331v0.009v0.012c0.004,2.586,0.01,5.17-0.039,7.756
				c-0.029,2.586-0.015,1.128-0.109,3.712l0,0c-0.094-2.584-0.303-1.126-0.334-3.712c-0.047-2.586-0.043-5.17-0.038-7.756v0.02
				l-2.192-32.365L162.979,107.87z"/>
		</g>
		<g>
			<path fill="none" d="M154.467,139.349c0,0-0.134,27.406,0.41,28.487"/>
			<path fill="#0C0C0C" d="M154.519,139.349l0.369,14.25c0.071,2.375,0.205,4.745,0.176,7.119c0.002,2.363-0.174,4.768-0.141,7.096
				l-0.091,0.047c-0.384-1.188-0.437-2.37-0.574-3.561c-0.12-1.188-0.182-2.376-0.237-3.564c-0.106-2.377-0.011-4.756,0.033-7.131
				c0.069-4.752,0.192-9.504,0.363-14.254L154.519,139.349L154.519,139.349z"/>
		</g>
		<g>
			<polyline fill="none" points="155.272,109.328 152.308,111.855 148.301,117.781 145.511,121.005 			"/>
			<path fill="#0C0C0C" d="M155.288,109.348l-2.896,2.609l0.022-0.027l-1.942,3.003c-0.647,1-1.271,2.019-1.953,2.996l-0.013,0.019
				l-0.009,0.008c-0.952,1.055-1.918,2.099-2.971,3.067l-0.039-0.034c0.808-1.181,1.701-2.287,2.606-3.381l-0.018,0.024
				c0.653-0.998,1.366-1.954,2.053-2.928l2.065-2.921l0.012-0.018l0.012-0.01l3.033-2.446L155.288,109.348z"/>
		</g>
		<g>
			<polyline fill="none" points="154.834,101.311 150.394,104.187 148.823,106.278 147.952,107.411 			"/>
			<path fill="#0C0C0C" d="M154.849,101.333c-1.433,1.033-2.884,2.037-4.328,3.051l0.062-0.056
				c-0.378,0.559-0.769,1.109-1.208,1.621c-0.432,0.52-0.895,1.02-1.4,1.479l-0.041-0.032c0.312-0.612,0.683-1.172,1.053-1.736
				c0.369-0.566,0.787-1.096,1.22-1.614l0.034-0.041l0.027-0.016c1.516-0.902,3.023-1.815,4.555-2.7L154.849,101.333z"/>
		</g>
		<g>
			<polyline fill="none" points="148.735,105.058 146.384,106.366 146.384,107.847 			"/>
			<path fill="#0C0C0C" d="M148.749,105.081c-0.734,0.526-1.494,1.006-2.236,1.515l0.135-0.23c0.022,0.247-0.006,0.493-0.043,0.74
				c-0.033,0.247-0.097,0.494-0.194,0.741h-0.054c-0.096-0.247-0.162-0.494-0.195-0.741c-0.035-0.247-0.062-0.494-0.044-0.74
				l0.019-0.179l0.12-0.053c0.824-0.362,1.636-0.754,2.47-1.1L148.749,105.081z"/>
		</g>
		<g>
			<polyline fill="none" points="152.135,101.311 147.167,102.53 145.511,103.664 			"/>
			<path fill="#0C0C0C" d="M152.142,101.337c-0.814,0.25-1.631,0.51-2.449,0.745l-1.229,0.362c-0.407,0.123-0.812,0.261-1.231,0.346
				l0.09-0.04c-0.276,0.188-0.579,0.34-0.868,0.511c-0.302,0.151-0.601,0.305-0.925,0.424l-0.026-0.043
				c0.229-0.258,0.479-0.482,0.729-0.709c0.265-0.207,0.515-0.433,0.789-0.622l0.035-0.024l0.053-0.015
				c0.41-0.118,0.834-0.183,1.252-0.264l1.256-0.247c0.835-0.172,1.678-0.318,2.515-0.475L152.142,101.337z"/>
		</g>
		<g>
			<line fill="none" x1="149.258" y1="99.83" x2="145.511" y2="99.83"/>
			<path fill="#0C0C0C" d="M149.258,99.856c-0.624,0.076-1.247,0.137-1.872,0.183c-0.312,0.028-0.625,0.086-0.938,0.052
				c-0.312-0.048-0.624-0.086-0.938-0.235v-0.053c0.313-0.149,0.626-0.187,0.938-0.235c0.312-0.035,0.626,0.024,0.938,0.052
				c0.625,0.046,1.248,0.107,1.872,0.183V99.856z"/>
		</g>
		<g>
			<path fill="none" d="M165.38,107.847c0,0.349,2.439,9.238,2.439,9.238l2.166,13.768"/>
			<path fill="#0C0C0C" d="M165.406,107.845c0.165,0.769,0.401,1.538,0.61,2.303l0.656,2.297l1.318,4.591l0.004,0.008l0.002,0.012
				c0.379,2.292,0.812,4.575,1.17,6.87c0.342,2.298,0.646,4.601,0.846,6.923l-0.055,0.008c-0.525-2.269-0.939-4.555-1.322-6.845
				c-0.363-2.294-0.65-4.601-0.992-6.898l0.004,0.019l-1.188-4.629l-0.574-2.32c-0.183-0.777-0.388-1.542-0.529-2.334
				L165.406,107.845z"/>
		</g>
		<g>
			<polyline fill="none" points="171.131,136.166 172.699,144.969 173.571,149.239 			"/>
			<path fill="#0C0C0C" d="M171.156,136.162c0.463,2.169,0.913,4.34,1.348,6.514c0.229,1.093,0.459,2.161,0.661,3.253
				c0.175,1.096,0.359,2.189,0.436,3.305l-0.053,0.012c-0.369-1.057-0.629-2.135-0.896-3.211c-0.27-1.075-0.389-2.195-0.56-3.283
				c-0.342-2.191-0.67-4.385-0.985-6.581L171.156,136.162z"/>
		</g>
		<g>
			<polyline fill="none" points="177.929,150.633 183.94,165.707 186.644,179.128 			"/>
			<path fill="#0C0C0C" d="M177.951,150.623l6.198,15.001l0.008,0.018l0.006,0.021c0.48,2.229,0.964,4.461,1.373,6.706
				c0.41,2.244,0.812,4.492,1.132,6.755l-0.051,0.01c-0.58-2.211-1.08-4.438-1.569-6.665c-0.49-2.228-0.91-4.473-1.328-6.716
				l0.014,0.039l-5.827-15.147L177.951,150.623z"/>
		</g>
		<g>
			<polyline fill="none" points="192.219,157.604 196.142,165.446 198.929,168.845 200.935,173.726 			"/>
			<path fill="#0C0C0C" d="M192.242,157.594l4.077,7.765l-0.022-0.037c0.946,1.117,1.919,2.217,2.838,3.354l0.025,0.032l0.016,0.036
				c0.337,0.812,0.625,1.644,0.939,2.466c0.292,0.831,0.586,1.66,0.842,2.507l-0.049,0.021c-0.413-0.78-0.786-1.577-1.162-2.373
				c-0.354-0.807-0.733-1.602-1.065-2.415l0.041,0.067c-0.938-1.125-1.824-2.291-2.736-3.438l-0.017-0.021l-0.009-0.018
				l-3.768-7.922L192.242,157.594z"/>
		</g>
		<g>
			<path fill="none" d="M191.608,140.438c4.724,12.16,4.707,13.871,3.66,9.672"/>
			<path fill="#0C0C0C" d="M191.633,140.427c0.953,2.246,1.873,4.504,2.745,6.783c0.439,1.137,0.898,2.271,1.252,3.441l0.249,0.885
				l0.118,0.445l0.029,0.117l0.002,0.02l0.005,0.016l0.003,0.024c-0.28,0.457-0.477-0.039-0.376,0.12
				c-0.033-0.069-0.019-0.043-0.026-0.065l-0.018-0.058l-0.055-0.229c-0.133-0.598-0.244-1.2-0.32-1.811l0.052-0.013l0.623,1.719
				l0.079,0.213l0.02,0.049c-0.005-0.005,0.018,0.041-0.009-0.012c0.103,0.162-0.093-0.338-0.376,0.117
				c0.005,0.035,0.002,0.011,0.002,0.019v0.001c0.002,0.002-0.002-0.006-0.002-0.009l-0.033-0.103l-0.15-0.429l-0.314-0.853
				c-0.414-1.144-0.765-2.311-1.148-3.465c-0.781-2.307-1.588-4.605-2.399-6.906L191.633,140.427z"/>
		</g>
		<g>
			<polyline fill="none" points="174.703,110.896 178.685,117.911 183.651,130.548 			"/>
			<path fill="#0C0C0C" d="M174.728,110.883l4.1,6.947l0.006,0.008l0.005,0.014l2.584,6.279c0.823,2.107,1.588,4.238,2.255,6.407
				l-0.049,0.02c-0.99-2.043-1.882-4.125-2.712-6.229l-2.384-6.357l0.01,0.021l-3.859-7.083L174.728,110.883z"/>
		</g>
		<g>
			<line fill="none" x1="176.244" y1="116.692" x2="178.901" y2="122.095"/>
			<path fill="#0C0C0C" d="M176.269,116.68c0.512,0.867,1.008,1.741,1.494,2.621c0.245,0.438,0.521,0.862,0.711,1.328
				c0.178,0.471,0.365,0.938,0.452,1.455l-0.048,0.022c-0.355-0.383-0.609-0.817-0.876-1.246c-0.252-0.435-0.42-0.912-0.617-1.374
				c-0.401-0.921-0.79-1.849-1.168-2.782L176.269,116.68z"/>
		</g>
		<g>
			<path fill="none" d="M163.985,102.487l-6.625,0.654c0,0-3.832,1.569-4.096,1.917c-0.261,0.349-2.35,2.005-2.873,2.354"/>
			<path fill="#0C0C0C" d="M163.987,102.513l-6.608,0.82l0.054-0.014c-1.25,0.547-2.511,1.138-3.703,1.742
				c-0.069,0.04-0.145,0.08-0.199,0.119c-0.025,0.015-0.063,0.046-0.055,0.038l-0.095,0.101c-0.136,0.133-0.271,0.241-0.405,0.353
				c-0.271,0.219-0.545,0.431-0.824,0.636c-0.563,0.397-1.131,0.796-1.744,1.126l-0.028-0.043l1.526-1.386l0.758-0.689
				c0.122-0.116,0.245-0.236,0.346-0.35l0.076-0.093c0.066-0.072,0.102-0.09,0.146-0.124c0.086-0.059,0.162-0.103,0.24-0.149
				c0.62-0.353,1.256-0.608,1.895-0.873l1.926-0.761l0.027-0.012l0.023-0.001l6.643-0.488L163.987,102.513z"/>
		</g>
		<g>
			<path fill="none" d="M145.772,108.238c0,0,2.18-0.131,2.701-0.365c0.522-0.236,2.004,0.584,2.918,0.671
				c0.916,0.087,1.873,0.523,2.397,0.784c0.522,0.261,2.526-1.816,2.526-1.816l2.875-1.118l4.793,0.495c0,0,4.619-0.697,4.793-0.435
				c0.175,0.262,2.354,0.958,2.354,0.958h3.572l-0.53,1.218l1.054,0.263"/>
			<path fill="#0C0C0C" d="M145.767,108.134c0.943-0.126,1.906-0.195,2.783-0.523c0.365-0.052,0.578,0.018,0.836,0.066
				c0.244,0.057,0.479,0.125,0.711,0.192c0.451,0.128,0.918,0.274,1.315,0.296c0.519,0.026,1.028,0.143,1.507,0.294
				c0.24,0.076,0.477,0.162,0.708,0.254l0.345,0.145l0.021,0.01l0.011,0.004l0.006,0.002l0.003,0.001
				c-0.125-0.053-0.033-0.014-0.061-0.025l0.045,0.012c0.012-0.012-0.13-0.029-0.107-0.025c-0.019,0,0.004-0.006,0.028-0.02
				c0.269-0.125,0.656-0.458,0.978-0.758c0.33-0.312,0.662-0.652,0.963-0.988l0.076-0.086l0.15-0.065l2.833-1.23l0.138-0.06
				l0.213,0.013l4.816,0.286l-0.243,0.005c1.228-0.25,2.435-0.484,3.72-0.585c0.338-0.022,0.621-0.053,1.088-0.017
				c0.053,0.004,0.146,0.016,0.244,0.036c0.043,0.006,0.18,0.045,0.26,0.08c-0.002-0.007,0.223,0.102,0.33,0.21
				c0.062,0.057,0.117,0.12,0.164,0.184c-0.024-0.034,0.08,0.108-0.055-0.069h0.002l0.002,0.002l0.004,0.005
				c-0.188-0.19-0.16-0.125-0.125-0.115c0.068,0.042,0.195,0.105,0.312,0.166c0.499,0.247,1.075,0.475,1.621,0.702l-0.281-0.043
				c1.19,0.099,2.384,0.208,3.574,0.384l0.86,0.127l-0.371,0.622c-0.229,0.384-0.479,0.758-0.725,1.135l-0.219-0.444
				c0.335,0.15,0.668,0.308,1,0.475l-0.053,0.203c-0.37-0.007-0.739-0.024-1.104-0.048l-0.325-0.022l0.105-0.423
				c0.109-0.436,0.213-0.874,0.339-1.302l0.49,0.748c-1.191,0.177-2.382,0.286-3.573,0.384l-0.078,0.006l-0.201-0.05
				c-0.625-0.155-1.215-0.325-1.854-0.544c-0.164-0.058-0.321-0.119-0.522-0.221c-0.099-0.065-0.212-0.073-0.503-0.378l-0.063-0.081
				c0.041,0.059,0.089,0.116,0.144,0.166c0.091,0.098,0.302,0.192,0.28,0.181c0.043,0.024,0.145,0.048,0.146,0.048
				c0.021,0.007,0.041,0.008,0.018,0.008c-0.146,0.003-0.48,0.026-0.756,0.049l-3.607,0.325l-0.174,0.016l-0.066-0.01l-4.772-0.703
				l0.351-0.048l-2.92,1.006l0.227-0.151c-0.366,0.348-0.729,0.667-1.121,0.982c-0.41,0.308-0.754,0.62-1.377,0.863
				c-0.086,0.027-0.182,0.056-0.317,0.062c-0.037,0.011-0.237-0.014-0.284-0.037l-0.044-0.017l-0.065-0.028l-0.006-0.003
				l-0.01-0.005l-0.02-0.01l-0.303-0.164c-0.201-0.106-0.408-0.205-0.615-0.294c-0.418-0.179-0.838-0.319-1.274-0.385
				c-0.556-0.093-0.991-0.296-1.44-0.469c-0.42-0.169-0.931-0.372-1.23-0.381c-0.951,0.256-1.932,0.236-2.885,0.276L145.767,108.134
				z"/>
		</g>
		<g>
			<path fill="none" d="M169.985,101.311l4.188,2.352c0,0,1.663,1.917,1.489,2.353"/>
			<path fill="#0C0C0C" d="M169.998,101.288c1.444,0.697,2.864,1.439,4.303,2.149l0.028,0.015l0.041,0.042
				c0.331,0.35,0.613,0.734,0.863,1.146c0.129,0.203,0.244,0.417,0.338,0.645c0.086,0.223,0.213,0.471,0.117,0.741l-0.051-0.019
				c-0.018-0.207-0.197-0.387-0.324-0.57l-0.442-0.533c-0.306-0.35-0.613-0.703-0.894-1.069l0.066,0.056
				c-1.354-0.858-2.725-1.683-4.07-2.556L169.998,101.288z"/>
		</g>
		<g>
			<line fill="none" x1="177.442" y1="124.942" x2="182.552" y2="137.022"/>
			<path fill="#0C0C0C" d="M177.468,124.932c0.92,1.984,1.828,3.974,2.723,5.971c0.453,0.994,0.932,1.979,1.326,3
				c0.381,1.027,0.772,2.045,1.062,3.111l-0.05,0.02c-0.562-0.948-1.023-1.939-1.493-2.928c-0.458-0.994-0.83-2.023-1.229-3.043
				c-0.809-2.03-1.604-4.066-2.385-6.11L177.468,124.932z"/>
		</g>
		<g>
			<polyline fill="none" points="184.201,145.272 188.646,162.022 195.271,175.034 			"/>
			<path fill="#0C0C0C" d="M184.252,145.258l2.438,8.318l2.394,8.329l-0.034-0.09l1.729,3.215c0.568,1.074,1.104,2.168,1.623,3.269
				c0.504,1.109,1.049,2.197,1.519,3.323c0.49,1.115,0.965,2.238,1.396,3.385l-0.092,0.049c-0.673-1.023-1.302-2.068-1.916-3.121
				c-0.633-1.043-1.192-2.123-1.793-3.184c-0.586-1.066-1.154-2.146-1.687-3.236l-1.583-3.289l-0.025-0.054l-0.009-0.037
				l-2.052-8.422l-2.006-8.433L184.252,145.258z"/>
		</g>
		<g>
			<polyline fill="none" points="155.151,137.302 156.845,108.394 160.56,143.619 			"/>
			<path fill="#0C0C0C" d="M155.099,137.299l1.398-28.925l0.695-0.017c0.662,5.866,1.412,11.724,2.049,17.593
				c0.311,2.935,0.547,5.878,0.799,8.818c0.227,2.944,0.439,5.891,0.572,8.846l-0.104,0.01c-0.485-2.916-0.892-5.841-1.284-8.768
				c-0.367-2.931-0.748-5.857-1.059-8.793c-0.604-5.872-1.09-11.757-1.667-17.632l0.696-0.016l-1.991,28.891L155.099,137.299z"/>
		</g>
		<g>
			<path fill="none" d="M143.854,133.597l1.133,3.355l-0.393,6.447v0.523c0,0,4.01,9.146,4.229,9.54
				c0.217,0.394,1.001,2.746,1.001,2.746"/>
			<path fill="#0C0C0C" d="M143.905,133.58l1.25,3.315l0.01,0.025l-0.001,0.041l-0.099,3.493l-0.062,1.745l-0.028,0.871
				c-0.004,0.137-0.017,0.314-0.01,0.416l0.014,0.437l-0.033-0.153l1.436,3.017c0.479,1.006,0.971,2.003,1.391,3.034
				c0.443,1.021,0.836,2.068,1.231,3.104c0.433,1.065,0.656,2.165,0.871,3.268l-0.099,0.033c-0.26-0.5-0.49-1.009-0.735-1.51
				l-0.354-0.749c-0.058-0.12-0.121-0.245-0.183-0.337l-0.218-0.379c-0.521-0.991-1.028-1.982-1.488-2.998
				c-0.479-1.007-0.885-2.045-1.302-3.078l-1.25-3.099l-0.033-0.085l0.001-0.069l0.014-0.437c0.004-0.191,0.021-0.305,0.032-0.457
				l0.076-0.871l0.154-1.738l0.323-3.48l0.01,0.067l-1.016-3.396L143.905,133.58z"/>
		</g>
		<g>
			<polyline fill="none" points="167.683,149.239 176.244,170.063 176.794,181.132 			"/>
			<path fill="#0C0C0C" d="M167.707,149.229l4.411,10.358c1.449,3.461,2.958,6.899,4.367,10.376l0.018,0.044l0.002,0.046
				c0.085,1.844,0.143,3.689,0.204,5.535c0.056,1.848,0.095,3.694,0.112,5.542l-0.053,0.003c-0.166-1.842-0.311-3.685-0.439-5.525
				c-0.12-1.842-0.245-3.687-0.346-5.53l0.019,0.087c-1.444-3.465-2.791-6.968-4.194-10.448l-4.149-10.466L167.707,149.229z"/>
		</g>
		<path fill="#0C0C0C" d="M138.147,96.475"/>
		<path fill="none" stroke="#0C0C0C" stroke-width="0.5229" stroke-miterlimit="10" d="M175.372,97.585"/>
		<g id="Layer_4_copy">
			<path fill="none" stroke="#000000" stroke-width="0.5229" stroke-miterlimit="10" d="M178.149,101.514l4.767-4.702l6.53-1.64
				l5.822,3.002l4.711-2.929l1.133-1.516l1.672-0.37l0.183-1.618l0.138-1.7l-0.812-1.146l-1.483-0.603l-9.197,0.558l-6.434,2.228
				l-5.291,3.756c0,0-2.966,3.275-3.089,3.717c-0.126,0.439-0.927,3.146-0.927,3.146S177.581,101.167,178.149,101.514z"/>
			<path fill="none" stroke="#000000" stroke-width="0.5229" stroke-miterlimit="10" d="M195.313,86.061"/>
			<g>
				<polygon fill="none" points="188.312,92.51 184.828,94.068 191.608,92.923 195.271,96.058 201.079,92.829 201.974,92.9 
					202.097,91.378 202.151,90.66 200.276,91.594 196.209,91.42 191.103,91.376 				"/>
				<path d="M188.323,92.534l-3.484,1.559l-0.015-0.05l6.776-1.168l0.021-0.003l0.018,0.015l3.697,3.092l-0.119-0.012l5.78-3.279
					l0.041-0.023l0.053,0.002l0.896,0.054l-0.193,0.165l0.131-2.244l0.329,0.222c-0.616,0.329-1.233,0.656-1.862,0.961l-0.061,0.031
					l-0.064-0.003c-0.766-0.031-1.529-0.056-2.291-0.126c-0.764-0.035-1.529-0.191-2.285-0.185l-4.588-0.11l0.021-0.003
					L188.323,92.534z M188.304,92.486l2.779-1.16l0.009-0.003h0.015l4.588-0.032c0.775,0.002,1.535-0.039,2.302-0.024
					c0.767-0.006,1.53,0.035,2.292,0.068l-0.126,0.027c0.623-0.316,1.256-0.611,1.892-0.905l0.367-0.171l-0.038,0.393l-0.229,2.236
					l-0.018,0.182l-0.175-0.017l-0.894-0.089l0.092-0.02l-5.838,3.178l-0.064,0.035l-0.054-0.046l-3.623-3.177l0.038,0.011
					l-6.783,1.125l-0.2,0.034l0.187-0.083L188.304,92.486z"/>
			</g>
			<g>
				<polyline fill="none" points="197.983,89.459 190.606,90.415 182.824,94.187 179.948,96.387 				"/>
				<path d="M197.987,89.485l-7.366,1.054l0.039-0.011l-3.851,1.969c-1.279,0.664-2.555,1.335-3.885,1.896l0.039-0.024
					c-0.979,0.709-1.977,1.389-3.001,2.039l-0.032-0.042c0.896-0.818,1.813-1.604,2.756-2.362l0.012-0.008l0.029-0.017
					c1.264-0.696,2.58-1.283,3.895-1.876l3.932-1.803l0.02-0.009l0.019-0.002l7.392-0.856L197.987,89.485z"/>
			</g>
			<g>
				<path fill="none" d="M199.558,94.602l-4.574,2.336l-4.334-3.06c0,0-4.773,0.262-5.08,0.724"/>
				<path d="M199.567,94.625l-4.539,2.402l-0.053,0.028l-0.056-0.035l-4.409-2.953l0.146,0.042
					c-0.852,0.085-1.707,0.171-2.562,0.213l-1.279,0.084c-0.416,0.049-0.879,0.032-1.229,0.208l-0.044-0.028
					c0.35-0.335,0.807-0.387,1.221-0.509c0.424-0.11,0.854-0.17,1.28-0.239c0.856-0.133,1.722-0.179,2.587-0.196l0.09-0.001
					l0.057,0.044l4.259,3.168l-0.104-0.008l4.608-2.269L199.567,94.625z"/>
			</g>
			<g>
				<polyline fill="none" points="200.81,90.554 199.062,90.415 191.608,91.078 				"/>
				<path d="M200.808,90.581c-0.59,0.031-1.175,0.044-1.762,0.047h0.036c-1.24,0.139-2.478,0.302-3.724,0.376
					c-1.246,0.065-2.491,0.135-3.748,0.101l-0.004-0.053c1.229-0.255,2.469-0.406,3.705-0.563c1.239-0.146,2.486-0.205,3.732-0.287
					l0.025-0.001l0.01,0.001c0.578,0.095,1.154,0.202,1.729,0.326V90.581z"/>
			</g>
			<g>
				<path fill="none" d="M179.765,106.456l5.438,5.123l3.796,3.019l1.589,1.563l1.737,1.247c0,0,2.378,0.951,2.826,0.99
					c0.447,0.04,3.793,0.124,3.793,0.124l-0.783,1.665l-6.195-1.815l-2.669-2.252l-4.287-3.152l-2.375-2.289L179.765,106.456z"/>
				<path d="M179.624,106.29l5.632,5.232l-0.005-0.003l3.828,2.978l0.005,0.003l0.007,0.006l1.602,1.55l-0.018-0.015l1.746,1.233
					l-0.033-0.019c0.524,0.204,1.057,0.403,1.586,0.592c0.267,0.093,0.531,0.185,0.797,0.266c0.271,0.096,0.485,0.112,0.787,0.116
					l3.395,0.089l0.309,0.007l-0.13,0.283l-0.766,1.674l-0.08,0.173l-0.187-0.054l-6.207-1.782l-0.053-0.016l-0.042-0.036
					l-1.685-1.42l-0.844-0.71c-0.254-0.216-0.58-0.434-0.867-0.651l-3.514-2.659l-0.016-0.01l-0.007-0.007l-2.314-2.353l-0.011-0.01
					l-0.006-0.008L179.624,106.29z M179.786,106.441l2.941,4.175l-0.018-0.018l2.438,2.225l-0.021-0.017l3.589,2.561
					c0.298,0.227,0.585,0.415,0.894,0.674l0.842,0.711l1.682,1.422l-0.093-0.05l6.188,1.847l-0.268,0.12l0.803-1.656l0.18,0.291
					l-3.398-0.116c-0.145-0.007-0.275-0.011-0.439-0.027c-0.172-0.029-0.303-0.072-0.441-0.116
					c-0.273-0.088-0.543-0.185-0.811-0.284c-0.533-0.199-1.062-0.407-1.588-0.621l-0.021-0.008l-0.015-0.011l-1.727-1.262
					l-0.011-0.008l-0.009-0.007l-1.575-1.575l0.01,0.009l-3.763-3.06l-0.004-0.002l-0.002-0.002l-5.403-5.16L179.786,106.441z"/>
			</g>
			<g>
				<path fill="none" d="M179.765,104.323l1.428,2.347l4.349,3.67c0,0,3.66,2.299,4.003,2.46c0.344,0.16,2.146,2.381,2.301,2.803
					l3.832,1.089"/>
				<path d="M179.786,104.31l1.479,2.317l-0.02-0.02l4.414,3.594l-0.02-0.015c1.188,0.721,2.379,1.439,3.576,2.133l0.436,0.241
					c0.25,0.146,0.33,0.263,0.471,0.394c0.253,0.256,0.479,0.523,0.702,0.795c0.446,0.564,0.866,1.054,1.233,1.774l-0.149-0.139
					c1.271,0.391,2.528,0.82,3.776,1.281l-0.013,0.05c-1.308-0.266-2.604-0.562-3.889-0.898l-0.078-0.021l-0.071-0.119
					c-0.3-0.5-0.802-1.069-1.223-1.587c-0.223-0.261-0.449-0.521-0.676-0.768c-0.104-0.113-0.258-0.263-0.311-0.292
					c-0.183-0.098-0.312-0.185-0.469-0.279l-3.51-2.261l-0.014-0.008l-0.009-0.007l-4.284-3.745l-0.013-0.01l-0.005-0.01
					l-1.383-2.376L179.786,104.31z"/>
			</g>
			<g>
				<path fill="none" d="M177.66,105.21l-0.777,0.546c0,0,1.276,2.485,1.62,2.587c0.346,0.104,1.28,2.058,1.28,2.058
					s2.245,3.044,2.256,3.567c0.008,0.523,3.815,3.759,4.054,4.141c0.235,0.381,3.754,2.636,3.754,2.636l3.303,1.227l3.604,0.189
					l3.975-1.097l0.276-0.912l0.108-1.865l-1.657-2.67l-3.47-0.017l-4.793-2.28l-2.193-2.817l-2.859-1.177l-1.935-1.917
					l-0.978-1.054l-2.096-1.542l-0.91-0.525"/>
				<path d="M177.676,105.232c-0.235,0.215-0.464,0.44-0.706,0.648l0.049-0.193c0.43,0.801,0.859,1.632,1.385,2.345
					c0.072,0.087,0.127,0.159,0.195,0.176c0.178,0.107,0.221,0.196,0.305,0.295c0.146,0.195,0.269,0.394,0.385,0.596
					c0.234,0.404,0.447,0.812,0.65,1.23l-0.018-0.027c0.723,0.992,1.441,1.972,2.066,3.051c0.074,0.14,0.147,0.274,0.205,0.448
					c0.015,0.042,0.025,0.095,0.031,0.163c-0.002-0.037,0.006,0.021,0.008,0.028l0.015,0.013c0.017,0.031,0.062,0.102,0.103,0.154
					c0.172,0.226,0.381,0.446,0.594,0.662c0.425,0.431,0.867,0.847,1.315,1.261l1.345,1.242c0.227,0.217,0.449,0.401,0.668,0.677
					c0.147,0.164,0.433,0.363,0.664,0.534c0.987,0.702,2.015,1.365,3.037,2.021l-0.041-0.021l3.305,1.211l-0.072-0.015l3.605,0.174
					l-0.082,0.008l3.973-1.097l-0.18,0.174l0.278-0.912l-0.013,0.061l0.107-1.865l0.037,0.152l-1.656-2.669l0.22,0.124l-3.47-0.042
					h-0.055l-0.046-0.023l-4.778-2.311l-0.043-0.021l-0.028-0.036l-2.171-2.836l0.07,0.053l-2.856-1.187l-0.03-0.013l-0.021-0.021
					l-1.463-1.478c-0.5-0.477-0.947-1.027-1.39-1.554l0.013,0.01l-2.069-1.577l0.004,0.001l-0.909-0.529l0.025-0.046l0.914,0.521
					l0,0l0.002,0.001l2.121,1.505l0.006,0.003l0.008,0.006l1.475,1.459l1.493,1.449l-0.055-0.035l2.866,1.167l0.041,0.017
					l0.029,0.036l2.219,2.798l-0.072-0.058l4.806,2.251l-0.101-0.022l3.471-0.009h0.145l0.078,0.124l1.657,2.67l0.043,0.07
					l-0.004,0.082l-0.11,1.865l-0.002,0.031l-0.008,0.031l-0.279,0.912l-0.041,0.136l-0.139,0.038l-3.972,1.096l-0.042,0.011
					l-0.043-0.002l-3.604-0.205l-0.039-0.002l-0.033-0.013l-3.297-1.243l-0.021-0.009l-0.02-0.013
					c-1.024-0.67-2.043-1.34-3.039-2.064c-0.252-0.197-0.487-0.336-0.748-0.627c-0.157-0.204-0.4-0.42-0.614-0.628l-1.336-1.25
					c-0.445-0.419-0.89-0.842-1.317-1.284c-0.214-0.223-0.425-0.446-0.622-0.704c-0.052-0.071-0.092-0.125-0.145-0.232l-0.035-0.092
					c-0.005-0.031-0.005-0.01-0.015-0.084c-0.002-0.009-0.006-0.031-0.014-0.061c-0.037-0.117-0.107-0.253-0.176-0.382
					c-0.592-1.042-1.312-2.039-2.018-3.025l-0.01-0.014l-0.008-0.014c-0.199-0.409-0.406-0.817-0.632-1.21
					c-0.112-0.197-0.229-0.391-0.356-0.565c-0.054-0.081-0.156-0.182-0.174-0.194c-0.156-0.061-0.244-0.187-0.316-0.272
					c-0.291-0.385-0.516-0.785-0.744-1.187c-0.229-0.402-0.446-0.809-0.656-1.219l-0.066-0.128l0.113-0.065
					c0.277-0.157,0.566-0.294,0.85-0.443L177.676,105.232z"/>
			</g>
			<g>
				<polygon fill="none" points="180.253,103.664 179.226,102.69 177.865,101.524 176.216,101.514 175.674,102.074 176.709,104.569 
					176.711,105.55 180.22,104.291 				"/>
				<path d="M180.226,103.673c-0.399-0.347-0.793-0.709-1.197-1.042l-1.245-1.009l0.083,0.031l-1.649,0.027l0.121-0.051
					l-0.522,0.578l0.039-0.206l1.102,2.469l0.018,0.043v0.056l0.014,0.98l-0.363-0.254c1.173-0.413,2.355-0.794,3.553-1.139
					l-0.093,0.127C180.112,104.08,180.167,103.876,180.226,103.673z M180.278,103.665c0.037,0.212,0.07,0.424,0.084,0.634
					l0.006,0.084l-0.1,0.043c-1.143,0.494-2.297,0.953-3.465,1.379l-0.365,0.133l0.002-0.387l0.01-0.98l0.018,0.1l-0.968-2.523
					l-0.048-0.122l0.087-0.083l0.56-0.543l0.055-0.052l0.065,0.001l1.648,0.048l0.052,0.001l0.032,0.029l1.188,1.08
					c0.205,0.18,0.379,0.378,0.57,0.567l0.568,0.578V103.665z"/>
			</g>
			<g>
				<polyline fill="none" points="179.417,103.969 177.492,104.106 176.883,104.486 				"/>
				<path d="M179.419,103.995c-0.316,0.072-0.634,0.154-0.952,0.209c-0.159,0.032-0.317,0.057-0.477,0.095
					c-0.161,0.032-0.316,0.084-0.479,0.072l0.12-0.039c-0.222,0.096-0.448,0.185-0.735,0.177l-0.027-0.044
					c0.119-0.262,0.3-0.426,0.484-0.582l0.021-0.018l0.101-0.021c0.158-0.035,0.32-0.005,0.484,0.002
					c0.162,0.015,0.322,0.018,0.484,0.026c0.322,0.009,0.647,0.046,0.973,0.071L179.419,103.995z"/>
			</g>
		</g>
		<g>
			<path fill="none" d="M144.597,143.924c4.734,10.804,5.799,12.376,4.228,9.541"/>
			<path fill="#0C0C0C" d="M144.644,143.901c1.025,1.964,2.035,3.933,3.033,5.902c0.497,0.984,1.082,1.93,1.481,2.959
				c0.2,0.514,0.399,1.027,0.569,1.559l0.065,0.205l0.013,0.033l0.012,0.027c0.013,0.039,0.02,0.086,0.018,0.128
				c-0.021,0.062,0.039,0.027-0.093,0.218c-0.39,0.272-0.597-0.16-0.522-0.056l-0.004-0.007l-0.009-0.016l-0.021-0.056l-0.037-0.101
				l-0.135-0.397c-0.076-0.271-0.17-0.534-0.234-0.813l0.091-0.051c0.203,0.203,0.376,0.424,0.562,0.638l0.26,0.331l0.062,0.082
				l0.026,0.031v-0.002l0,0c0.074,0.104-0.133-0.326-0.521-0.051c-0.131,0.191-0.07,0.153-0.093,0.213
				c-0.004,0.043,0.003,0.088,0.017,0.124c0.015,0.036,0.004,0.011,0.006,0.019c0,0.002-0.006-0.008-0.01-0.014l-0.113-0.17
				c-0.308-0.463-0.586-0.947-0.853-1.432c-0.541-0.971-0.882-2.032-1.297-3.059c-0.832-2.051-1.619-4.121-2.367-6.205
				L144.644,143.901z"/>
		</g>
		<g>
			<path fill="none" d="M151.394,119.394c1.683,7.342,3.481,0.784,0.039,31.462"/>
			<path fill="#0C0C0C" d="M151.444,119.381c0.318,1.292,0.787,2.52,1.326,3.735c0.556,1.228,0.789,2.602,0.863,3.935
				c0.131,2.681-0.029,5.341-0.18,7.994c-0.161,2.654-0.305,5.312-0.645,7.948c-0.369,2.633-0.734,5.264-1.328,7.867l-0.103-0.012
				c-0.003-2.67,0.211-5.316,0.39-7.964c0.205-2.646,0.58-5.271,0.852-7.907c0.254-2.635,0.518-5.278,0.488-7.908
				c-0.008-1.315-0.154-2.61-0.631-3.842c-0.475-1.235-0.888-2.521-1.136-3.826L151.444,119.381z"/>
		</g>
		<path fill="#0C0C0C" d="M182.626,54.986c-0.797,3.806-1.521,7.625-2.232,11.444l-2.058,11.476l-1.901,11.502
			c-0.322,2.042,0.479,4.141,0.041,6.674c-0.076,0.431-1.211,3.346-1.033,3.13c2.858-3,0.787-5.895,1.502-9.716l2.055-11.475
			l1.9-11.502C181.505,62.68,182.103,58.84,182.626,54.986z"/>
		<path fill="#0C0C0C" d="M140.724,28.458c-0.25,3.711,0.938,19.873,1.016,23.586c0.064,3.717,0.687,15.734,0.917,19.442
			c0.241,3.706,0.542,7.409,0.903,11.105c0.385,3.695,0.53,7.136,0.414,10.851c-0.035,1.034-0.397,1.97,0.084,2.92
			c0.104,0.203,0.683,0.946,0.914,0.568c0.219-0.357-0.429-0.628-0.578-0.84c-0.162-0.228,0.139-2.549,0.139-2.549
			s0.094-7.312-0.111-11.019l-0.727-11.105l-0.842-16.432C141.53,47.642,140.888,32.17,140.724,28.458z"/>
	</g>
</g>
<g id="storebag">
	<path display="none" d="M-18.51,120.868c0.008,0.569,0.115,1.009,0.312,1.315c0.363,0.558,1.062,0.897,2.094,1.022
		c0.618,0.077,1.128,0.07,1.531-0.016c0.763-0.169,1.187-0.598,1.271-1.292c0.048-0.406-0.095-0.741-0.423-1.008
		c-0.334-0.258-0.879-0.521-1.637-0.78l-1.294-0.454c-1.272-0.446-2.132-0.87-2.579-1.267c-0.758-0.667-1.066-1.603-0.92-2.809
		c0.133-1.098,0.648-1.965,1.547-2.595c0.897-0.629,2.128-0.85,3.699-0.659c1.311,0.159,2.386,0.637,3.229,1.437
		c0.842,0.797,1.206,1.853,1.09,3.163l-2.465-0.299c0.044-0.744-0.224-1.31-0.798-1.695c-0.385-0.256-0.883-0.419-1.492-0.493
		c-0.678-0.083-1.236-0.015-1.671,0.202c-0.436,0.217-0.687,0.566-0.741,1.044c-0.056,0.438,0.106,0.79,0.477,1.055
		c0.24,0.175,0.761,0.412,1.57,0.706l2.095,0.769c0.917,0.338,1.591,0.722,2.016,1.151c0.663,0.666,0.926,1.545,0.796,2.641
		c-0.137,1.123-0.685,2-1.642,2.638c-0.958,0.635-2.227,0.858-3.811,0.667c-1.617-0.199-2.845-0.717-3.683-1.559
		c-0.837-0.843-1.178-1.902-1.023-3.182L-18.51,120.868z"/>
	<path display="none" d="M-7.951,113.533l2.606,0.316l-0.916,7.542c-0.1,0.844-0.075,1.471,0.076,1.884
		c0.227,0.726,0.861,1.152,1.903,1.279c1.034,0.125,1.749-0.14,2.14-0.789c0.246-0.363,0.421-0.967,0.525-1.81l0.913-7.543
		l2.607,0.317l-0.915,7.548c-0.159,1.306-0.486,2.297-0.976,2.977c-0.916,1.24-2.439,1.735-4.561,1.476
		c-2.123-0.259-3.485-1.1-4.083-2.524c-0.314-0.777-0.393-1.818-0.236-3.122L-7.951,113.533z"/>
	<path display="none" d="M11.77,122.991c-0.789,0.513-1.853,0.689-3.188,0.527l-2.558-0.311l-0.534,4.416l-2.55-0.307l1.489-12.283
		l5.273,0.64c1.217,0.147,2.147,0.582,2.792,1.302c0.646,0.721,0.889,1.745,0.728,3.072
		C13.046,121.498,12.562,122.478,11.77,122.991z M10.349,118.331c-0.292-0.312-0.729-0.503-1.317-0.574l-2.309-0.28l-0.44,3.616
		l2.311,0.28c0.584,0.071,1.061-0.021,1.421-0.276c0.361-0.255,0.579-0.702,0.657-1.341
		C10.749,119.117,10.641,118.641,10.349,118.331z"/>
	<path display="none" d="M24.57,119.682l-6.498-0.788l-0.316,2.608l5.966,0.725l-0.259,2.132l-5.965-0.722l-0.383,3.157l6.798,0.823
		l-0.268,2.209l-9.308-1.129l1.49-12.282l9.007,1.094L24.57,119.682z"/>
	<path display="none" d="M34.965,119.058c0.428,0.247,0.777,0.579,1.045,0.996c0.224,0.343,0.388,0.712,0.493,1.108
		c0.106,0.395,0.13,0.835,0.072,1.319c-0.072,0.583-0.289,1.138-0.652,1.667c-0.363,0.529-0.897,0.868-1.603,1.018
		c0.54,0.297,0.901,0.669,1.086,1.118c0.186,0.449,0.227,1.103,0.121,1.963l-0.1,0.824c-0.068,0.562-0.092,0.945-0.07,1.15
		c0.029,0.326,0.158,0.578,0.389,0.758l-0.038,0.309l-2.833-0.342c-0.044-0.285-0.072-0.51-0.087-0.68
		c-0.024-0.355-0.018-0.711,0.021-1.072l0.121-1.143c0.084-0.786,0.013-1.325-0.215-1.617c-0.229-0.293-0.701-0.481-1.416-0.569
		l-2.505-0.303l-0.585,4.817l-2.509-0.307l1.49-12.28l5.874,0.712C33.904,118.625,34.537,118.808,34.965,119.058z M29.441,120.23
		l-0.4,3.3l2.762,0.333c0.549,0.067,0.966,0.05,1.26-0.05c0.512-0.175,0.81-0.606,0.894-1.295c0.09-0.744-0.083-1.271-0.522-1.584
		c-0.247-0.177-0.633-0.297-1.16-0.361L29.441,120.23z"/>
	<path display="none" d="M45.017,128.567c0.012,0.572,0.117,1.012,0.315,1.316c0.364,0.555,1.062,0.898,2.095,1.023
		c0.618,0.074,1.128,0.068,1.53-0.018c0.762-0.168,1.187-0.596,1.271-1.291c0.048-0.406-0.092-0.742-0.423-1.008
		c-0.333-0.26-0.88-0.521-1.635-0.781l-1.295-0.454c-1.273-0.446-2.132-0.868-2.579-1.268c-0.758-0.666-1.066-1.603-0.919-2.809
		c0.134-1.099,0.648-1.964,1.548-2.593c0.896-0.63,2.13-0.849,3.7-0.659c1.309,0.158,2.386,0.636,3.227,1.434
		c0.842,0.798,1.207,1.854,1.093,3.164l-2.466-0.297c0.044-0.745-0.223-1.31-0.801-1.696c-0.385-0.255-0.88-0.42-1.491-0.494
		c-0.678-0.083-1.235-0.013-1.671,0.204c-0.437,0.217-0.685,0.564-0.743,1.042c-0.052,0.439,0.107,0.792,0.479,1.057
		c0.239,0.174,0.763,0.41,1.57,0.707l2.093,0.768c0.919,0.337,1.591,0.72,2.016,1.149c0.662,0.667,0.928,1.547,0.795,2.641
		c-0.137,1.121-0.683,2.002-1.64,2.639c-0.958,0.637-2.229,0.859-3.811,0.666c-1.618-0.195-2.846-0.715-3.682-1.559
		c-0.838-0.842-1.18-1.902-1.025-3.182L45.017,128.567z"/>
	<path display="none" d="M64.501,122.316l-0.264,2.175l-3.675-0.446l-1.225,10.106l-2.582-0.314l1.225-10.105l-3.69-0.447
		l0.264-2.175L64.501,122.316z"/>
	<path display="none" d="M68.703,135.587c-1.301-0.301-2.284-0.888-2.949-1.764c-1.104-1.324-1.521-3.088-1.253-5.293
		c0.273-2.25,1.1-3.863,2.48-4.84c1.042-0.843,2.442-1.157,4.199-0.945c0.97,0.118,1.795,0.367,2.478,0.745"/>
	<path d="M73.522,123.49c0.552,0.307,1.628,1.388,1.992,1.866c0.303,0.352-0.103,0.468-0.103,0.468
		c0.523,1.12,0.39,2.463,0.193,4.092c-0.268,2.207-1.091,3.82-2.472,4.842c-0.558,0.451-1.217,0.75-1.979,0.898
		c-0.663,0.129-0.868,0.185-1.685,0.087c-0.316-0.038-0.842-0.264-0.901-0.639l0.69-2.259c0.223,0.074,0.221,0.69,0.475,0.722
		c1.016,0.123,1.869-0.152,2.557-0.832c0.688-0.676,1.116-1.707,1.283-3.09c0.167-1.377-0.001-2.479-0.508-3.303
		c-0.126-0.207-0.269-0.391-0.427-0.554L73.522,123.49z"/>
	<path display="none" d="M72.771,125.789c-0.475-0.487-1.094-0.776-1.855-0.868c-1.017-0.124-1.874,0.153-2.571,0.829
		c-0.695,0.676-1.126,1.707-1.294,3.089c-0.168,1.383,0.004,2.486,0.52,3.309c0.385,0.618,0.913,1.038,1.582,1.262"/>
	<polygon points="78.908,136.585 76.375,136.376 79.033,124.077 83.877,125.13 83.063,126.731 81.282,126.514 80.479,129.642 
		82.165,129.97 81.374,132.068 79.972,131.917 	"/>
	<path display="none" d="M82.165,129.97l1.479,0.18c0.549,0.064,0.967,0.049,1.26-0.051c0.514-0.176,0.81-0.607,0.895-1.295
		c0.089-0.744-0.083-1.274-0.522-1.585c-0.246-0.176-0.633-0.296-1.162-0.359l-1.05-0.128"/>
	<polyline points="91.082,137.934 86.929,137.451 87.979,131.065 89.02,125.13 92.689,125.666 92.406,127.838 90.239,127.575 
		89.923,130.183 91.944,130.428 91.762,132.569 89.665,132.315 89.282,135.474 91.438,135.735 	"/>
	<polyline display="none" points="92.694,130.428 96.638,130.905 96.38,133.04 92.512,132.569 	"/>
	<polyline display="none" points="93.439,125.666 97.75,126.188 97.488,128.364 93.156,127.838 	"/>
	<polyline display="none" points="92.188,135.735 96.831,136.298 96.562,138.507 91.832,137.934 	"/>
	<path display="none" d="M83.877,136.982l0.808,0.098l0.039-0.307c-0.231-0.18-0.36-0.434-0.39-0.758"/>
	<path d="M84.026,136.161c-0.022-0.207-0.354-0.733-0.287-1.296l0.1-0.826c0.104-0.859,0.573-1.516,0.388-1.963
		c-0.185-0.447-0.547-0.82-1.086-1.117c0.705-0.148,1.24-0.49,1.604-1.018c0.362-0.529,0.58-1.084,0.65-1.668
		c0.059-0.482,0.034-0.922-0.071-1.319c-0.106-0.396-0.27-0.766-0.493-1.108c-0.209-0.324-0.469-0.598-0.776-0.821l-0.542,1.424
		c0.623,0.252,0.9,1.149,0.617,2.064c-0.294,0.949-1.079,1.55-1.751,1.342c-0.049-0.016-0.092-0.042-0.137-0.065l-0.867,2.278
		c0.063,0.049,0.117,0.103,0.162,0.16c0.229,0.291-0.208,0.83-0.293,1.615l-0.122,1.143c-0.038,0.361-0.044,0.721-0.021,1.072
		c0.014,0.172,0.043,0.398,0.087,0.678l2.491,0.368"/>
	<path display="none" d="M165.641,194.036c-12.373,0-22.403-10.03-22.403-22.403s10.03-22.403,22.403-22.403"/>
	<path display="none" d="M165.641,188.661c-9.404,0-17.028-7.624-17.028-17.028s7.624-17.028,17.028-17.028"/>
</g>
</svg>
