<?xml version="1.0" encoding="utf-8"?>
<!-- Generator: Adobe Illustrator 15.1.0, SVG Export Plug-In . SVG Version: 6.00 Build 0)  -->
<!DOCTYPE svg PUBLIC "-//W3C//DTD SVG 1.1//EN" "http://www.w3.org/Graphics/SVG/1.1/DTD/svg11.dtd">
<svg version="1.1" id="Layer_1" xmlns="http://www.w3.org/2000/svg" xmlns:xlink="http://www.w3.org/1999/xlink" x="0px" y="0px"
	 width="151px" height="151px" viewBox="-0.341 -0.307 151 151" enable-background="new -0.341 -0.307 151 151"
	 xml:space="preserve">
<g id="Sandle">
	<g>
		
			<path fill="none" stroke="#151819" stroke-width="0.6924" stroke-linecap="round" stroke-linejoin="round" stroke-miterlimit="10" d="
			M27.03,72.206c0,0-1.587,4.011-1.731,5.05l7.79,18.608l5.511,13.878c0,0,11.627,0.838,13.792-0.174c0,0-0.087-0.979-1.414-3.436
			c-1.327-2.449-7.848-15.667-7.848-15.667"/>
		
			<path fill="none" stroke="#151819" stroke-width="0.3462" stroke-linecap="round" stroke-linejoin="round" stroke-miterlimit="10" d="
			M34.531,28.034c0,0-1.731,2.856-1.904,14.801c0,0,0.531,0.115,0.877-0.519c0.346-0.635,0.19,5.713-1.974,10.242
			c0,0-1.611,4.292-0.433,5.049c0.446,0.287,0.533-0.246,0.879-0.88c0,0-0.995,4.371-1.688,6.074
			c-0.692,1.702-0.692,3.202-2.712,5.078c0,0-2.423,2.972-1.817,4.327c0,0,0.202,0.52,1.27,0"/>
		
			<path fill="none" stroke="#151819" stroke-width="0.6924" stroke-linecap="round" stroke-linejoin="round" stroke-miterlimit="10" d="
			M63.614,34.093c0,0-25.88-5.626-29.083-6.059"/>
		<path fill="#151819" d="M39.523,85.132c-0.094,0-0.188-0.038-0.256-0.112c-0.92-1.01-9.008-9.895-9.525-11.086
			c-1.137-2.623,0.441-6.087,0.748-6.504c0.113-0.154,0.346-0.373,0.346-0.373c0.154,0.113,0.188,0.33,0.075,0.483
			c-0.232,0.317-1.531,3.817-0.533,6.119c0.357,0.822,5.818,6.967,9.402,10.896c0.129,0.141,0.119,0.358-0.022,0.487
			C39.69,85.102,39.606,85.132,39.523,85.132z"/>
		
			<path fill="none" stroke="#151819" stroke-width="0.6924" stroke-linecap="round" stroke-linejoin="round" stroke-miterlimit="10" d="
			M42.552,83.775c-0.347-0.918-6.847,3.322-7.155,3.69c-3.493,4.201,1.529,6.405,5.54,3.927l3.78-2.052
			C44.716,89.344,42.559,83.793,42.552,83.775z"/>
		
			<ellipse fill="none" stroke="#151819" stroke-width="0.6924" stroke-linecap="round" stroke-linejoin="round" stroke-miterlimit="10" cx="37.853" cy="88.954" rx="1.616" ry="1.486"/>
		
			<path fill="none" stroke="#151819" stroke-width="0.3462" stroke-linecap="round" stroke-linejoin="round" stroke-miterlimit="10" d="
			M30.232,73.534c0,0,9.262,6.261,9.694,7.241"/>
		
			<path fill="none" stroke="#151819" stroke-width="0.3462" stroke-linecap="round" stroke-linejoin="round" stroke-miterlimit="10" d="
			M44.248,85.291c0,0,4.739,6.506,5.056,7.457"/>
		
			<line fill="none" stroke="#151819" stroke-width="0.3462" stroke-linecap="round" stroke-linejoin="round" stroke-miterlimit="10" x1="50.66" y1="95.201" x2="51.728" y2="97.365"/>
		
			<path fill="none" stroke="#151819" stroke-width="0.3462" stroke-linecap="round" stroke-linejoin="round" stroke-miterlimit="10" d="
			M32.656,95.895c0,0-11.31-0.752-12.955,1.935"/>
		
			<path fill="none" stroke="#151819" stroke-width="0.6924" stroke-linecap="round" stroke-linejoin="round" stroke-miterlimit="10" d="
			M19.702,97.826c0,0,5.8,2.771,14.945,2.48"/>
		
			<path fill="none" stroke="#151819" stroke-width="0.6924" stroke-linecap="round" stroke-linejoin="round" stroke-miterlimit="10" d="
			M19.529,98.027c0,0,0.173,6.464,0.75,8.83"/>
		
			<path fill="none" stroke="#151819" stroke-width="0.6924" stroke-linecap="round" stroke-linejoin="round" stroke-miterlimit="10" d="
			M20.048,106.627c0,0-1.355,0.489-1.385,1.326"/>
		
			<path fill="none" stroke="#151819" stroke-width="1.0387" stroke-linecap="round" stroke-linejoin="round" stroke-miterlimit="10" d="
			M20.279,107.29c0,0-0.146,1.271,8.973,1.817c8.656,0.52,9.088,0.4,9.088,0.4"/>
		
			<path fill="none" stroke="#151819" stroke-width="1.0387" stroke-linecap="round" stroke-linejoin="round" stroke-miterlimit="10" d="
			M132.857,108.406c0.086,0.914-0.346,2.895-0.346,2.895c-11.342,6.146-42.761,3.723-42.761,3.723
			c-6.489-1.729-52.366-1.848-52.366-1.848v0.317c-0.779,0.376-4.789-0.146-11.281-0.317c-6.492-0.171-7.299-1.847-7.299-1.847
			l-0.145-3.376"/>
		
			<path fill="none" stroke="#151819" stroke-width="1.0387" stroke-linecap="round" stroke-linejoin="round" stroke-miterlimit="10" d="
			M132.426,108.012c-8.568,6.973-46.395,3.202-46.395,3.202c-4.934-1.646-33.64-1.646-33.64-1.646"/>
		
			<path fill="none" stroke="#151819" stroke-width="0.6924" stroke-linecap="round" stroke-linejoin="round" stroke-miterlimit="10" d="
			M110.182,103.598c0,0,16.791,1.299,21.032,2.336c0,0,1.97,0.437,1.386,1.84"/>
		
			<path fill="none" stroke="#151819" stroke-width="0.6924" stroke-linecap="round" stroke-linejoin="round" stroke-miterlimit="10" d="
			M49.304,101.723c0,0,19.425,2.672,23.182,4.774"/>
		
			<path fill="none" stroke="#151819" stroke-width="0.6924" stroke-linecap="round" stroke-linejoin="round" stroke-miterlimit="10" d="
			M78.561,107.773c0,0,7.321,2.062,8.623,3.547"/>
		
			<path fill="none" stroke="#151819" stroke-width="0.6924" stroke-linecap="round" stroke-linejoin="round" stroke-miterlimit="10" d="
			M46.707,96.586c0,0,27.423,4.891,28.029,5.583"/>
		
			<path fill="none" stroke="#151819" stroke-width="1.0387" stroke-linecap="round" stroke-linejoin="round" stroke-miterlimit="10" d="
			M75.484,100.514c0,0,0.507,3.562,4.965,2.607"/>
		
			<path fill="none" stroke="#151819" stroke-width="0.6924" stroke-linecap="round" stroke-linejoin="round" stroke-miterlimit="10" d="
			M99.361,103.812l-10.084,0.297c-3.812,0.47-8.482-1.336-8.482-1.336l2.076-3.854c-0.91,0-4.905-2.337-4.905-2.337l-2.481,3.638"/>
		
			<path fill="none" stroke="#151819" stroke-width="0.6924" stroke-linecap="round" stroke-linejoin="round" stroke-miterlimit="10" d="
			M80.449,103.511c0,0-1.645,4.371-2.943,6.231"/>
		
			<path fill="none" stroke="#151819" stroke-width="0.6924" stroke-linecap="round" stroke-linejoin="round" stroke-miterlimit="10" d="
			M75.039,101.087c0,0-2.38,6.272-4.328,8.459"/>
		
			<path fill="none" stroke="#151819" stroke-width="0.6072" stroke-linecap="round" stroke-linejoin="round" stroke-miterlimit="10" d="
			M80.303,100.33c-0.26,0.297-0.744,0.497-1.297,0.497c-0.828,0-1.5-0.447-1.5-0.998c0-0.224,0.111-0.431,0.296-0.597"/>
		
			<path fill="none" stroke="#151819" stroke-width="0.3462" stroke-linecap="round" stroke-linejoin="round" stroke-miterlimit="10" d="
			M77.802,99.232c0.273-0.243,0.712-0.401,1.204-0.401c0.829,0,1.5,0.446,1.5,0.998c0,0.183-0.074,0.354-0.203,0.501"/>
		
			<path fill="none" stroke="#151819" stroke-width="0.6924" stroke-linecap="round" stroke-linejoin="round" stroke-miterlimit="10" d="
			M107.844,111.689c2.641-4.85,3.159-16.445,3.159-16.445c-1.255,0.39-9.997-1.602-9.997-1.602s-1.169,14.491-4.934,17.678"/>
		
			<path fill="none" stroke="#151819" stroke-width="0.3462" stroke-linecap="round" stroke-linejoin="round" stroke-miterlimit="10" d="
			M97.674,92.734c0,0,1.73-1.213,4.457,0c2.727,1.211,3.637,0.865,3.938,0.908c0.306,0.043,0,0.69,0,0.69"/>
		
			<path fill="none" stroke="#151819" stroke-width="0.3462" stroke-linecap="round" stroke-linejoin="round" stroke-miterlimit="10" d="
			M97.284,94.639c0,0,0.821,1.516,3.159,1.082"/>
		
			<path fill="none" stroke="#151819" stroke-width="0.3462" stroke-linecap="round" stroke-linejoin="round" stroke-miterlimit="10" d="
			M82.611,90.7c0,0,8.096,3.026,13.244,2.337c5.147-0.688,4.152,0.087,5.147,0.605"/>
		
			<path fill="none" stroke="#151819" stroke-width="0.3462" stroke-linecap="round" stroke-linejoin="round" stroke-miterlimit="10" d="
			M82.05,91.912c0,0,9.325,3.604,15.624,2.554c0,0,2.553,0.353,2.77-1.181"/>
		
			<path fill="none" stroke="#151819" stroke-width="0.3462" stroke-linecap="round" stroke-linejoin="round" stroke-miterlimit="10" d="
			M95.641,94.662c0,0-6.75,3.242-8.457,4.169c-1.551,0.841-3.146,1.174-4.312,0.958"/>
		
			<path fill="none" stroke="#151819" stroke-width="0.3462" stroke-linecap="round" stroke-linejoin="round" stroke-miterlimit="10" d="
			M97.284,95.219c0,0-4.241,1.367-7.099,3.401c-2.856,2.034-7.746,3.103-8.139,1.767"/>
		
			<path fill="none" stroke="#151819" stroke-width="0.3462" stroke-linecap="round" stroke-linejoin="round" stroke-miterlimit="10" d="
			M71.837,101.087c0,0,1.125-3.981,1.558-4.198"/>
		
			<path fill="none" stroke="#151819" stroke-width="0.3462" stroke-linecap="round" stroke-linejoin="round" stroke-miterlimit="10" d="
			M74.217,94.639c0,0,1.139-2.943,1.608-3.723"/>
		
			<path fill="none" stroke="#151819" stroke-width="0.3462" stroke-linecap="round" stroke-linejoin="round" stroke-miterlimit="10" d="
			M76.641,89.143l0.562-0.908c0,0,5.236,1.517,5.408,1.517c0.175,0-0.604,1.799-1.729,3.521c-1.125,1.719-1.938,3.332-1.903,3.623"
			/>
		
			<path fill="none" stroke="#151819" stroke-width="0.3462" stroke-linecap="round" stroke-linejoin="round" stroke-miterlimit="10" d="
			M43.422,80.432c0.752,0.771,1.593,1.748,2.102,2.002c0.952,0.479-0.649,1.948-1.774,3.203"/>
		
			<path fill="none" stroke="#151819" stroke-width="0.3462" stroke-linecap="round" stroke-linejoin="round" stroke-miterlimit="10" d="
			M37.97,82.881c0,0,3.029-2.553,3.549-3.158c0.149-0.176,0.433-0.047,0.783,0.234"/>
		
			<path fill="none" stroke="#151819" stroke-width="0.6924" stroke-linecap="round" stroke-linejoin="round" stroke-miterlimit="10" d="
			M51.54,45.908c0,0-5.9-1.861-7.083-1.601c0,0-4.905,1.904-0.577,5.972l6.319,1.082c0,0,1.039-4.501,1.341-5.107V45.908z"/>
		
			<path fill="none" stroke="#151819" stroke-width="0.3462" stroke-linecap="round" stroke-linejoin="round" stroke-miterlimit="10" d="
			M68.071,34.569c-0.173,0-2.921-0.822-4.053-0.318"/>
		
			<path fill="none" stroke="#151819" stroke-width="0.6924" stroke-linecap="round" stroke-linejoin="round" stroke-miterlimit="10" d="
			M64.018,34.25c0,0-3.823,3.931-0.606,5.774"/>
		
			<path fill="none" stroke="#151819" stroke-width="0.6924" stroke-linecap="round" stroke-linejoin="round" stroke-miterlimit="10" d="
			M68.071,34.804l-1.385,5.221c0,0-2.108,0.201-3.073,0"/>
		
			<path fill="none" stroke="#151819" stroke-width="0.6924" stroke-linecap="round" stroke-linejoin="round" stroke-miterlimit="10" d="
			M63.412,40.025c0,0-23.346-5.469-27.279-5.469c-1.298,0-1.298,2.091-1.298,3.519c0,0,0.086,4.588,1.342,4.977
			c0,0,7.256,0.476,8.28,1.255"/>
		
			<path fill="none" stroke="#151819" stroke-width="0.3462" stroke-linecap="round" stroke-linejoin="round" stroke-miterlimit="10" d="
			M35.478,34.956c0,0,18.702,6.451,21.688,6.451"/>
		
			<path fill="none" stroke="#151819" stroke-width="0.6924" stroke-linecap="round" stroke-linejoin="round" stroke-miterlimit="10" d="
			M43.879,50.279c-1.667-0.504-6.929-2.472-8.632-1.485c-1.439,0.834-1.25,4.576-1.322,5.986c0,0-0.217,3.895-0.909,4.977"/>
		
			<path fill="none" stroke="#151819" stroke-width="0.6924" stroke-linecap="round" stroke-linejoin="round" stroke-miterlimit="10" d="
			M47.125,63.738c0,0-6.492-2.25-7.79-0.822c0,0-2.9,3.808,0.591,5.366l6.376,1.515l1.082-5.756
			C47.385,64.041,47.41,63.833,47.125,63.738z"/>
		
			<path fill="none" stroke="#151819" stroke-width="0.6924" stroke-linecap="round" stroke-linejoin="round" stroke-miterlimit="10" d="
			M40.136,68.332l-0.844,0.21c0,0-6.232-1.991-7.833-1.558c-1.602,0.433-2.135,1.63-4.429,5.222"/>
		
			<ellipse transform="matrix(-0.2545 0.9671 -0.9671 -0.2545 117.755 -16.2752)" fill="none" stroke="#151819" stroke-width="0.3808" stroke-linecap="round" stroke-linejoin="round" stroke-miterlimit="10" cx="65.151" cy="37.25" rx="1.601" ry="1.06"/>
		
			<path fill="none" stroke="#151819" stroke-width="0.3462" stroke-linecap="round" stroke-linejoin="round" stroke-miterlimit="10" d="
			M64.436,41.407c0,0,0.52,5.107-6.318,11.988c0,0,1.688-0.649,1.817-0.433c0.129,0.216,5.626-6.953,5.583-12.493"/>
		
			<path fill="none" stroke="#151819" stroke-width="0.3462" stroke-linecap="round" stroke-linejoin="round" stroke-miterlimit="10" d="
			M65.518,40.325c0,0-3.029,3.203-11.901,1.731"/>
		
			<path fill="none" stroke="#151819" stroke-width="0.3462" stroke-linecap="round" stroke-linejoin="round" stroke-miterlimit="10" d="
			M63.614,40.325c0,0-1.434,1.082-9.737,1.342c-2.625,0.082-6.353,0.747-8.049,2.64"/>
		
			<path fill="none" stroke="#151819" stroke-width="0.3462" stroke-linecap="round" stroke-linejoin="round" stroke-miterlimit="10" d="
			M51.15,42.878c0,0-2.945,1.254-3.247,1.99"/>
		
			<path fill="none" stroke="#151819" stroke-width="0.3462" stroke-linecap="round" stroke-linejoin="round" stroke-miterlimit="10" d="
			M47.903,50.968c0,0,0.521,3.682,6.449,4.677c0,0,1.508,0.147,6.053-1.325c0,0-0.297-0.925-0.47-1.358"/>
		
			<path fill="none" stroke="#151819" stroke-width="0.3462" stroke-linecap="round" stroke-linejoin="round" stroke-miterlimit="10" d="
			M49.203,51.361c0,0,2.121,4.306,8.915,2.034"/>
		
			<path fill="none" stroke="#151819" stroke-width="0.3462" stroke-linecap="round" stroke-linejoin="round" stroke-miterlimit="10" d="
			M43.879,50.279c0,0-0.477,4.74,8.024,4.708"/>
		
			<path fill="none" stroke="#151819" stroke-width="0.3462" stroke-linecap="round" stroke-linejoin="round" stroke-miterlimit="10" d="
			M42.581,50.134c0,0,0.487,7.037,10.354,6.042"/>
		
			<path fill="none" stroke="#151819" stroke-width="0.3462" stroke-linecap="round" stroke-linejoin="round" stroke-miterlimit="10" d="
			M60.405,54.32c0,0,2.213,0.33,0.093,2.364c0,0-7.146-1.063-11.447,3.657c-1.818,1.996-1.611,1.681-2.459,3.295"/>
		
			<path fill="none" stroke="#151819" stroke-width="0.3462" stroke-linecap="round" stroke-linejoin="round" stroke-miterlimit="10" d="
			M53.984,55.705c0,0-7.938,2.883-8.855,7.431"/>
		
			<path fill="none" stroke="#151819" stroke-width="0.3462" stroke-linecap="round" stroke-linejoin="round" stroke-miterlimit="10" d="
			M51.296,56.924c0,0-4.69,0.258-7.417,4.218"/>
		
			<path fill="none" stroke="#151819" stroke-width="0.3462" stroke-linecap="round" stroke-linejoin="round" stroke-miterlimit="10" d="
			M47.588,59.399c0,0-2.299,1.049-2.61,2.03"/>
		
			<path fill="none" stroke="#151819" stroke-width="0.3462" stroke-linecap="round" stroke-linejoin="round" stroke-miterlimit="10" d="
			M33.255,59.93c2.413,0.531,4.847,0.801,7.302,1.042c1.387,0.136,3.658,0.01,4.859,0.841"/>
		
			<path fill="none" stroke="#151819" stroke-width="0.6924" stroke-linecap="round" stroke-linejoin="round" stroke-miterlimit="10" d="
			M33.017,59.757c0,0-1.276,0.714,1.255,1.211c2.532,0.498,6.167,1.017,6.427,1.32"/>
		
			<path fill="none" stroke="#151819" stroke-width="0.3462" stroke-linecap="round" stroke-linejoin="round" stroke-miterlimit="10" d="
			M46.347,69.564c0,0,3.593,4.078,5.173,3.97"/>
		
			<path fill="none" stroke="#151819" stroke-width="0.3462" stroke-linecap="round" stroke-linejoin="round" stroke-miterlimit="10" d="
			M45.197,70.718c0,0,3.127,2.972,4.23,3.231"/>
		
			<path fill="none" stroke="#151819" stroke-width="0.3462" stroke-linecap="round" stroke-linejoin="round" stroke-miterlimit="10" d="
			M44.803,69.564c0,0,1.358,5.772,6.109,4.734c0,0,1.479-0.266,3.637-1.198"/>
		
			<path fill="none" stroke="#151819" stroke-width="0.3462" stroke-linecap="round" stroke-linejoin="round" stroke-miterlimit="10" d="
			M43.163,69.051c0,0,1.063,5.939,5.218,6.697"/>
		
			<path fill="none" stroke="#151819" stroke-width="0.3462" stroke-linecap="round" stroke-linejoin="round" stroke-miterlimit="10" d="
			M46.161,74.719c0,0-4.553-0.421-5.657,5.963"/>
		
			<path fill="none" stroke="#151819" stroke-width="0.3462" stroke-linecap="round" stroke-linejoin="round" stroke-miterlimit="10" d="
			M46.822,75.336c0,0-4.198-0.297-5.179,4.199"/>
		
			<path fill="none" stroke="#151819" stroke-width="0.3462" stroke-linecap="round" stroke-linejoin="round" stroke-miterlimit="10" d="
			M56.148,72.827c-6.945,1.188-6.933,1.188-8.122,1.205"/>
		
			<path fill="none" stroke="#151819" stroke-width="0.3462" stroke-linecap="round" stroke-linejoin="round" stroke-miterlimit="10" d="
			M56.148,72.827c0,0,1.651,0,1.688,0c0.366,0,0.304,1.258,0.143,1.428c-0.441,0.465-1.839,0.588-2.405,0.684
			c-1.761,0.299-3.42,0.844-5.118,1.403c-3.359,1.104-7.763,3.176-8.523,7.045"/>
		
			<path fill="none" stroke="#151819" stroke-width="0.3462" stroke-linecap="round" stroke-linejoin="round" stroke-miterlimit="10" d="
			M51.759,74.094c0,0-11.255,5.072-11.624,9.92"/>
		
			<path fill="none" stroke="#151819" stroke-width="0.3462" stroke-linecap="round" stroke-linejoin="round" stroke-miterlimit="10" d="
			M44.457,90.008c0,0,6.65,4.934,17.296,5.389c0,0,6.405,0.715,7.66-2.293"/>
		
			<path fill="none" stroke="#151819" stroke-width="0.3462" stroke-linecap="round" stroke-linejoin="round" stroke-miterlimit="10" d="
			M44.248,91.934c0,0,4.717,4.068,13.848,4.652c9.132,0.584,11.988-0.734,12.638-2.326"/>
		
			<path fill="none" stroke="#151819" stroke-width="0.3462" stroke-linecap="round" stroke-linejoin="round" stroke-miterlimit="10" d="
			M44.81,84.785c0,0,4.371,2.929,9.348,2.973c4.977,0.043,14.693,3.182,15.19,4.825c0.498,1.646,6.298,5.604,7.185,5.886"/>
		
			<path fill="none" stroke="#151819" stroke-width="0.3462" stroke-linecap="round" stroke-linejoin="round" stroke-miterlimit="10" d="
			M77.312,96.889c0,0-7.812-5.193-8.183-5.973c-0.368-0.777-2.794-2.812-13.827-4.154c-7.292-0.887-9.437-3.096-9.716-3.115"/>
		
			<path fill="none" stroke="#151819" stroke-width="0.3462" stroke-linecap="round" stroke-linejoin="round" stroke-miterlimit="10" d="
			M76.532,89.51c0,0-3.873-0.627-6.146,2.295"/>
		
			<path fill="none" stroke="#151819" stroke-width="0.3462" stroke-linecap="round" stroke-linejoin="round" stroke-miterlimit="10" d="
			M75.927,90.7c0,0-3.008-0.791-4.458,2.039"/>
		
			<path fill="none" stroke="#151819" stroke-width="0.3462" stroke-linecap="round" stroke-linejoin="round" stroke-miterlimit="10" d="
			M76.641,89.453c0,0,0.844,0.477-0.52,1.176"/>
		
			<path fill="none" stroke="#151819" stroke-width="0.3462" stroke-linecap="round" stroke-linejoin="round" stroke-miterlimit="10" d="
			M99.707,94.336c0,0,0.195,0.588,0.975,0.326"/>
		
			<path fill="none" stroke="#151819" stroke-width="0.3462" stroke-linecap="round" stroke-linejoin="round" stroke-miterlimit="10" d="
			M79.154,94.729"/>
		
			<ellipse fill="none" stroke="#151819" stroke-width="0.3462" stroke-linecap="round" stroke-linejoin="round" stroke-miterlimit="10" cx="45.207" cy="47.167" rx="1.356" ry="1.476"/>
		
			<ellipse fill="none" stroke="#151819" stroke-width="0.3462" stroke-linecap="round" stroke-linejoin="round" stroke-miterlimit="10" cx="40.811" cy="65.508" rx="1.288" ry="1.415"/>
		
			<path fill="none" stroke="#151819" stroke-width="0.3462" stroke-linecap="round" stroke-linejoin="round" stroke-miterlimit="10" d="
			M64.306,41.739c-5.9,4.818-10.819,0.461-10.819,0.461s-3.16,0.202-3.96,2.799"/>
		
			<path fill="none" stroke="#151819" stroke-width="0.3462" stroke-linecap="round" stroke-linejoin="round" stroke-miterlimit="10" d="
			M55.292,43.297c0,0-4.115,0.081-4.142,2.192"/>
		
			<path fill="none" stroke="#151819" stroke-width="0.3462" stroke-linecap="round" stroke-linejoin="round" stroke-miterlimit="10" d="
			M63.729,42.443c0,0-0.16,1.921-0.134,3.046"/>
		
			<path fill="none" stroke="#151819" stroke-width="0.3462" stroke-linecap="round" stroke-linejoin="round" stroke-miterlimit="10" d="
			M62.795,42.878c0,0,0.061,3.343-0.159,4.646"/>
		
			<path fill="none" stroke="#151819" stroke-width="0.3462" stroke-linecap="round" stroke-linejoin="round" stroke-miterlimit="10" d="
			M63.614,47.312l0.404,15.129c0,0-1.16,0.035-1.097-0.196c0.173-0.628,0.145-11.563-0.285-12.89"/>
		
			<path fill="none" stroke="#151819" stroke-width="0.3462" stroke-linecap="round" stroke-linejoin="round" stroke-miterlimit="10" d="
			M62.636,62.441h-0.291L61.5,69.177c0,0,1.568,0.476,1.827,0.209c0.258-0.267,0.922-6.701,0.922-6.701"/>
		
			<path fill="none" stroke="#151819" stroke-width="0.3462" stroke-linecap="round" stroke-linejoin="round" stroke-miterlimit="10" d="
			M64.652,29.974c0,0,1.848-6.441,2.684-6.066c0,0,4.154,5.655,1.789,9.579c0,0-4.886-3.203-6.33-5.655"/>
		
			<path fill="none" stroke="#151819" stroke-width="0.3462" stroke-linecap="round" stroke-linejoin="round" stroke-miterlimit="10" d="
			M63.661,28.817c0,0,0.703-5.919,3.501-6.467c3.909,1.189,6.344,9.407,2.856,12.206c0,0-1.571,0.846-3.765-1.203"/>
		
			<path fill="none" stroke="#151819" stroke-width="0.3462" stroke-linecap="round" stroke-linejoin="round" stroke-miterlimit="10" d="
			M63.758,26.736l-1.578-0.548c0,0-1.567-0.145-1.855,1.442"/>
		
			<path fill="none" stroke="#151819" stroke-width="0.3462" stroke-linecap="round" stroke-linejoin="round" stroke-miterlimit="10" d="
			M66.254,33.833c0,0-0.563-5.366-10.199-7.271c0,0-15.027-2.659-19.129-1.789c-2.175,0.461-1.298,1.991-0.866,3.26"/>
		
			<path fill="none" stroke="#151819" stroke-width="0.3462" stroke-linecap="round" stroke-linejoin="round" stroke-miterlimit="10" d="
			M64.652,33.747c0,0-2.741-5.049-12.031-6.117c-9.29-1.068-12.06-1.789-14.311-1.24c-2.25,0.548,0.449,2.029,2.374,2.826"/>
		
			<path fill="none" stroke="#151819" stroke-width="0.3462" stroke-linecap="round" stroke-linejoin="round" stroke-miterlimit="10" d="
			M44.529,26.678c0,0,7.389,2.492,12.948,2.01"/>
		
			<path fill="none" stroke="#151819" stroke-width="0.3462" stroke-linecap="round" stroke-linejoin="round" stroke-miterlimit="10" d="
			M37.936,26.678c0,0,11.483,4.732,23.427,4.241"/>
		
			<path fill="none" stroke="#151819" stroke-width="0.3462" stroke-linecap="round" stroke-linejoin="round" stroke-miterlimit="10" d="
			M48.554,30.582c0,0,2.034,0.184,2.95-0.287"/>
		
			<path fill="none" stroke="#151819" stroke-width="0.3462" stroke-linecap="round" stroke-linejoin="round" stroke-miterlimit="10" d="
			M52.939,31.496c0,0,2.02-0.188,2.597-0.541"/>
		
			<path fill="none" stroke="#151819" stroke-width="0.3462" stroke-linecap="round" stroke-linejoin="round" stroke-miterlimit="10" d="
			M56.343,30.955c0,0,3.874,2.282,3.852,2.397"/>
		
			<line fill="none" stroke="#151819" stroke-width="0.3462" stroke-linecap="round" stroke-linejoin="round" stroke-miterlimit="10" x1="54.482" y1="31.277" x2="56.689" y2="32.419"/>
		
			<path fill="none" stroke="#151819" stroke-width="0.3462" stroke-linecap="round" stroke-linejoin="round" stroke-miterlimit="10" d="
			M65.323,27.832c0,0,4.251,2.098,3.55,5.521"/>
		
			<path fill="none" stroke="#151819" stroke-width="0.3462" stroke-linecap="round" stroke-linejoin="round" stroke-miterlimit="10" d="
			M65.15,28.817c0,0,2.722,1.647,2.504,3.603"/>
		
			<path fill="none" stroke="#151819" stroke-width="0.3462" stroke-linecap="round" stroke-linejoin="round" stroke-miterlimit="10" d="
			M63.661,27.832c0,0-1.691-0.742-1.288,0.985"/>
		
			<line fill="none" stroke="#151819" stroke-width="0.3462" stroke-linecap="round" stroke-linejoin="round" stroke-miterlimit="10" x1="61.623" y1="30.73" x2="61.623" y2="33.487"/>
		<path fill="#151819" d="M31.729,57.854v-0.519c0.701-1.759,2.019-4.578,2.344-5.751l-0.13,1.519
			C33.698,53.98,32.563,55.758,31.729,57.854z"/>
		<path fill="#151819" d="M33.269,42.618c-0.166-4.698,0.634-7.476,1.853-8.257c0.484-0.31,1.34,0.116,1.545,0.218l-0.69,0.286
			l0.156-0.31l-0.148,0.313c-0.023-0.01-0.236-0.096-0.507,0.087c-0.446,0.303-2.043,1.937-1.832,7.922L33.269,42.618z"/>
		
			<path fill="none" stroke="#151819" stroke-width="0.3462" stroke-linecap="round" stroke-linejoin="round" stroke-miterlimit="10" d="
			M68.664,34.804c0,0-0.36,1.169-1.296,2.537"/>
		
			<path fill="none" stroke="#151819" stroke-width="0.3462" stroke-linecap="round" stroke-linejoin="round" stroke-miterlimit="10" d="
			M34.602,48.894c-1.702,2.69-2.104,5.825-3.1,8.697"/>
		
			<path fill="none" stroke="#151819" stroke-width="0.3462" stroke-linecap="round" stroke-linejoin="round" stroke-miterlimit="10" d="
			M29.335,67.053c0,0-2.464,3.09-2.68,4.085c-0.216,0.995-0.49,1.14-0.894,1.067"/>
		
			<polyline fill="none" stroke="#151819" stroke-width="0.3462" stroke-linecap="round" stroke-linejoin="round" stroke-miterlimit="10" points="
			56.148,56.924 52.935,59.42 51.903,58.172 		"/>
	</g>
</g>
<g id="frame">
	<circle fill="none" stroke="#000000" stroke-width="2" stroke-miterlimit="10" cx="75.159" cy="75.193" r="74.5"/>
</g>
</svg>
