<?xml version="1.0" encoding="utf-8"?>
<!-- Generator: Adobe Illustrator 15.1.0, SVG Export Plug-In . SVG Version: 6.00 Build 0)  -->
<!DOCTYPE svg PUBLIC "-//W3C//DTD SVG 1.1//EN" "http://www.w3.org/Graphics/SVG/1.1/DTD/svg11.dtd">
<svg version="1.1" id="Layer_1" xmlns="http://www.w3.org/2000/svg" xmlns:xlink="http://www.w3.org/1999/xlink" x="0px" y="0px"
	 width="151px" height="151px" viewBox="-0.341 -0.307 151 151" enable-background="new -0.341 -0.307 151 151"
	 xml:space="preserve">
<g id="sneaker">
	
		<path fill="none" stroke="#000000" stroke-width="0.8825" stroke-linecap="round" stroke-linejoin="round" stroke-miterlimit="10" d="
		M67.783,114.654c-5.736-0.734-12.252-5.506-26.77-9.928c-14.527-4.429-20.445-8.093-21.696-8.898
		c-0.929-0.602-0.589-7.792-0.353-11.45c0.082-1.267,1.235,1.89,0.647-1.126c-0.588-3.016-1.176-13.017-1.176-13.017V68.47
		l1.103-17.209c1.913-4.192,5.222-2.501,5.222-2.501c2.353-4.559,6.545-3.677,6.545-3.677c2.06,0.221,3.751-0.515,9.634,0
		s7.575,15.296,7.722,17.356s-3.382,5.442-3.382,5.442s0.735,0.146,5.589-1.177c4.854-1.323,5.295-1.691,6.031-0.514"/>
	<path fill="none" stroke="#000000" stroke-width="0.8825" stroke-miterlimit="10" d="M67.412,114.6
		c7.74,2.284,61.803,7.438,60.087-10.094c-0.661-6.767-0.81-5.146-1.544-6.398l-1.766-1.32c0,0-0.588-2.868-4.191-4.854
		c-3.604-1.986-7.574-2.94-8.457-3.091c-0.883-0.146-6.251-2.722-6.251-2.722l-4.634-3.382"/>
	
		<line fill="none" stroke="#000000" stroke-width="0.4413" stroke-miterlimit="10" x1="96.832" y1="80.529" x2="94.626" y2="78.986"/>
	
		<line fill="none" stroke="#000000" stroke-width="0.4413" stroke-miterlimit="10" x1="91.021" y1="76.779" x2="88.742" y2="75.015"/>
	
		<line fill="none" stroke="#000000" stroke-width="0.4413" stroke-miterlimit="10" x1="85.286" y1="72.735" x2="83.08" y2="70.676"/>
	
		<line fill="none" stroke="#000000" stroke-width="0.4413" stroke-miterlimit="10" x1="76.387" y1="66.704" x2="80.794" y2="68.854"/>
	<polyline fill="none" stroke="#000000" stroke-width="0.4413" stroke-miterlimit="10" points="74.974,64.126 74.181,62.733 
		72.857,61.924 	"/>
	<path fill="none" stroke="#000000" stroke-width="0.8825" stroke-miterlimit="10" d="M70.725,58.909l-0.809-1.397l-1.104-0.588
		c0,0-2.868-5.001-3.162-5.075c-0.294-0.073-6.251-11.031-6.251-11.031s-1.324-8.458-6.472-10.076
		c-5.147-1.618-9.266,2.354-12.943,6.325c-3.677,3.971-3.971,4.265-3.971,4.265s-1.029,0.733-0.882,3.309"/>
	<path fill="none" stroke="#000000" stroke-width="0.4413" stroke-miterlimit="10" d="M57.149,34.492l5.044,0.294
		c0,0,5.185,4.88,3.787,17.456"/>
	<line fill="none" stroke="#000000" stroke-width="0.8825" stroke-miterlimit="10" x1="59.96" y1="69.264" x2="62.244" y2="70.47"/>
	<path fill="none" stroke="#000000" stroke-width="0.8825" stroke-miterlimit="10" d="M63.812,73.985c0,0-0.221,1.398,0,1.914
		c0.221,0.517,6.546-0.788,6.913-0.49"/>
	
		<line fill="none" stroke="#000000" stroke-width="0.8825" stroke-miterlimit="10" x1="73.924" y1="77.811" x2="76.387" y2="79.775"/>
	
		<line fill="none" stroke="#000000" stroke-width="0.8825" stroke-miterlimit="10" x1="79.255" y1="82.002" x2="81.682" y2="83.913"/>
	
		<line fill="none" stroke="#000000" stroke-width="0.8825" stroke-miterlimit="10" x1="84.991" y1="86.268" x2="87.124" y2="87.738"/>
	<path fill="none" stroke="#000000" stroke-width="0.8825" stroke-miterlimit="10" d="M89.992,90.753c0,0,1.471,0.515,0.662,7.942
		l-2.021,2.535"/>
	<path fill="none" stroke="#000000" stroke-width="0.8825" stroke-miterlimit="10" stroke-dasharray="1.765,1.765" d="M35.46,86.348
		c-3.052-7.435,5.508-9.709,8.296-10.824c4.244-1.693,7.838-1.308,12.039,1.26c0,0,23.829,16.986,24.674,18.018
		c0.846,1.029-0.197,1.863-0.418,2.379"/>
	<path fill="none" stroke="#000000" stroke-width="0.8825" stroke-miterlimit="10" d="M19.226,84.927c0,0,6.196,5.681,22.007,9.871
		c15.811,4.192,25.739,9.267,25.741,9.267c12.321,6.297,39.581,3.494,52.951-1.982c6.104-2.501,5.956-4.78,4.267-4.707"/>
	<path fill="none" stroke="#000000" stroke-width="0.8825" stroke-miterlimit="10" stroke-dasharray="1.765,1.765" d="
		M119.998,91.93c0,0-3.824,7.502-17.871,6.619c0,0-4.044-0.441-7.501,2.573c0,0-1.882,3.601-15.371-4.412
		c-5.074-3.015-10.299,5.296-12.281,7.354"/>
	<path fill="none" stroke="#000000" stroke-width="0.8825" stroke-miterlimit="10" d="M18.462,70.676h1.175
		c0,0,11.934,14.57,16.816,16.105c1.905,0.6,2.03,4.824,1.493,7.083"/>
	<path fill="none" stroke="#000000" stroke-width="0.4413" stroke-miterlimit="10" d="M105.29,86.119c0,0-3.31,5.257-14.269,9.873"
		/>
	<path fill="none" stroke="#000000" stroke-width="0.8825" stroke-miterlimit="10" d="M100.748,83.038c0,0-2.46,4.308-10.329,8.278"
		/>
	<path fill="none" stroke="#000000" stroke-width="0.4413" stroke-miterlimit="10" d="M53.258,70.051c0,0-2.338-3,10.995-6.141
		c7.428-1.75,7.134-0.993,7.134-0.993"/>
	
		<path fill="none" stroke="#000000" stroke-width="0.4413" stroke-linecap="round" stroke-linejoin="round" stroke-miterlimit="10" d="
		M71.388,62.754l2.025,3.111l-0.997-0.043c0,0-7.502,0.883-11.915,3.163c-4.413,2.279-5.369,2.72-6.987,1.691"/>
	
		<polyline fill="none" stroke="#000000" stroke-width="0.4413" stroke-linecap="round" stroke-linejoin="round" stroke-miterlimit="10" points="
		71.901,62.754 73.151,61.262 71.388,58.909 66.447,63.417 	"/>
	
		<path fill="none" stroke="#000000" stroke-width="0.4413" stroke-linecap="round" stroke-linejoin="round" stroke-miterlimit="10" d="
		M71.733,67.33c1.124-0.626,3.422-3.42,3.422-3.42l1.6,1.765l-1.054,1.029"/>
	<path fill="none" stroke="#000000" stroke-width="0.4413" stroke-miterlimit="10" d="M79.598,69.498c0,0-3.068-1.69-12.186,2.722
		c-9.116,4.413-6.69,2.416-7.205,2.274c-0.514-0.141-0.726-0.509-0.726-0.509s-1.701-2.196,6.315-4.849
		c9.938-3.289,11.2-2.237,10.591-2.432"/>
	
		<path fill="none" stroke="#000000" stroke-width="0.4413" stroke-linecap="round" stroke-linejoin="round" stroke-miterlimit="10" d="
		M74.696,69.498c0,0-1.839,3.899-1.839,4.487"/>
	
		<path fill="none" stroke="#000000" stroke-width="0.4413" stroke-linecap="round" stroke-linejoin="round" stroke-miterlimit="10" d="
		M70.209,70.966c0,0-2.132,3.245-2.132,4.649"/>
	
		<path fill="none" stroke="#000000" stroke-width="0.4413" stroke-linecap="round" stroke-linejoin="round" stroke-miterlimit="10" d="
		M68.316,78.986c0,0,0.925-4.614,8.071-6.251c7.146-1.637,7.68-1.139,7.68-1.139"/>
	
		<path fill="none" stroke="#000000" stroke-width="0.4413" stroke-linecap="round" stroke-linejoin="round" stroke-miterlimit="10" d="
		M84.991,73.691c0,0-5.959,1.258-12.134,4.486c-3.058,1.599-3.089,1.138-4.045,1.599"/>
	
		<path fill="none" stroke="#000000" stroke-width="0.4413" stroke-linecap="round" stroke-linejoin="round" stroke-miterlimit="10" d="
		M74.318,82.958c0,0,1.176-3.75,6.476-5.147c5.302-1.396,7.14-1.396,7.14-1.396l2.965,1.507l-0.479,1.064
		c0,0-8.812,1.324-10.574,2.724c-1.767,1.396-5.149,2.206-5.149,2.206"/>
	
		<polyline fill="none" stroke="#000000" stroke-width="0.4413" stroke-linecap="round" stroke-linejoin="round" stroke-miterlimit="10" points="
		87.934,76.412 88.742,74.494 86.059,72.018 83.08,77.241 	"/>
	
		<polyline fill="none" stroke="#000000" stroke-width="0.4413" stroke-linecap="round" stroke-linejoin="round" stroke-miterlimit="10" points="
		82.305,71.615 84.184,69.867 81.682,67.955 77.128,72.567 	"/>
	
		<line fill="none" stroke="#000000" stroke-width="0.4413" stroke-miterlimit="10" x1="80.285" y1="75.194" x2="78.908" y2="78.473"/>
	
		<path fill="none" stroke="#000000" stroke-width="0.4413" stroke-linecap="round" stroke-linejoin="round" stroke-miterlimit="10" d="
		M93.816,79.759l0.81-1.286l-3.015-2.061c0,0-1.77,3.604-1.729,4.117"/>
	
		<path fill="none" stroke="#000000" stroke-width="0.4413" stroke-linecap="round" stroke-linejoin="round" stroke-miterlimit="10" d="
		M80.506,88.4c0,0.367,10.885-5.736,12.98-5.664"/>
	
		<path fill="none" stroke="#000000" stroke-width="0.4413" stroke-linecap="round" stroke-linejoin="round" stroke-miterlimit="10" d="
		M95.729,81.266l-2.242-1.49c-5.369,1.642-11.582,2.476-13.889,8.352"/>
	
		<path fill="none" stroke="#000000" stroke-width="0.4413" stroke-linecap="round" stroke-linejoin="round" stroke-miterlimit="10" d="
		M98.156,80.163c0,0,2.354,1.125,2.279,2.106c-0.074,0.979-7.471,5.603-9.414,7.524c-1.789,1.771-4.963,3.089-4.963,3.089
		l-1.067-0.566c0,0,1.067-3.644,7.263-8.846C99.049,77.766,98.156,80.163,98.156,80.163z"/>
	<path fill="none" stroke="#000000" stroke-width="0.8825" stroke-miterlimit="10" d="M32.041,52.242"/>
	<path fill="none" stroke="#000000" stroke-width="0.8825" stroke-miterlimit="10" stroke-dasharray="1.765,1.765" d="
		M30.257,45.322c0,0-5.295,4.744-1.324,8.108c3.005,2.546,8.439,6.123,10.59,19.926c0.8,5.136,3.307,2.516,3.088,2.083"/>
	<path fill="none" stroke="#000000" stroke-width="0.8825" stroke-miterlimit="10" d="M69.179,79.662
		c-0.145,0.174-0.466,0.146-0.715-0.061c-0.25-0.209-0.333-0.521-0.188-0.693"/>
	<path fill="none" stroke="#000000" stroke-width="0.8825" stroke-miterlimit="10" d="M54.489,70.805
		c-0.145,0.174-0.466,0.147-0.715-0.06c-0.25-0.208-0.333-0.519-0.188-0.694"/>
	<path fill="none" stroke="#000000" stroke-width="0.8825" stroke-miterlimit="10" d="M75.183,83.792
		c-0.146,0.174-0.466,0.147-0.714-0.062c-0.25-0.209-0.334-0.521-0.188-0.692"/>
	<path fill="none" stroke="#000000" stroke-width="0.8825" stroke-miterlimit="10" d="M80.736,88.734
		c-0.146,0.175-0.465,0.146-0.715-0.062s-0.334-0.521-0.188-0.691"/>
	<path fill="none" stroke="#000000" stroke-width="0.8825" stroke-miterlimit="10" d="M85.966,92.723
		c-0.146,0.176-0.466,0.147-0.714-0.06c-0.25-0.209-0.335-0.521-0.189-0.694"/>
	
		<line fill="none" stroke="#000000" stroke-width="0.4413" stroke-miterlimit="10" x1="86.889" y1="79.512" x2="84.624" y2="82.736"/>
</g>
<g id="frame">
	<circle fill="none" stroke="#000000" stroke-width="2" stroke-miterlimit="10" cx="75.159" cy="75.193" r="74.5"/>
</g>
</svg>
